<svg width="49" height="105" viewBox="0 0 49 105" fill="none" xmlns="http://www.w3.org/2000/svg">
<path d="M35.653 22.2155C36.2813 24.1633 36.9268 26.0913 37.3015 28.1312C38.1372 32.6454 38.7367 37.8438 38.2237 42.4237C37.6761 47.2932 36.2352 50.3728 36.5176 55.6765C36.702 58.9996 37.9989 62.0463 37.705 65.3299C37.5609 66.9947 36.483 71.3574 35.7222 72.7393C35.0997 73.8777 34.0622 74.8319 33.3993 76.0097C31.9123 78.6682 30.5462 85.8934 30.6327 89.0585C30.6385 89.381 31.0765 90.9208 30.3791 90.7234C30.2811 90.697 29.4396 89.2099 29.3416 88.9467C28.8632 87.7096 28.9266 86.5185 28.8228 85.1959C28.2464 86.104 27.8718 87.9333 27.8545 89.052C27.8545 89.2428 28.2926 91.5722 27.6989 90.9208C27.4799 90.6839 26.9035 87.9991 26.8343 87.4661C26.5058 84.9393 26.719 80.3922 27.549 78.0167C28.5001 75.2728 30.9843 73.7198 31.8546 70.8902C33.7567 64.6982 30.8171 59.4273 31.9296 53.0049C33.6875 42.8186 37.3822 37.5938 32.2235 27.0192C29.7105 21.8668 24.961 18.0962 24.7535 11.7528C23.8371 13.1215 23.2492 13.2531 21.814 12.5424C22.1944 13.2136 21.6987 12.7793 21.3068 13.0425C16.615 16.2011 17.7101 30.77 17.4968 36.3435C17.3182 40.9761 17.1222 47.6419 15.9809 51.9784C15.2201 54.8803 13.7849 57.7427 12.9953 60.6118C11.1969 67.1526 14.1423 74.062 12.9146 80.8595C11.6984 87.6504 9.50812 89.9403 10.6321 97.6722C10.9664 99.9753 11.854 102.278 11.7042 104.549C10.6148 103.43 9.70985 102.206 8.93173 100.798C8.78187 100.943 8.66659 101.186 8.48791 101.278C4.85091 103.108 6.75875 100.837 6.9432 98.7185C7.07577 97.2182 6.85098 95.5204 6.94896 93.9872C7.20834 89.7758 8.30347 85.7223 8.25736 81.3464C8.24007 79.9514 7.9 78.3721 7.98646 77.0034C8.06139 75.8058 8.5859 74.6674 8.67812 73.4566C9.04125 68.7911 6.99507 64.9745 7.28326 60.6118C7.50229 57.3479 9.66951 54.0314 10.7819 50.9782C12.4246 46.4509 13.318 40.0614 13.514 35.1459C13.5947 33.2178 13.1566 31.2635 13.1566 29.421C13.1509 27.0652 13.5544 22.8933 14.125 20.6362C14.442 19.3662 15.0414 18.3134 15.4161 17.0829C13.7388 18.5832 11.6869 18.7806 9.82513 19.6755C8.11903 20.4915 4.75869 23.7093 3.12752 23.1104C1.54245 22.5314 1.83641 20.4257 1.50211 19.0504C1.00065 16.9907 -0.192471 15.4246 0.0265563 13.0294C0.0553756 12.7464 0.34357 11.1474 0.412736 10.9105C0.649055 10.0419 2.09578 8.95615 2.52807 8.18626C3.15634 7.07418 2.79321 6.732 3.94599 5.6594C8.48791 1.45457 14.8628 1.88887 20.3557 1.86913C21.0128 1.86913 22.154 1.67172 22.4307 1.69146C22.6728 1.71121 22.8284 2.02048 23.082 2.02706C23.7391 2.04022 25.3991 1.25716 26.2464 1.1124C28.0159 0.816282 29.3128 1.42825 30.8978 1.28348C32.2293 1.15846 33.8316 0.349079 35.2438 0.125347C37.5954 -0.249732 44.4372 0.270112 46.7312 0.980788C47.9762 1.36903 48.7773 2.27053 48.956 3.77085C49.2615 6.35692 47.8955 14.7995 47.3306 17.6751C46.8637 20.0374 45.9646 23.2618 44.1144 24.67C41.6647 26.5322 37.9701 23.3079 35.653 22.2155ZM47.0078 2.34292C45.7167 1.42167 38.6387 0.566227 36.9499 0.697833C34.4541 0.888663 31.5664 2.70484 29.3589 2.4482C28.8459 2.38898 28.3675 2.11919 27.7911 2.06654C26.7594 1.97442 25.7738 2.22447 24.7593 2.27711C25.3357 2.65877 25.5028 3.45499 25.8775 3.8564C26.2349 4.23805 27.0072 4.27095 27.0879 4.80396C27.2435 5.86997 25.9467 9.79185 25.2781 10.7592C28.3041 10.9368 30.454 13.4834 33.1169 14.7468C34.9671 15.622 36.7424 15.8984 38.5984 16.9776C41.0307 18.3923 42.8924 20.3467 44.7311 22.6038C45.9819 22.5709 46.7485 11.9436 46.9214 10.4959C47.1577 8.48237 48.103 5.28433 47.7226 3.40235C47.6707 3.13914 47.175 2.46794 47.0078 2.34292ZM19.739 2.67193C14.8973 3.15888 10.3035 2.79696 5.9057 5.5278C4.36098 6.48195 2.23412 8.94957 1.15051 10.5618C1.01794 10.7592 0.816206 10.8118 0.891136 11.154C4.29182 11.3909 6.61466 7.9362 9.5427 6.52143C12.05 5.31065 14.978 4.60655 17.5833 3.65898L19.739 2.67193ZM22.6555 7.77169C22.7708 7.68615 23.1858 5.88313 23.1627 5.58044C23.157 5.47515 22.6958 3.73137 22.644 3.59976C22.5575 3.36287 22.5056 3.25758 22.2578 3.25758C21.9408 3.25758 17.6467 5.35671 16.7591 5.68573C14.2691 6.60039 11.0817 7.11366 8.75305 8.19283C6.26306 9.34439 3.9114 12.4371 0.885373 11.8383C-0.0253176 14.5034 2.03815 17.0368 2.36669 19.4386C2.57419 20.9455 1.9978 22.7814 4.04974 22.3669C6.14778 20.7349 8.24583 17.9712 10.7416 17.175C11.6811 16.8789 12.6552 16.8657 13.6062 16.4972C15.7389 15.6813 18.275 13.2202 19.9177 11.4567C20.1597 11.2 21.8601 9.25227 21.6411 8.98905C19.1511 10.7592 16.8109 12.8451 14.2114 14.4244C13.9232 14.5955 11.0125 16.3788 12.1191 14.7995C12.3612 14.4507 15.589 12.5227 16.2691 12.0292C17.8657 10.871 20.0733 8.77848 21.6929 7.95594C22.033 7.78485 22.5172 7.8704 22.6555 7.77169ZM24.7247 3.50106C24.2924 3.21152 23.6411 3.77743 23.1973 3.8564C23.6354 4.62629 23.9985 5.47516 23.8947 6.42273C24.3558 6.38982 24.8688 4.91583 24.9495 4.86319C25.1513 4.73158 25.6124 4.94873 25.6181 5.13298C25.6239 5.35671 24.0619 7.9033 23.791 8.17967C23.2722 8.71926 22.7535 8.58765 22.7074 8.63371C22.546 8.79822 21.497 11.5817 21.6411 11.7528C22.3442 11.7725 22.7189 12.1739 23.3702 11.6475C23.5316 11.5159 25.5605 8.3376 25.7103 8.002C25.9467 7.46241 26.4424 5.69231 26.2867 5.17246C26.1945 4.86319 25.5547 4.63287 25.2665 4.3565C25.0302 4.12619 24.7593 3.52738 24.7247 3.50106ZM20.9494 12.345L21.2145 10.7657C20.5344 11.8383 18.6093 13.2794 18.1482 14.3718C17.7216 15.3786 17.2663 18.1752 17.03 19.4123C16.8398 20.3928 16.6265 21.3996 16.6265 22.4129L16.4766 21.5509L17.664 15.1088C17.249 14.5955 15.6293 17.9515 15.4968 18.2607C13.1797 23.8474 14.2864 29.3881 14.0328 35.1459C13.8137 40.0548 13.076 46.4904 11.5197 51.0374C10.609 53.6958 8.24583 57.723 7.99799 60.2433C7.58875 64.4613 9.50236 68.3108 9.36979 72.4695C9.32944 73.8119 8.78187 75.1543 8.67236 76.4177C8.47639 78.6879 8.96055 81.3003 8.84527 83.7153C8.67236 87.249 7.65792 90.8879 7.46195 94.382C7.33514 96.7115 7.95188 98.8896 7.11611 101.193C8.21125 100.831 8.30923 100.811 8.75882 99.62C9.69256 100.699 10.0326 102.226 11.1796 103.167L9.73291 95.5402C8.9202 90.0982 11.7099 85.4394 12.5687 80.4712C13.5659 74.6805 11.5716 69.5084 11.7906 63.7769C11.9578 59.3286 14.4535 55.058 15.5025 50.8466C16.6841 46.1021 16.7245 39.5415 16.7994 34.5602C16.8859 29.1183 16.2057 19.9519 18.7361 15.247C19.3355 14.1349 20.3269 12.8451 21.4681 12.5359L20.9494 12.345ZM25.2723 11.9568C24.7305 11.358 25.134 13.1018 25.1858 13.3387C26.5807 19.1622 31.3244 22.8407 33.5492 28.4668C37.9297 39.5284 33.0996 45.9442 32.5405 56.2819C32.2523 61.5791 34.5752 67.7646 32.1601 72.8249C31.1745 74.8977 29.3301 76.1019 28.4136 78.4181C27.4222 80.9253 27.2493 84.3602 27.3531 87.0844C27.3588 87.3213 27.2205 87.8149 27.5202 87.7688C27.5894 86.5778 28.0332 84.143 28.5865 83.1626C28.9151 82.5703 29.5606 82.4519 29.8719 83.031C30.0275 83.3337 29.3416 86.2093 29.601 86.8805L30.1139 88.7559C30.1601 87.6898 30.0505 86.5909 30.137 85.5249C30.2926 83.7219 31.1284 79.2933 31.6702 77.5956C32.4598 75.0885 34.3907 73.6671 35.2784 71.4562C35.849 70.0414 36.5695 67.0605 36.8173 65.5075C37.3303 62.2108 35.9758 58.5982 35.8202 55.104C35.5089 48.1881 38.0104 42.5093 37.728 35.7447C37.5839 32.4414 36.4715 23.6961 34.3561 21.4325C32.8633 19.84 30.3157 18.5371 28.7306 16.7933C27.843 15.8194 26.3501 13.8519 25.5432 12.7333C25.3645 12.4898 25.3011 11.9831 25.2723 11.9568ZM27.2839 13.2136C27.0303 12.9965 26.3098 12.5161 25.9697 12.6411C28.0332 14.5034 29.5664 16.7407 32.016 18.0765C32.1947 17.8659 31.4857 17.1421 31.3301 16.9842C30.4021 16.0563 29.1341 15.247 28.1312 14.3191C27.8891 14.0954 27.5663 13.4571 27.2839 13.2136ZM40.1488 19.4518C38.8808 18.1686 36.9902 17.254 35.3072 17.0894L39.2785 19.3662L40.1488 19.4518ZM43.953 22.8078C43.9415 24.8477 42.1489 24.1107 41.0192 23.6895C38.2929 22.6564 36.4484 19.8137 33.7509 18.6621C34.7884 20.4981 36.9787 21.7944 38.6502 22.8407C39.924 23.6435 41.9529 25.282 43.3824 24.4265C43.8665 24.137 45.0885 22.9788 43.953 22.8078ZM39.2843 20.4388C39.5897 20.0901 37.9989 19.2149 37.728 19.2544L39.2843 20.4388Z" fill="#A37254"/>
<path d="M37.2104 10.7615C36.9337 11.1761 35.2391 10.3996 34.8472 10.2088C33.1411 9.37307 31.9134 7.87933 30.1669 7.06337C29.5387 6.76726 28.3052 6.787 28.2188 6.03026C30.8644 5.80653 32.5589 7.89908 34.6109 9.0967C34.9682 9.30069 37.6023 10.1759 37.2104 10.7615Z" fill="#A37254"/>
<path d="M34.2705 10.964C34.3282 11.4378 34.2417 11.4049 33.8728 11.3194C32.8526 11.0693 30.9333 10.2205 29.8324 9.79932C29.5672 9.69404 29.3367 9.97042 29.4289 9.38477C31.1523 9.41767 32.6567 10.4442 34.2705 10.964Z" fill="#A37254"/>
<path d="M35.8271 5.03362L35.585 5.41527L28.2188 4.25055C30.7837 4.16501 33.2967 4.75724 35.8271 5.03362Z" fill="#A37254"/>
</svg>
