<svg width="71" height="52" viewBox="0 0 71 52" fill="none" xmlns="http://www.w3.org/2000/svg">
<path d="M2.22256 10.2007C1.89914 16.3456 1.34934 22.4904 0.91273 28.6353C0.532718 34.0121 0.451866 39.3969 0.0799389 44.7737C-0.0575123 46.7223 -0.316242 50.3041 2.2549 50.676C3.55665 50.8701 4.89074 50.8943 6.20057 50.9509C18.3044 51.4603 30.4566 51.3714 42.5685 51.2986C48.4466 51.2582 54.3247 51.2016 60.1946 51.0318C62.0138 50.9833 63.833 50.9267 65.6442 50.8054C66.9297 50.7164 68.1183 50.7164 69.0562 49.6896C70.6733 47.9189 70.3013 45.0809 70.1154 42.8979C69.8243 39.4374 69.9052 35.9283 69.8 32.4597C69.6707 28.4494 69.544 24.439 69.42 20.4287C69.3661 18.4289 69.323 16.4264 69.2907 14.4212C69.2583 12.3433 69.2745 10.3381 68.6438 8.34105C68.5145 7.92061 67.9161 8.51085 67.8676 8.71298C67.0995 11.8986 67.3097 15.1489 67.3825 18.3992C67.4472 21.4663 67.5307 24.5306 67.6331 27.5923C67.7356 30.6324 67.8299 33.6698 67.9161 36.7045C67.9808 39.1544 67.9485 41.6204 68.1506 44.0622C68.2315 44.9758 68.2881 45.8976 68.2719 46.8193C68.2665 47.2505 68.2261 47.679 68.1506 48.1049C68.1102 48.307 67.7706 48.8568 68.0455 48.7032C68.2476 48.5819 68.2476 48.6466 67.997 48.687C67.9161 48.7032 67.838 48.7167 67.7625 48.7275C67.8703 48.7113 67.8164 48.7167 67.6008 48.7436C66.105 48.8972 64.5931 48.9377 63.0973 48.9862C50.7509 49.4309 38.3803 49.3743 26.0259 49.3096C20.3419 49.2772 14.6498 49.2287 8.95768 49.0428C7.30826 48.9943 5.65884 48.9377 4.01751 48.8002C3.79112 48.7787 3.56473 48.7544 3.33834 48.7275C3.24671 48.7167 3.16046 48.7059 3.0796 48.6951C3.36259 48.7355 3.09579 48.6951 3.02302 48.6789C1.94767 48.4121 1.99616 46.2938 1.98807 45.4852C1.95573 43.3345 2.20638 41.1595 2.24681 39.0007C2.32227 35.745 2.41123 32.4866 2.51364 29.2255C2.70769 22.8381 2.76427 16.483 2.42469 10.1037C2.4166 9.96621 2.22256 10.1117 2.22256 10.2007Z" fill="#A37254" fill-opacity="0.6"/>
<path d="M2.31849 14.5345C2.43169 12.6506 2.36702 10.516 3.14321 8.75343C3.55557 7.8317 4.25089 7.49211 5.22113 7.25763C6.80586 6.8857 8.51998 6.90187 10.1451 6.81293C13.4116 6.62967 16.6835 6.50299 19.9608 6.43292C33.1561 6.14993 46.3918 6.2227 59.579 6.49761C61.568 6.53803 63.5813 6.5542 65.5299 6.99081C66.7427 7.25763 67.2844 8.30874 67.5593 9.42452C67.8665 10.6454 67.7453 11.9391 67.7857 13.1842C67.818 14.2596 68.0283 15.3187 68.198 16.3779C68.2385 16.5881 68.5053 16.3537 68.5134 16.2243C68.6913 14.4051 69.3543 12.7314 69.3462 10.8637C69.3462 9.27089 69.1683 7.43551 68.0202 6.23079C67.4461 5.62438 66.6214 5.43843 65.8371 5.30098C64.3656 5.04224 62.8779 4.96947 61.3902 4.92904C58.2476 4.84819 55.1052 4.79699 51.9626 4.77543C38.6461 4.66224 25.2728 4.45201 11.9724 5.13927C10.2341 5.23629 8.47146 5.2282 6.74928 5.44651C5.53647 5.60013 4.31558 5.88312 3.38576 6.71591C1.41294 8.48661 1.93849 12.2948 2.18105 14.5991C2.18914 14.6962 2.31849 14.5911 2.31849 14.5345Z" fill="#A37254" fill-opacity="0.6"/>
<path d="M37.306 13.2202C29.6572 12.824 23.3749 19.2519 22.1783 26.4963C20.8603 34.4685 26.132 42.0607 34.1689 43.3058C38.2762 43.9446 42.6019 42.942 45.9816 40.5325C49.337 38.1393 51.6979 34.1208 52.3528 30.0701C53.5818 22.5507 48.9893 15.4356 41.5993 13.5436C40.1763 13.1798 38.729 13.0019 37.2736 13.2202C37.2009 13.2283 37.0149 13.4466 37.1524 13.4789C39.2222 13.867 41.2597 14.0125 43.2406 14.8049C45.0518 15.5326 46.6446 16.6565 47.9544 18.0876C50.4851 20.8689 51.6332 24.8065 51.2451 28.5258C50.8247 32.4714 48.6659 36.7082 45.4479 39.0933C42.0602 41.6079 37.597 41.8909 33.6029 41.05C30.1989 40.3385 26.8678 38.4789 24.9758 35.4873C23.2294 32.7382 22.6149 29.2777 23.0515 26.0678C23.4881 22.8094 24.9435 19.8502 27.272 17.5297C29.9483 14.8615 33.4816 13.7134 37.1847 13.4708C37.2817 13.4627 37.4677 13.2283 37.306 13.2202Z" fill="#A37254" fill-opacity="0.6"/>
<path d="M1.28082 45.9628C2.43702 46.3347 3.63365 46.2862 4.83028 46.2943C6.30182 46.305 7.77334 46.3104 9.24488 46.3104C12.0532 46.3104 14.8615 46.3104 17.6698 46.3104C23.2541 46.3104 28.8411 46.3104 34.4308 46.3104C45.7018 46.3104 56.9809 46.4236 68.2519 46.2943C68.834 46.2862 69.7072 44.9844 68.8825 44.9683C57.749 44.8389 46.6154 44.9521 35.4819 44.9521C29.8922 44.9521 24.3052 44.9521 18.7209 44.9521C15.9126 44.9521 13.107 44.9521 10.3041 44.9521C8.82716 44.9521 7.35022 44.9575 5.8733 44.9683C4.42602 44.9763 3.01108 44.944 1.60423 45.2998C1.42635 45.3402 0.925061 45.8496 1.28082 45.9628Z" fill="#A37254" fill-opacity="0.6"/>
<path d="M37.0634 42.6243C44.7121 43.0285 50.9864 36.5926 52.1911 29.3481C53.509 21.384 48.2374 13.7838 40.1924 12.5386C36.0931 11.908 31.7594 12.9025 28.3878 15.3119C25.0324 17.7133 22.6714 21.7236 22.0084 25.7744C20.7876 33.2938 25.38 40.4089 32.7701 42.3009C34.1931 42.6647 35.6323 42.8426 37.0876 42.6324C37.1604 42.6162 37.3464 42.3979 37.217 42.3736C35.1391 41.9855 33.1097 41.84 31.1207 41.0395C29.3176 40.3199 27.7248 39.1961 26.415 37.7569C23.8843 34.9755 22.7361 31.046 23.1242 27.3268C23.5366 23.373 25.7035 19.1363 28.9134 16.7511C32.3011 14.2366 36.7642 13.9536 40.7665 14.7945C44.1704 15.506 47.5016 17.3656 49.3936 20.3572C51.14 23.1062 51.7545 26.5748 51.3179 29.7766C50.8813 33.035 49.4259 35.9943 47.0973 38.3229C44.4211 40.9829 40.8797 42.1311 37.1847 42.3736C37.0796 42.3817 36.9017 42.6162 37.0634 42.6243Z" fill="#A37254" fill-opacity="0.6"/>
<path d="M2.03201 18.1084C2.79203 18.7148 3.79462 18.545 4.70826 18.5208C6.49782 18.4669 8.28469 18.4076 10.0689 18.3429C14.4835 18.1812 18.8981 18.0275 23.3127 17.9305C24.2506 17.909 25.1858 17.8928 26.1183 17.882C26.7975 17.882 27.8162 17.8092 28.1639 17.0897C28.5682 16.2326 27.04 16.3054 26.66 16.3135C25.6305 16.3242 24.6009 16.3404 23.5714 16.362C19.1568 16.459 14.7503 16.6207 10.3438 16.7743C8.65662 16.839 6.97217 16.9037 5.29041 16.9684C4.22314 17.0088 3.3014 17.0654 2.32307 17.5101C2.18562 17.5748 1.81371 17.9386 2.03201 18.1084Z" fill="#A37254" fill-opacity="0.6"/>
<path d="M47.0416 17.186C47.0416 17.2453 47.0443 17.3046 47.0497 17.3639C47.0497 17.4771 47.1036 17.5607 47.2114 17.6146C48.7395 18.3908 50.7447 18.132 52.4103 18.1563C54.4586 18.194 56.5042 18.2291 58.5471 18.2614C60.5522 18.2937 62.5574 18.2991 64.5626 18.2776C65.7754 18.2614 68.4678 18.7384 68.8801 17.0809C69.155 15.9894 66.406 16.3128 65.8724 16.3209C64.8806 16.3263 63.8915 16.3263 62.9051 16.3209C60.8783 16.3047 58.8489 16.2778 56.8168 16.2401C55.7495 16.2239 46.9607 15.5124 47.0416 17.186Z" fill="#A37254" fill-opacity="0.6"/>
<path d="M47.3881 5.79421C46.6523 9.31943 47.0647 13.1438 47.0808 16.7256C47.0808 16.9358 47.2264 17.0814 47.4366 17.0895C47.9379 17.0895 48.4553 16.5882 48.4553 16.0707C48.4499 14.8148 48.4284 13.5589 48.3907 12.3029C48.3341 10.128 48.4068 7.72662 47.6711 5.65676C47.6145 5.51123 47.4043 5.71336 47.3881 5.79421Z" fill="#A37254" fill-opacity="0.6"/>
<path d="M37.0859 38.7259C44.8074 39.2837 50.1437 30.406 47.9284 23.5335C46.6913 19.7091 43.3197 16.952 39.3821 16.3698C35.1373 15.7473 30.9248 17.5099 28.289 20.8491C25.6289 24.2126 24.9659 28.9668 26.8094 32.8478C28.5073 36.4296 33.027 39.5344 37.1101 38.734C37.1829 38.7178 37.377 38.5156 37.2395 38.4752C36.2612 38.2084 35.2424 38.1761 34.256 37.9335C33.2615 37.6909 32.3074 37.2786 31.4261 36.7611C29.7605 35.7909 28.4911 34.1981 27.7473 32.4354C26.1059 28.5464 27.3673 24.342 29.8818 21.1725C32.5096 17.8656 37.4578 17.7363 41.1447 18.9652C45.2278 20.3236 47.5241 23.8569 47.5079 28.1017C47.5079 30.6809 46.5457 33.1308 44.8478 35.0551C42.8588 37.2948 40.1179 38.2165 37.2072 38.4752C37.1101 38.4833 36.9161 38.7178 37.0859 38.7259Z" fill="#A37254" fill-opacity="0.6"/>
<path d="M15.9277 14.8598C16.3239 13.2913 16.5341 11.5368 16.2349 9.92778C16.0651 9.02222 15.4587 8.812 14.6421 8.72306C12.1195 8.44007 9.56449 8.77157 7.04186 8.79582C6.75887 8.79582 6.45164 9.10307 6.45164 9.38606C6.42739 11.0112 6.11204 12.8628 6.56483 14.4475C6.81547 15.3207 7.72104 15.3045 8.46489 15.3531C9.90409 15.4339 11.3595 15.3854 12.7987 15.3531C13.7527 15.3369 15.006 15.5309 15.8468 15.0135C15.9277 14.965 16.0085 14.8356 15.9439 14.7467C15.58 14.213 14.1732 14.5364 13.6153 14.5445C12.2785 14.5876 10.9417 14.6011 9.60493 14.5849C8.85299 14.5688 7.64827 14.7467 7.33294 13.8977C7.10655 13.2994 7.17123 12.5474 7.17123 11.9168C7.17931 10.9465 7.21974 9.97629 7.24399 9.00605C7.04994 9.2001 6.85322 9.39684 6.65378 9.59628C8.86917 9.59628 11.0522 9.6367 13.2595 9.73373C14.0195 9.76607 14.8928 9.66096 15.1758 10.5099C15.6447 11.9249 15.2647 13.5339 15.677 14.9811C15.7175 15.1186 15.9115 14.9245 15.9277 14.8598Z" fill="#A37254" fill-opacity="0.6"/>
<path d="M62.2905 14.7139C62.7029 12.7249 62.8403 10.4367 62.4361 8.43153C62.2905 7.68767 60.9807 7.93024 60.439 7.92216C57.6091 7.87365 54.7954 7.99493 51.9736 8.0111C51.6987 8.0111 51.3672 8.31834 51.3834 8.60133C51.4723 10.558 51.2863 12.7249 51.7149 14.6492C51.8281 15.1747 53.3077 14.9807 53.6634 14.9888C55.2643 15.0319 56.8652 15.0669 58.4661 15.0939C59.5819 15.1181 61.1424 15.4335 62.1612 14.8917C62.242 14.8513 62.3956 14.6977 62.3067 14.6007C61.7731 14.0347 60.1964 14.3258 59.4849 14.3096C57.981 14.288 56.4745 14.2584 54.9652 14.2207C54.4046 14.2045 53.844 14.1883 53.2834 14.1721C53.0948 14.1668 52.9061 14.1587 52.7175 14.1479C52.4992 14.1398 52.4425 14.067 52.4991 14.1721C52.2242 13.6385 52.3455 12.6602 52.3213 12.0861C52.2728 10.7978 52.2242 9.50958 52.1757 8.22131C51.9817 8.41536 51.7876 8.60941 51.5936 8.80346C54.1324 8.81963 56.655 8.94899 59.1938 8.98942C59.7275 8.99481 60.2638 9.00289 60.8028 9.01368C60.9699 9.01907 61.1343 9.02715 61.296 9.03793C61.5548 9.0541 61.3607 9.01368 61.3769 9.0541C61.6437 9.72519 61.5548 10.6308 61.6033 11.3342C61.6922 12.5146 61.7245 13.687 62.0318 14.8351C62.0641 14.9726 62.2744 14.7785 62.2905 14.7139Z" fill="#A37254" fill-opacity="0.6"/>
<path d="M13.86 13.5991C14.1834 12.7582 14.8949 10.2436 13.4315 10.0415C11.9923 9.83938 10.545 10.0981 9.09769 10.1224C8.80662 10.1224 8.50747 10.4215 8.50747 10.7126C8.4913 11.5939 8.38618 12.5156 8.54789 13.3889C8.64491 13.8982 9.06535 13.971 9.50196 14.0114C10.3105 14.0842 11.1271 14.0438 11.9357 14.0276C12.4774 14.0195 13.2778 14.157 13.7306 13.8012C13.8357 13.7123 13.9813 13.5506 13.9247 13.3969C13.9193 13.3754 13.9112 13.3565 13.9004 13.3403C13.8842 13.2864 13.8519 13.2514 13.8034 13.2352C12.7199 13.0412 11.491 13.2676 10.3914 13.2433C9.97091 13.2352 9.46155 13.3242 9.31601 12.839C9.08962 12.1033 9.28365 11.0845 9.29982 10.3245C9.10577 10.5239 8.90905 10.7207 8.70961 10.9147C9.8739 10.9228 10.9977 11.0118 12.154 11.0522C12.534 11.0684 13.0191 10.9875 13.1727 11.4079C13.4395 12.1599 13.2051 12.9522 13.6093 13.688C13.674 13.7931 13.8276 13.6718 13.86 13.5991Z" fill="#A37254" fill-opacity="0.6"/>
<path d="M56.016 5.449C56.4202 4.00172 56.307 2.47359 56.3475 0.985886C56.1426 1.19072 55.9405 1.39285 55.7411 1.59229C57.7301 1.46292 59.7676 1.62463 61.7566 1.72974C62.2417 1.75669 62.7241 1.78903 63.2039 1.82676C63.3656 1.83754 63.5246 1.85102 63.6809 1.86719C64.0447 1.89953 63.9477 1.82676 63.9477 2.06932C63.9477 2.93446 63.6971 3.80768 63.6809 4.69707C63.6728 4.94771 63.6243 5.28729 63.7051 5.53794C63.8507 6.03114 63.9396 5.81285 64.2307 6.21712C64.2873 6.30606 64.4328 6.16052 64.4571 6.112C64.7967 5.31155 64.9988 4.96389 64.9988 4.05833C64.9907 3.1366 64.7239 2.26338 64.7239 1.34164C64.7239 1.22036 64.6431 1.15568 64.5218 1.14759C61.7647 0.78375 58.9105 0.79992 56.1372 0.767578C55.83 0.767578 55.5389 1.09099 55.5228 1.38206C55.4581 2.7404 55.4904 4.21194 55.8543 5.52986C55.8785 5.6188 56.0079 5.48942 56.016 5.449Z" fill="#A37254" fill-opacity="0.6"/>
<path d="M61.7154 1.25744C61.4486 2.07406 61.4243 2.97153 61.3677 3.82858C61.3354 4.41073 61.0201 5.43757 61.5214 5.84992C61.5941 5.90652 61.675 5.8095 61.7073 5.76098C62.0954 5.08181 61.9742 4.28137 62.0146 3.52135C62.0469 2.76132 62.1682 1.89619 61.861 1.18468C61.8286 1.10382 61.7235 1.21702 61.7154 1.25744Z" fill="#A37254" fill-opacity="0.6"/>
<path d="M62.8893 1.37626C62.7034 2.10395 62.7276 2.83972 62.7114 3.59166C62.7034 4.19806 62.3557 5.06319 62.8166 5.54832C62.8651 5.613 62.9702 5.49979 62.9783 5.45128C63.2532 4.14954 63.0106 2.66184 63.0106 1.32775C63.0106 1.2469 62.8974 1.33584 62.8893 1.37626Z" fill="#A37254" fill-opacity="0.6"/>
<path d="M4.17323 1.84996C5.11114 2.20572 6.36436 1.97933 7.35078 1.95508C9.16729 1.90656 10.9838 1.85805 12.8003 1.80953C14.439 1.76102 16.0749 1.71521 17.7081 1.67208C18.1663 1.6613 18.6218 1.65322 19.0746 1.64783C19.9235 1.64783 19.681 3.42661 19.6082 3.42661C16.6975 3.39426 13.7787 3.55598 10.876 3.64491C9.23737 3.68804 7.60143 3.73116 5.96819 3.77428C5.51002 3.78506 5.05454 3.79315 4.60176 3.79854C4.14898 3.79854 3.95493 1.93082 4.3026 1.75294C4.35111 1.72869 4.4643 1.59123 4.34302 1.57506C3.28384 1.43761 3.4779 3.67726 3.72855 4.19473C4.04388 4.83347 5.88732 4.46962 6.43713 4.45345C9.92461 4.35643 13.4121 4.2621 16.8996 4.17047C17.6354 4.1543 19.0261 4.39685 19.6891 4.00875C20.5623 3.49129 20.7482 1.53464 19.8508 0.984835C19.6163 0.847384 19.0988 0.952486 18.8482 0.952486C18.1959 0.963267 17.5437 0.976745 16.8915 0.992916C15.1127 1.04143 13.334 1.08995 11.5552 1.13846C10.0836 1.18158 8.60941 1.222 7.13248 1.25973C6.21075 1.28399 5.2405 1.23547 4.34302 1.4942C4.25408 1.51846 3.97919 1.77719 4.17323 1.84996Z" fill="#A37254" fill-opacity="0.6"/>
<path d="M6.05606 4.01657C5.80541 4.40467 5.78923 4.85744 5.78923 5.31022C5.78923 5.53661 5.73264 5.89237 5.82158 6.11067C5.90243 6.32089 5.9671 6.33707 6.16115 6.44218C6.19349 6.45835 6.25009 6.41792 6.26626 6.38557C6.56542 5.94896 6.62203 5.64172 6.5816 5.10808C6.56543 4.74424 6.58969 4.12976 6.2501 3.91954C6.18542 3.88719 6.0884 3.96806 6.05606 4.01657Z" fill="#A37254" fill-opacity="0.6"/>
<path d="M17.1184 3.78485C17.2882 3.52612 17.0295 3.90613 16.9971 3.96273C16.8839 4.1972 16.8678 4.47211 16.8435 4.72276C16.8112 5.03 16.698 5.87896 17.1103 5.95981C17.2801 5.99216 17.4095 5.88704 17.5146 5.76576C17.8056 5.41001 17.7248 5.04617 17.6763 4.61764C17.644 4.34274 17.6116 3.88996 17.4256 3.67166C17.3448 3.56655 17.1669 3.71208 17.1184 3.78485Z" fill="#A37254" fill-opacity="0.6"/>
<path d="M15.1426 1.34717C15.0133 0.948293 14.8866 0.546716 14.7626 0.142448C14.741 0.0939353 14.7006 0.0696822 14.6413 0.0696822C12.7251 -0.0920251 10.7603 0.0696837 8.84412 0.134367C8.64198 0.142452 8.43985 0.304153 8.36708 0.482031C8.22155 0.821617 8.08409 1.12886 8.02749 1.4927C8.01132 1.58164 8.09219 1.58165 8.14879 1.54122C8.56114 1.27441 8.78753 0.93482 8.98158 0.490125C8.82526 0.60332 8.66625 0.719204 8.50455 0.837789C9.61494 0.805448 10.7253 0.77042 11.8357 0.732688C12.5149 0.711127 13.194 0.673396 13.8732 0.619493C14.0457 0.603323 14.2182 0.58176 14.3907 0.554809C14.3745 0.562894 14.9162 1.32291 15.0294 1.44419C15.0698 1.4927 15.1588 1.39568 15.1426 1.34717Z" fill="#A37254" fill-opacity="0.6"/>
<path d="M4.67795 1.56994C4.54858 2.04698 4.57283 2.55636 4.56474 3.04957C4.55666 3.39724 4.42731 4.01172 4.75881 4.22194C4.79924 4.2462 4.86391 4.1896 4.88008 4.15726C5.11456 3.79342 5.04179 3.45383 5.02562 3.03339C5.00944 2.54827 5.01755 1.94996 4.83967 1.49718C4.80733 1.41632 4.69412 1.52952 4.67795 1.56994Z" fill="#A37254" fill-opacity="0.6"/>
<path d="M5.72448 1.45223C5.42532 2.30928 5.52232 3.25526 5.55466 4.14465C5.57084 4.49232 6.11256 4.1204 6.11256 3.87784C5.94007 4.16353 5.91311 4.23359 6.0317 4.08806C6.06404 4.03955 6.08832 3.99103 6.10449 3.94252C6.16917 3.66761 6.10448 3.30377 6.0964 3.02078C6.08022 2.47098 6.09638 1.89692 5.82956 1.40371C5.80531 1.34711 5.73256 1.41989 5.72448 1.45223Z" fill="#A37254" fill-opacity="0.6"/>
<path d="M7.14622 1.5102C7.05728 1.90638 7.04919 2.32682 7.0411 2.723C7.03302 3.15153 6.95217 3.82262 7.14622 4.20263C7.21899 4.34008 7.38879 4.15411 7.41305 4.07326C7.58284 3.59622 7.46964 3.03024 7.45347 2.52895C7.4373 2.18937 7.53433 1.70425 7.23517 1.46169C7.20283 1.43743 7.1543 1.48594 7.14622 1.5102Z" fill="#A37254" fill-opacity="0.6"/>
<path d="M19.0802 1.24843C18.9347 1.70121 18.9751 2.2025 18.9751 2.67145C18.9751 3.01104 18.8377 3.54467 19.0883 3.8034C19.1206 3.82766 19.1692 3.77915 19.1772 3.75489C19.3713 3.37488 19.2985 2.93827 19.2985 2.51783C19.2904 2.09739 19.3713 1.58801 19.1853 1.19991C19.1611 1.1514 19.0964 1.22418 19.0802 1.24843Z" fill="#A37254" fill-opacity="0.6"/>
<path d="M17.8506 1.16237C17.7212 1.62323 17.7374 2.12452 17.7131 2.60156C17.6969 2.9654 17.5271 3.66882 17.8021 3.93564C17.8425 3.96798 17.8991 3.91139 17.9152 3.87905C18.1174 3.49904 18.0365 3.06243 18.0365 2.64199C18.0365 2.16495 18.1012 1.57471 17.9233 1.13002C17.9072 1.09768 17.8586 1.1462 17.8506 1.16237Z" fill="#A37254" fill-opacity="0.6"/>
<path d="M65.5132 8.2625C66.0064 8.39995 66.1681 9.62083 66.2328 10.0089C66.3379 10.6477 66.1843 11.3511 66.3621 11.9494C66.3783 12.0141 66.4672 11.9494 66.4834 11.9252C66.92 11.2541 66.726 10.3485 66.5966 9.60466C66.4915 9.0306 66.3055 8.11697 65.594 8.12505C65.5455 8.12505 65.4404 8.23825 65.5132 8.2625Z" fill="#A37254" fill-opacity="0.6"/>
<path d="M66.2351 13.3688C65.7257 16.6919 66.2674 20.2009 66.2917 23.5482C66.2998 25.2138 66.2432 26.8956 66.3725 28.5531C66.51 30.348 66.3968 32.1268 66.696 33.9056C66.7121 34.0107 66.8415 33.8894 66.8496 33.8247C67.1811 30.3319 66.9062 26.7662 66.8981 23.2572C66.8981 21.5835 66.8172 19.9179 66.7283 18.2442C66.6474 16.611 66.6798 14.9131 66.3806 13.296C66.3725 13.2152 66.2351 13.3283 66.2351 13.3688Z" fill="#A37254" fill-opacity="0.6"/>
<path d="M3.55081 37.1663C3.21931 38.848 3.3325 40.6349 3.26782 42.349C3.23009 43.2545 3.19505 44.1628 3.16271 45.0738C3.13037 45.7772 2.86356 46.7798 3.32442 47.3619C3.40528 47.467 3.57505 47.2892 3.60739 47.2245C3.93081 46.5453 3.84997 45.8661 3.87422 45.1142C3.89578 44.2086 3.91733 43.3058 3.9389 42.4056C3.97932 40.6996 4.22189 38.7267 3.7206 37.0773C3.68826 36.9884 3.5589 37.1178 3.55081 37.1663Z" fill="#A37254" fill-opacity="0.6"/>
<path d="M3.67726 34.0214C3.53173 34.5227 3.39428 35.315 3.65301 35.7921C3.69344 35.8568 3.76618 35.7678 3.78235 35.7355C3.96832 35.218 3.96832 34.4984 3.7581 33.9809C3.74193 33.9405 3.68535 33.9971 3.67726 34.0214Z" fill="#A37254" fill-opacity="0.6"/>
<path d="M3.50736 20.6169C3.86312 18.636 3.83886 16.6146 3.91163 14.6095C3.95475 13.5638 3.9925 12.5181 4.02484 11.4724C4.0491 10.6234 3.90356 9.91189 4.47762 9.20846C4.53421 9.13569 4.57464 8.93356 4.42911 8.94164C2.97374 9.06292 3.39418 11.6664 3.36993 12.5639C3.28099 15.1997 2.85245 18.0619 3.41034 20.6573C3.42651 20.7059 3.49928 20.6412 3.50736 20.6169Z" fill="#A37254" fill-opacity="0.6"/>
<path d="M66.5242 43.1563C66.694 44.4823 66.5404 45.9053 66.4434 47.2313C66.4434 47.296 66.4757 47.3607 66.5404 47.3768C66.5781 47.393 66.6186 47.4065 66.6617 47.4173C66.7264 47.4415 66.791 47.3849 66.8234 47.3445C67.2115 46.8432 67.0417 46.067 67.0417 45.4606C67.0417 44.6521 66.9366 43.8516 66.6132 43.1078C66.5889 43.0673 66.5161 43.1239 66.5242 43.1563Z" fill="#A37254" fill-opacity="0.6"/>
<path d="M31.469 18.8193C28.2672 20.776 31.4771 24.2284 33.167 25.9425C34.0078 26.7915 34.687 27.8426 35.7462 28.4651C36.6275 28.9826 37.3956 28.6188 38.1152 28.0285C39.9425 26.5408 41.4383 24.4548 42.6753 22.4739C43.1524 21.7058 43.6537 20.873 43.8396 19.9836C44.0983 18.7465 42.8775 17.744 41.7536 17.7844C41.6404 17.7844 41.5029 17.9138 41.5434 18.0269C41.7132 18.601 41.9315 18.7951 42.36 19.2074C42.6753 19.5146 42.9179 19.9028 42.8289 20.3394C42.6753 21.059 42.2145 21.7624 41.8264 22.3769C40.8561 23.9373 39.708 25.4008 38.4224 26.7106C38.099 27.034 37.6543 27.6485 37.153 27.4464C36.2475 27.0826 35.5602 26.2255 34.9215 25.514C34.1237 24.6192 33.2505 23.808 32.3018 23.0803C31.7439 22.6518 31.2265 22.1262 30.7413 21.6249C29.9085 20.7598 30.8626 19.5551 31.5094 18.884C31.5499 18.8355 31.5256 18.7789 31.469 18.8193Z" fill="#A37254" fill-opacity="0.6"/>
<path d="M37.9722 17.0151C37.7054 18.7373 37.6002 20.4918 37.4143 22.2221C37.196 24.1949 36.8645 26.1435 36.5896 28.1083C36.4764 28.933 37.673 28.3104 37.6892 27.704C37.7296 26.0222 37.8024 24.3809 37.9641 22.6991C38.15 20.8314 38.3926 18.8424 38.0773 16.9747C38.0692 16.91 37.9722 16.9747 37.9722 17.0151Z" fill="#A37254" fill-opacity="0.6"/>
<path d="M28.2019 22.7729C30.4092 25.441 32.8752 27.9718 35.7212 29.9688C35.9234 30.1144 36.1094 30.2033 36.3438 30.2842C36.9422 30.4782 36.9422 30.9148 36.8532 31.4485C36.7239 32.1923 36.36 32.9038 36.0366 33.583C35.317 35.095 34.4114 36.5584 33.7646 38.0946C33.5382 38.6364 34.2497 38.4342 34.4114 38.1027C35.1553 36.518 35.9072 34.936 36.6672 33.3566C36.9907 32.699 37.2467 32.0145 37.4354 31.3029C37.5486 30.8582 37.6617 29.9446 37.4515 29.5242C37.1039 28.8369 36.3196 28.4569 35.7212 27.9879C34.8858 27.3465 34.0422 26.7104 33.1905 26.0798C31.5816 24.8832 30.1262 23.4925 28.2585 22.7001C28.2261 22.6839 28.1776 22.7405 28.2019 22.7729Z" fill="#A37254" fill-opacity="0.6"/>
<path d="M35.1985 38.3885C35.813 37.0221 36.2011 35.5587 36.6943 34.1437C37.0663 33.0684 37.3412 31.5402 38.1174 30.667C38.6186 30.1091 39.6455 30.2547 40.3085 30.2304C41.1116 30.1981 41.9148 30.1576 42.7179 30.1091C44.2946 30.0121 45.9359 29.8827 47.4883 29.6321C47.7228 29.5917 48.2726 28.9933 47.8683 28.8316C47.2134 28.581 46.5019 28.7184 45.8227 28.8155C44.6908 28.9664 43.5534 29.0715 42.4107 29.1308C40.9149 29.2116 39.1442 28.9287 37.8667 29.8746C36.9207 30.5862 36.5811 31.807 36.2739 32.8824C35.7483 34.6774 35.0773 36.537 35.0449 38.429C35.0449 38.526 35.1743 38.429 35.1985 38.3885Z" fill="#A37254" fill-opacity="0.6"/>
<path d="M33.0286 25.0617C31.8966 24.1076 30.1259 22.725 30.3281 21.0513C30.3335 21.0351 30.3388 21.019 30.3442 21.0028C30.4655 20.7522 30.3927 20.6471 30.2634 20.6309C30.258 20.6201 30.2553 20.6093 30.2553 20.5985C30.1421 20.1862 29.5761 20.7441 29.4953 20.8815C29.409 21.0271 29.3255 21.1753 29.2446 21.3262C29.18 21.3801 29.1368 21.4232 29.1153 21.4556C28.9374 21.779 28.6625 22.1348 28.6221 22.4905C28.5897 22.5228 28.5709 22.5633 28.5655 22.6118C28.4199 22.7331 28.331 22.9109 28.4846 22.9595C28.517 22.9702 28.5466 22.981 28.5735 22.9918C28.5789 23.0295 28.5978 23.0646 28.6301 23.0969C28.7595 23.2155 28.8943 23.3233 29.0344 23.4203C29.3039 23.6359 29.5707 23.8596 29.8349 24.0914C29.9885 24.2208 30.2068 24.1157 30.3442 23.954C30.5706 24.245 30.8186 24.5226 31.0881 24.7868C31.6541 25.3608 32.2928 25.8783 32.9073 26.3957C33.2307 26.6787 33.9099 27.6005 34.395 27.3902C35.6321 26.8404 33.4571 25.4255 33.0286 25.0617Z" fill="#A37254" fill-opacity="0.6"/>
<path d="M35.2521 36.8021C35.4084 36.4463 35.5216 36.0798 35.5917 35.7025C35.6078 35.6297 35.5189 35.6782 35.4946 35.7025C35.0499 36.2361 34.7427 36.8506 34.4516 37.4651C34.3007 37.6322 34.1659 37.8182 34.0474 38.023C33.9988 38.1038 33.8937 38.3383 34.0554 38.3787C34.3088 38.4327 34.5621 38.4569 34.8154 38.4515C35.0095 38.4515 35.1955 38.2655 35.244 38.0796C35.3087 37.8586 35.3626 37.6322 35.4057 37.4004C35.4299 37.1983 35.3814 36.9881 35.3814 36.7859C35.3895 36.697 35.2925 36.7536 35.2521 36.8021Z" fill="#A37254" fill-opacity="0.6"/>
<path d="M47.2841 24.5128C47.0739 23.8256 46.8313 23.2272 46.4432 22.6208C46.0228 21.974 45.2304 21.1897 45.2061 20.3812C45.1981 19.9769 44.818 20.0497 44.5027 20.2761C44.4812 20.1737 44.4434 20.0713 44.3895 19.9688C44.2197 19.605 43.7427 20.0497 43.6376 20.2437C43.2414 21.0361 42.8452 21.8042 42.2712 22.4996C42.1795 22.6235 42.1418 22.734 42.158 22.8311C41.0988 24.1813 40.1366 25.6286 38.9642 26.8657C38.6489 27.1891 38.1153 27.6661 37.6787 28.1917C37.4523 28.3318 37.2151 28.4504 36.9672 28.5474C36.862 28.5312 36.765 28.5151 36.7408 28.4908C36.5952 28.3453 36.3608 28.5798 36.2961 28.7091L36.2637 28.7657C36.2152 28.8708 36.2152 28.984 36.3203 29.0487C36.4174 29.1026 36.5144 29.1511 36.6114 29.1942C36.6276 29.2104 36.6491 29.2239 36.6761 29.2347C36.7354 29.2508 36.7947 29.267 36.854 29.2832C36.9079 29.2994 36.9672 29.2967 37.0319 29.2751C36.9348 29.5554 36.9348 29.8276 37.0319 30.0917C37.0804 30.2292 37.1936 30.2534 37.3067 30.2372C37.3876 30.4717 37.8161 30.407 38.0506 30.1807C39.1017 29.1781 40.8805 29.364 42.2145 29.3317C43.7912 29.2994 45.3678 29.0244 46.9445 29.2185C47.2275 29.2508 47.5105 28.9355 47.6318 28.7172C48.2786 27.4882 47.656 25.7418 47.2841 24.5128Z" fill="#A37254" fill-opacity="0.6"/>
<path d="M40.0128 36.1074C40.4009 36.3984 41.2256 35.792 41.5409 35.5899C41.9695 35.315 42.9154 34.6116 42.6971 33.9647C42.5839 33.6575 42.3495 33.6413 42.0503 33.6818C41.5814 33.7545 41.0154 33.8515 40.5949 33.5443C40.3686 33.3826 40.5545 32.7924 40.4413 32.5336C40.2877 32.1698 40.0209 32.0728 39.6571 32C39.649 32 39.6328 32.0243 39.6409 32.0243C40.5545 32.2183 39.9481 33.0268 39.9643 33.6494C39.9805 34.1103 40.5788 34.3205 40.9588 34.3205C41.2418 34.3286 41.5248 34.3447 41.7269 34.5711C41.735 34.5873 41.2822 34.9673 41.1609 35.0563C40.7647 35.3554 40.2796 35.6222 40.0209 36.0588C40.0128 36.0669 39.9966 36.0993 40.0128 36.1074Z" fill="#A37254" fill-opacity="0.6"/>
<path d="M28.4249 26.6877C28.1258 28.4423 28.3764 30.2857 28.9909 31.9513C29.4114 33.1075 30.6322 35.7191 32.12 35.5978C32.1846 35.5897 32.2898 35.517 32.2736 35.4361C32.1846 34.7408 31.4812 34.3365 31.0446 33.811C30.4624 33.1075 30.0501 32.2747 29.7186 31.4258C29.1041 29.8815 28.9424 28.2401 28.4977 26.6554C28.4815 26.6231 28.433 26.6716 28.4249 26.6877Z" fill="#A37254" fill-opacity="0.6"/>
<path d="M30.1563 29.7691C30.0511 30.4402 30.1886 31.6611 30.9163 31.9521C30.9567 31.9683 31.0214 31.9117 31.0133 31.8713C30.981 31.4913 30.8112 31.2164 30.6575 30.8768C30.4878 30.4968 30.4069 30.0925 30.2533 29.7206C30.229 29.6721 30.1563 29.7367 30.1563 29.7691Z" fill="#A37254" fill-opacity="0.6"/>
<path d="M31.3477 32.6857C31.3557 33.0011 31.5174 33.2922 31.857 33.2841C31.8974 33.2841 31.9379 33.2436 31.9379 33.2032C31.954 32.896 31.76 32.6777 31.4689 32.5806C31.4123 32.5645 31.3477 32.6292 31.3477 32.6857Z" fill="#A37254" fill-opacity="0.6"/>
<path d="M34.7126 19.7899C34.9713 19.7629 35.2327 19.736 35.4969 19.709C35.7798 19.6686 36.0467 19.5635 36.3296 19.515C36.3701 19.5069 36.4752 19.4099 36.4186 19.3613C36.1437 19.143 35.9416 19.0783 35.5858 19.143C35.222 19.2158 34.9309 19.4179 34.6883 19.6928C34.6641 19.7252 34.6398 19.7979 34.7126 19.7899Z" fill="#A37254" fill-opacity="0.6"/>
<path d="M56.4122 8.35733C55.5228 8.02583 54.7628 9.04458 54.6415 9.82078C54.496 10.7991 55.4662 11.8583 56.4769 11.6481C57.439 11.4379 58.2395 11.0498 58.7408 10.1685C59.1855 9.39226 58.9348 8.042 57.811 8.35733C57.7463 8.38159 57.6573 8.46244 57.7058 8.53521C58.0212 9.02033 58.6599 8.99608 58.5467 9.72376C58.4497 10.3382 57.625 11.2762 56.9297 11.0012C56.4122 10.7991 55.9271 10.5404 55.6441 10.0472C55.4985 9.78844 55.442 9.47311 55.4743 9.18204C55.5228 8.80203 56.0403 8.6484 56.3475 8.53521C56.3879 8.51904 56.4931 8.39776 56.4122 8.35733Z" fill="#A37254" fill-opacity="0.6"/>
<path d="M62.0776 14.2269C61.9725 14.0167 61.924 13.7984 61.8835 13.572C61.9051 13.5343 61.9213 13.4992 61.9321 13.4669C62.0776 12.7554 61.9321 12.0277 61.8755 11.3081C61.8189 10.5238 61.8027 9.73955 61.7461 8.96335C61.7299 8.81782 61.6518 8.73966 61.5116 8.72888C61.1963 8.68846 60.7193 8.66419 60.3473 8.78547C60.3312 8.77469 60.3123 8.76392 60.2907 8.75314C60.0563 8.68037 59.846 8.6076 59.6277 8.48632C59.2073 8.26801 58.5443 9.02804 58.6979 9.42422C58.8192 9.76381 58.423 10.3217 58.2128 10.5562C57.8004 11.0251 57.194 11.1868 56.5957 11.1707C55.3101 11.1302 54.7442 9.9336 55.2697 8.86633C55.5285 8.41355 54.914 8.551 54.7361 8.7693C54.7307 8.7693 54.728 8.7693 54.728 8.7693C54.728 8.68845 54.7253 8.6049 54.7199 8.51866C54.6956 8.35695 54.5178 8.43781 54.4531 8.51057C54.4531 8.51057 54.4504 8.51327 54.445 8.51866C54.445 8.50788 54.4423 8.4971 54.4369 8.48632C54.1701 8.09014 53.1109 8.13864 52.7067 8.36503C52.6312 8.40815 52.5638 8.45667 52.5045 8.51057C52.3671 8.44589 52.2215 8.43781 52.0598 8.551C51.9386 8.63186 51.8254 8.85015 51.8577 8.97143L51.8496 8.97953C51.8577 8.9957 51.8658 9.27869 51.8739 9.31103C51.9008 9.39188 51.9412 9.47273 51.9951 9.55358C51.9897 9.56436 51.9844 9.57515 51.979 9.58593C51.8334 10.0791 51.8739 10.726 52.1892 11.1626C52.1003 11.2596 52.0194 11.3647 52.0113 11.4375C51.8739 12.3835 51.979 13.3214 52.2215 14.235C52.2539 14.3806 52.456 14.4129 52.5692 14.3725C53.1999 14.1703 53.8871 14.3159 54.542 14.332C55.4152 14.3563 56.2885 14.3239 57.1536 14.421C58.0511 14.518 59.6116 14.9546 60.4848 14.3725C60.4929 14.4452 60.5414 14.5099 60.6546 14.5261C61.0103 14.5746 61.3661 14.5827 61.7218 14.6393C61.8835 14.6635 62.1665 14.3886 62.0776 14.2269Z" fill="#A37254" fill-opacity="0.6"/>
<path d="M13.3171 10.9705C12.6622 10.5096 11.5545 10.736 10.8106 10.5662C10.4387 10.4773 9.95357 10.4854 9.61399 10.6794C9.54931 10.6094 9.46576 10.5851 9.36334 10.6067L9.2663 10.6309C9.20162 10.6552 9.11268 10.7118 9.06417 10.7926C8.65181 11.3101 8.81352 12.345 8.96715 12.9433C9.20971 13.8974 10.4063 13.7923 11.1502 13.7438C12.0962 13.6872 12.9371 13.9136 13.6243 13.105C14.0528 12.5957 13.8265 11.3343 13.3171 10.9705Z" fill="#A37254" fill-opacity="0.6"/>
<path d="M17.2881 4.68646C17.2558 4.40347 17.3285 4.12047 17.1022 3.91834C16.9485 3.78089 16.7383 3.9426 16.617 4.08814C16.617 4.08814 16.617 4.08545 16.617 4.08006C16.5766 3.99112 16.5038 3.9992 16.4311 4.03963C16.4095 3.96416 16.3502 3.90487 16.2532 3.86175C15.7438 3.6677 15.2263 3.74046 14.7008 3.80514C13.8518 3.91834 13.0352 4.01537 12.1782 4.03963C11.1998 4.06388 10.2215 3.9992 9.24318 4.01537C8.55592 4.03154 7.75549 3.95068 7.11675 4.23367C7.0898 4.24984 7.06014 4.26871 7.02779 4.29027C6.95503 4.12048 6.7448 4.15282 6.54267 4.2741C6.49955 4.29027 6.46451 4.31452 6.43755 4.34686C6.29202 4.46006 6.16267 4.6056 6.13033 4.74305C6.05756 5.05029 6.05756 5.27669 6.10608 5.59202C6.13842 5.82649 6.29202 5.89926 6.51841 5.85883C7.05744 5.77259 7.59378 5.70521 8.12742 5.6567C8.16515 5.67287 8.20557 5.68365 8.24869 5.68904C9.25936 5.8184 10.3347 5.67287 11.3454 5.61627C11.3939 5.61627 11.5556 5.60818 11.7739 5.6001C12.356 5.62435 12.9544 5.63244 13.488 5.51925C14.5148 5.47074 15.6306 5.41413 16.1077 5.35753C16.1346 5.47073 16.175 5.58393 16.2289 5.69713C16.2694 5.76181 16.3502 5.68903 16.3664 5.64861C16.388 5.60548 16.4095 5.55967 16.4311 5.51116C16.6736 5.73755 17.28 5.17966 17.3043 4.85624C17.3097 4.79156 17.3043 4.73497 17.2881 4.68646Z" fill="#A37254" fill-opacity="0.6"/>
<path d="M13.5934 0.467259C13.5934 0.402577 13.5584 0.367536 13.4883 0.362146C13.2889 0.356755 13.0867 0.348671 12.8819 0.337891C12.7364 0.337891 12.5828 0.499602 12.5828 0.645138C12.5747 0.871529 12.5181 1.46985 12.7849 1.56687C12.8064 1.57226 12.8253 1.56687 12.8415 1.5507C12.9628 1.61538 13.1649 1.52643 13.3347 1.3809C13.4156 1.58303 13.747 1.26771 13.7147 1.106C13.6662 0.887693 13.6015 0.685564 13.5934 0.467259Z" fill="#A37254" fill-opacity="0.6"/>
<path d="M62.7273 1.49136C62.7058 1.46441 62.6788 1.46441 62.6465 1.49136C62.5818 1.07092 61.8541 1.57222 61.7975 1.8633C61.6115 2.91439 61.6116 3.98974 61.6601 5.05701C61.6601 5.13787 61.7005 5.24298 61.7975 5.26724C62.0077 5.32114 62.2261 5.35348 62.4524 5.36426C62.7597 5.38852 63.0831 5.01658 63.0912 4.72551C63.1316 3.64207 63.1235 2.51012 62.7273 1.49136Z" fill="#A37254" fill-opacity="0.6"/>
<path d="M5.95138 28.9586C6.67907 25.3606 6.78418 21.5119 6.86503 17.8574C6.87312 17.6795 6.74375 17.5824 6.58204 17.5744C6.20203 17.542 5.8786 17.8897 5.78157 18.2535C5.50667 19.3531 5.65222 20.6791 5.61988 21.803C5.54711 24.1559 5.28029 26.6947 5.83818 29.0071C5.85435 29.0717 5.9433 28.9828 5.95138 28.9586Z" fill="#A37254" fill-opacity="0.6"/>
<path d="M7.86014 23.5833C8.28058 22.5241 8.45847 21.5458 8.47464 20.3977C8.49081 19.7589 8.45847 19.1202 8.42613 18.4815C8.40996 18.0125 8.55549 17.5516 8.11888 17.301C7.9976 17.2363 7.85205 17.4142 7.80354 17.495C7.3831 18.2227 7.69845 19.2819 7.74696 20.0985C7.80356 21.2224 7.90058 22.4756 7.74696 23.5914C7.73079 23.6803 7.84397 23.6237 7.86014 23.5833Z" fill="#A37254" fill-opacity="0.6"/>
<path d="M9.33829 26.3304C9.48382 24.7376 9.60509 23.1448 9.75062 21.552C9.8719 20.2422 10.3489 18.8434 10.1387 17.5336C10.1226 17.4527 10.0983 17.3476 10.0013 17.3233C9.93119 17.3072 9.86114 17.2883 9.79107 17.2667C9.64553 17.2344 9.48381 17.3638 9.42721 17.4931C9.18465 18.0268 9.34636 18.52 9.34636 19.094C9.34636 19.8055 9.217 20.509 9.15231 21.2124C8.97444 22.8942 9.07146 24.7053 9.22508 26.387C9.23317 26.4598 9.3302 26.3789 9.33829 26.3304Z" fill="#A37254" fill-opacity="0.6"/>
<path d="M10.8021 21.8439C11.3196 20.5502 11.3438 19.2808 11.4166 17.9063C11.4246 17.8255 11.3761 17.7284 11.2953 17.7042C11.2468 17.6934 11.1983 17.6799 11.1498 17.6637C11.0689 17.6476 10.98 17.688 10.9234 17.7446C10.4787 18.2297 10.5838 18.7391 10.5757 19.3779C10.5757 20.2187 10.6727 21.0273 10.7131 21.8601C10.7212 21.9167 10.794 21.8681 10.8021 21.8439Z" fill="#A37254" fill-opacity="0.6"/>
<path d="M12.623 19.4901C12.817 19.1505 12.9787 18.8271 13.0353 18.4309C13.0838 18.1398 13.1728 17.7436 12.9625 17.501C12.8413 17.3636 12.6068 17.5981 12.5583 17.7032C12.7254 17.5253 12.7523 17.4849 12.6391 17.5819C12.5798 17.6574 12.5313 17.7409 12.4936 17.8325C12.4128 17.9943 12.437 18.2045 12.437 18.3823C12.437 18.7624 12.5583 19.1424 12.5502 19.5143C12.5502 19.5628 12.6149 19.5062 12.623 19.4901Z" fill="#A37254" fill-opacity="0.6"/>
<path d="M4.29296 23.6541C4.64872 22.6111 4.76192 21.6247 4.8266 20.5332C4.8832 19.6519 5.20661 18.3016 4.8266 17.4931C4.72958 17.2829 4.42233 17.5335 4.37382 17.6629C4.02615 18.5442 4.1636 19.5549 4.13934 20.4928C4.11508 21.5681 4.04231 22.6192 4.18785 23.6865C4.19594 23.7593 4.27679 23.6865 4.29296 23.6541Z" fill="#A37254" fill-opacity="0.6"/>
<path d="M14.5436 26.879C14.9883 25.3266 14.9317 23.8146 14.8993 22.2137C14.8832 21.3244 14.9559 20.435 15.0206 19.5456C15.0611 18.9553 15.4006 17.88 14.8347 17.5081C14.7053 17.4191 14.5598 17.5646 14.5032 17.6698C14.1636 18.2762 14.2929 18.8664 14.301 19.5456C14.3172 20.435 14.2444 21.3244 14.2687 22.2137C14.3172 23.7661 14.6083 25.367 14.4465 26.9113C14.4385 26.976 14.5355 26.9113 14.5436 26.879Z" fill="#A37254" fill-opacity="0.6"/>
<path d="M16.1156 24.0041C16.342 22.7347 16.5684 21.4734 16.6978 20.1959C16.7705 19.3954 17.1263 17.7218 16.2288 17.2932C16.148 17.2528 16.059 17.3741 16.0348 17.4388C15.7033 18.3928 16.0186 19.5167 16.0105 20.5193C16.0105 21.6997 15.9054 22.864 16.0186 24.0364C16.0267 24.093 16.1075 24.0364 16.1156 24.0041Z" fill="#A37254" fill-opacity="0.6"/>
<path d="M17.7061 20.6911C17.8031 20.0443 17.9486 19.4055 18.0052 18.7506C18.0457 18.3383 18.2397 17.6106 17.795 17.3842C17.7384 17.3599 17.6576 17.4246 17.6333 17.465C17.3261 17.9017 17.3584 18.3221 17.3584 18.8396C17.3503 19.5026 17.4473 20.1009 17.5444 20.7558C17.5605 20.8528 17.698 20.7558 17.7061 20.6911Z" fill="#A37254" fill-opacity="0.6"/>
<path d="M19.4304 25.1265C19.7862 23.7197 19.8509 22.2805 19.8913 20.8413C19.9075 20.0813 19.9398 19.3212 19.9883 18.5612C20.0207 18.0518 20.2147 17.5667 19.8832 17.1544C19.8428 17.0978 19.7538 17.1786 19.7296 17.2109C19.0423 18.1812 19.2283 19.6446 19.2202 20.7847C19.2121 22.2481 19.2687 23.7116 19.3092 25.175C19.3092 25.2478 19.4143 25.1669 19.4304 25.1265Z" fill="#A37254" fill-opacity="0.6"/>
<path d="M21.0633 21.4017C21.2978 20.5769 21.4595 19.7361 21.6212 18.9033C21.7344 18.3211 21.9931 17.4883 21.6131 16.987C21.5241 16.8658 21.322 17.0679 21.2897 17.1487C21.0067 17.7632 21.0633 18.4424 21.0471 19.1135C21.0228 19.8816 20.942 20.6578 20.9743 21.434C20.9743 21.4906 21.0552 21.4259 21.0633 21.4017Z" fill="#A37254" fill-opacity="0.6"/>
<path d="M22.7251 19.5814C23.0081 18.9426 23.3315 18.1018 22.9191 17.4388C22.8706 17.3741 22.7817 17.463 22.7655 17.5115C22.6038 18.215 22.6685 18.9103 22.5957 19.6137C22.5957 19.6946 22.7089 19.6137 22.7251 19.5814Z" fill="#A37254" fill-opacity="0.6"/>
<path d="M14.8041 34.0189C14.5292 35.7816 14.4807 37.5684 14.3756 39.3472C14.2624 41.3281 14.133 43.3414 14.1573 45.3385C14.1626 45.4517 14.2165 45.5325 14.319 45.581C14.389 45.6187 14.4591 45.6538 14.5292 45.6861C14.6262 45.7427 14.7717 45.6134 14.8283 45.5406C15.3215 44.821 15.1922 44.1257 15.1841 43.2686C15.1733 42.2229 15.1679 41.1799 15.1679 40.1396C15.1679 38.1021 15.2488 35.9918 14.893 33.9785C14.8849 33.93 14.8041 33.9947 14.8041 34.0189Z" fill="#A37254" fill-opacity="0.6"/>
<path d="M17.1418 36.818C17.0367 38.4513 16.9073 40.0764 16.8265 41.7097C16.7834 42.5128 16.751 43.3133 16.7295 44.111C16.7133 44.7093 16.5597 45.2511 16.964 45.7119C17.1095 45.8736 17.3763 45.6068 17.4329 45.4855C17.9989 44.3051 17.635 42.6395 17.5623 41.3539C17.4895 39.8258 17.3521 38.2977 17.2469 36.7695C17.2389 36.6967 17.1499 36.7776 17.1418 36.818Z" fill="#A37254" fill-opacity="0.6"/>
<path d="M18.9922 42.2747C18.9032 42.7599 18.8789 43.2531 18.8466 43.7463C18.8143 44.2637 18.7092 44.7974 18.7172 45.3148C18.7172 45.7757 19.3317 45.2501 19.3964 45.0642C19.7037 44.191 19.267 43.0994 19.0487 42.2505C19.0407 42.2181 18.9922 42.2586 18.9922 42.2747Z" fill="#A37254" fill-opacity="0.6"/>
<path d="M12.5872 32.2903C12.2638 34.5623 12.3608 36.9151 12.2315 39.2033C12.156 40.4646 12.0752 41.7259 11.9889 42.9872C11.9404 43.6907 11.9161 44.3941 11.8191 45.0894C11.7625 45.4937 11.7221 45.6312 12.0212 45.8737C12.0778 45.9303 12.1829 45.8737 12.2234 45.8252C12.8621 45.0814 12.7408 44.2728 12.7732 43.3349C12.8217 42.0898 12.8729 40.8473 12.9268 39.6076C13.0238 37.2385 13.3715 34.53 12.757 32.2095C12.7327 32.1205 12.5953 32.2418 12.5872 32.2903Z" fill="#A37254" fill-opacity="0.6"/>
<path d="M10.6393 35.5089C10.5341 37.4656 10.5099 39.4222 10.4614 41.387C10.4452 42.147 10.4425 42.9097 10.4533 43.6751C10.4533 44.3058 10.0814 45.1871 10.3158 45.7692C10.4048 46.0037 10.712 45.745 10.7929 45.648C11.6257 44.6615 11.1001 42.6726 11.0678 41.4759C11.0193 39.4708 10.8333 37.4737 10.712 35.4685C10.7039 35.4281 10.6393 35.4766 10.6393 35.5089Z" fill="#A37254" fill-opacity="0.6"/>
<path d="M9.23554 40.8037C9.07383 41.685 9.00105 42.5825 8.94446 43.4799C8.88786 44.248 8.64529 45.3315 9.01722 46.0187C9.16276 46.2694 9.51043 45.9379 9.55086 45.7681C9.72874 44.9515 9.51852 44.0459 9.50235 43.2131C9.47809 42.3884 9.50236 41.5637 9.33256 40.7552C9.31639 40.7147 9.24363 40.7794 9.23554 40.8037Z" fill="#A37254" fill-opacity="0.6"/>
<path d="M7.85429 34.3812C7.60364 36.443 7.49045 38.5532 7.42577 40.6231C7.39343 41.561 7.40961 42.4908 7.38535 43.4287C7.36918 43.9785 7.32605 44.5256 7.25598 45.07C7.20747 45.4581 7.05384 45.733 7.24789 46.0807C7.33683 46.2424 7.54706 46.0807 7.61983 45.9837C8.04027 45.4339 8.02409 44.8032 8.06452 44.124C8.12112 43.1134 8.05643 42.0946 8.04026 41.0839C7.99984 38.8443 8.22623 36.5642 7.94324 34.3408C7.93516 34.2842 7.85429 34.3488 7.85429 34.3812Z" fill="#A37254" fill-opacity="0.6"/>
<path d="M6.37388 35.3243C5.90493 38.8172 6.12322 42.3828 5.62192 45.8676C5.50873 46.6115 6.54366 46.0859 6.61643 45.617C6.87516 44.1212 6.62451 42.5284 6.63259 41.0164C6.64068 39.1244 6.72155 37.1759 6.44665 35.3001C6.43856 35.2515 6.37388 35.3001 6.37388 35.3243Z" fill="#A37254" fill-opacity="0.6"/>
<path d="M4.81048 39.5037C4.36579 41.4846 4.45472 43.5464 4.34961 45.5677C4.34961 45.6701 4.39544 45.7402 4.48707 45.7779C4.54636 45.8103 4.60834 45.8426 4.67302 45.875C4.7377 45.9073 4.81856 45.8265 4.85899 45.786C5.46539 45.0503 5.24708 44.1285 5.20666 43.2149C5.15006 41.9617 5.02071 40.7165 4.89134 39.4714C4.88325 39.4148 4.81857 39.4714 4.81048 39.5037Z" fill="#A37254" fill-opacity="0.6"/>
<path d="M20.4303 37.5044C20.0503 38.9032 20.1392 40.4556 20.0907 41.8948C20.0584 42.6763 20.0287 43.4552 20.0018 44.2314C19.9856 44.7812 19.7996 45.3553 20.2605 45.7191C20.3656 45.8081 20.5111 45.6625 20.5597 45.5736C21.1822 44.4902 20.8184 42.7761 20.8103 41.5471C20.8022 40.2454 21.0044 38.6768 20.5597 37.4397C20.5354 37.375 20.4384 37.4721 20.4303 37.5044Z" fill="#A37254" fill-opacity="0.6"/>
<path d="M21.8249 41.1519C21.6147 42.5264 21.7602 43.9251 21.5338 45.3077C21.5176 45.4128 21.5257 45.5018 21.6308 45.5503C21.6578 45.5665 21.6874 45.5826 21.7198 45.5988C21.7602 45.615 21.8087 45.5907 21.8329 45.5665C22.3423 45.1541 22.2938 44.5639 22.2938 43.9413C22.2857 42.9953 22.1483 42.017 21.9462 41.0953C21.9381 41.0306 21.833 41.1195 21.8249 41.1519Z" fill="#A37254" fill-opacity="0.6"/>
<path d="M23.3692 43.5017C23.2398 43.8979 23.1994 44.286 23.1994 44.6984C23.1994 44.9894 23.1832 45.2724 23.4824 45.3937C23.5309 45.4099 23.5794 45.3694 23.6036 45.329C23.9998 44.7792 23.8381 43.9949 23.539 43.4209C23.4905 43.34 23.3853 43.4532 23.3692 43.5017Z" fill="#A37254" fill-opacity="0.6"/>
<path d="M25.4864 41.2413C25.3651 41.9851 25.3732 42.7209 25.3732 43.4729C25.3732 44.0065 25.0498 45.2597 25.5349 45.575C25.5915 45.6155 25.6643 45.567 25.7047 45.5104C26.1332 44.9201 25.9553 44.241 25.8907 43.5375C25.8179 42.7532 25.7613 41.9609 25.5915 41.1928C25.5753 41.1362 25.4945 41.2089 25.4864 41.2413Z" fill="#A37254" fill-opacity="0.6"/>
<path d="M26.9449 43.9565C26.9207 44.3851 26.6458 45.0076 26.9126 45.3876C27.0096 45.5413 27.2764 45.2825 27.3168 45.1936C27.1551 45.5251 27.3492 45.1127 27.3734 45.0723C27.43 44.951 27.43 44.7974 27.43 44.66C27.4462 44.3123 27.333 44.094 27.0904 43.8514C27.0339 43.7948 26.9449 43.908 26.9449 43.9565Z" fill="#A37254" fill-opacity="0.6"/>
<path d="M29.1983 44.3922C29.139 44.6455 29.1148 44.9015 29.1255 45.1603C29.1579 45.5807 29.7724 45.1279 29.7724 44.853C29.7804 44.5943 29.7238 44.3598 29.5136 44.2062C29.3923 44.1253 29.2226 44.279 29.1983 44.3922Z" fill="#A37254" fill-opacity="0.6"/>
<path d="M52.3679 19.4283C52.6832 18.9997 52.7883 18.5308 52.8287 18.0052C52.853 17.5848 52.9824 17.035 52.5538 16.7924C52.5053 16.7682 52.4406 16.8329 52.4164 16.8652C52.1334 17.2937 52.1172 17.6656 52.1091 18.175C52.1011 18.6035 52.0202 19.0725 52.2385 19.4606C52.2709 19.5172 52.3436 19.4606 52.3679 19.4283Z" fill="#A37254" fill-opacity="0.6"/>
<path d="M53.5837 22.0853C53.7077 21.1689 53.8208 20.2499 53.9232 19.3282C53.996 18.6732 54.4407 17.2017 53.8101 16.7813C53.7454 16.7408 53.6564 16.7974 53.616 16.854C53.147 17.5817 53.2764 18.4388 53.2602 19.2877C53.236 20.258 53.2522 21.1878 53.4866 22.1338C53.4947 22.1823 53.5756 22.1176 53.5837 22.0853Z" fill="#A37254" fill-opacity="0.6"/>
<path d="M50.8716 18.7244C51.1223 18.4172 51.4052 17.8108 50.9929 17.5197C50.9444 17.4874 50.8878 17.5278 50.8635 17.5601C50.6371 17.9401 50.5482 18.3525 50.7827 18.7487C50.8069 18.7891 50.8554 18.7487 50.8716 18.7244Z" fill="#A37254" fill-opacity="0.6"/>
<path d="M55.059 24.7887C55.908 22.3873 56.1587 19.4766 56.1101 16.9458C56.094 16.2263 54.9701 16.9944 54.962 17.4957C54.9378 18.7408 55.0671 19.986 55.0752 21.2392C55.0914 22.4358 55.0105 23.6244 54.9701 24.821C54.962 24.8857 55.0509 24.8129 55.059 24.7887Z" fill="#A37254" fill-opacity="0.6"/>
<path d="M57.1629 22.4375C57.6804 20.9255 57.9715 18.9527 57.6642 17.3761C57.6427 17.3222 57.6049 17.2844 57.551 17.2629C57.4809 17.2467 57.4136 17.2278 57.3489 17.2063C57.2761 17.1901 57.2195 17.2386 57.1791 17.2952C56.6293 17.9663 56.8395 18.7668 56.9042 19.5834C56.9931 20.5374 57.0578 21.5319 57.0174 22.486C57.0174 22.583 57.1468 22.4779 57.1629 22.4375Z" fill="#A37254" fill-opacity="0.6"/>
<path d="M59.1524 26.9521C59.4193 24.8661 59.3627 22.7477 59.6376 20.6617C59.7427 19.9016 60.6159 16.8696 59.4758 16.6271C59.3626 16.6028 59.2414 16.6918 59.1929 16.7969C58.9665 17.3709 59.1039 17.9531 59.1039 18.5676C59.0958 19.3599 58.9584 20.1604 58.8694 20.9447C58.6592 22.8932 58.7643 25.0601 59.0312 26.9925C59.0392 27.0734 59.1443 27.0006 59.1524 26.9521Z" fill="#A37254" fill-opacity="0.6"/>
<path d="M61.0449 29.9935C61.3037 27.7376 61.3198 25.4414 61.3845 23.1775C61.4223 21.9917 61.4546 20.8058 61.4815 19.6199C61.4977 18.8033 61.7888 17.5501 61.2875 16.8628C61.1824 16.7173 60.9317 16.9679 60.8913 17.0569C60.5436 17.8654 60.6811 18.7386 60.6811 19.6119C60.6919 20.7815 60.7026 21.9485 60.7134 23.1128C60.7377 25.4091 60.673 27.7538 60.9641 30.0339C60.9722 30.0905 61.0449 30.0258 61.0449 29.9935Z" fill="#A37254" fill-opacity="0.6"/>
<path d="M62.6054 22.2621C62.8318 21.2757 62.9208 20.2731 63.0259 19.2705C63.0987 18.5509 63.4221 17.3139 62.8804 16.7479C62.7995 16.6509 62.6378 16.8045 62.6054 16.8854C62.2901 17.613 62.4356 18.3892 62.4842 19.1735C62.5488 20.2084 62.4842 21.2515 62.5327 22.2945C62.5327 22.3349 62.5973 22.2864 62.6054 22.2621Z" fill="#A37254" fill-opacity="0.6"/>
<path d="M64.6184 28.2487C64.8691 26.2597 64.958 24.2464 65.0389 22.2413C65.082 21.3249 65.1143 20.4059 65.1359 19.4841C65.1521 18.8211 65.427 17.665 64.8448 17.2203C64.7721 17.1637 64.675 17.2607 64.6346 17.3173C64.2546 18.0126 64.3759 18.6837 64.3759 19.4599C64.3759 20.5002 64.3705 21.5378 64.3597 22.5728C64.3274 24.4809 64.2627 26.4052 64.5214 28.2972C64.5295 28.37 64.6104 28.2891 64.6184 28.2487Z" fill="#A37254" fill-opacity="0.6"/>
<path d="M46.2395 43.941C46.191 44.2052 46.1694 44.4747 46.1748 44.7496C46.1748 44.976 46.1505 45.3075 46.3446 45.453C46.385 45.4853 46.4416 45.4368 46.4578 45.3964C46.7165 44.9436 46.5144 44.3372 46.385 43.8683C46.3688 43.7874 46.2476 43.9006 46.2395 43.941Z" fill="#A37254" fill-opacity="0.6"/>
<path d="M47.6622 41.9445C47.7269 43.1573 47.3873 44.3863 47.4844 45.591C47.4924 45.6557 47.5167 45.7203 47.5814 45.7365C47.6245 45.7527 47.6676 45.7662 47.7107 45.7769C47.7754 45.7931 47.8401 45.7365 47.8805 45.688C48.2767 45.2191 48.1716 44.4671 48.1797 43.885C48.1959 43.1735 48.0908 42.5185 47.7512 41.8879C47.7269 41.8475 47.6542 41.9121 47.6622 41.9445Z" fill="#A37254" fill-opacity="0.6"/>
<path d="M49.5712 39.412C49.4338 40.4873 49.3933 41.595 49.3529 42.6784C49.3206 43.4789 49.0295 44.7402 49.5227 45.4032C49.5793 45.4679 49.6925 45.3547 49.7087 45.3143C50.0644 44.5219 49.927 43.6649 49.8946 42.8078C49.8542 41.6678 49.8299 40.5035 49.6682 39.3715C49.6602 39.3149 49.5712 39.3715 49.5712 39.412Z" fill="#A37254" fill-opacity="0.6"/>
<path d="M51.3281 41.7666C51.2472 42.4377 51.2715 43.1088 51.2553 43.788C51.2553 44.2973 51.1098 45.0008 51.3847 45.4455C51.417 45.494 51.4898 45.4374 51.4978 45.3969C51.6919 44.9118 51.611 44.4429 51.5787 43.9173C51.5383 43.1896 51.4978 42.4539 51.3927 41.7343C51.3846 41.6939 51.3281 41.7424 51.3281 41.7666Z" fill="#A37254" fill-opacity="0.6"/>
<path d="M53.3063 35.336C53.2012 37.1228 53.2982 38.9259 53.274 40.7208C53.2578 41.6857 53.212 42.6478 53.1365 43.6073C53.0961 44.149 52.7404 45.0869 53.0961 45.564C53.1365 45.6206 53.2255 45.5397 53.2497 45.5074C53.6621 44.9656 53.654 44.3269 53.7187 43.6639C53.7995 42.726 53.7753 41.7962 53.7429 40.8583C53.6782 38.9986 53.5408 37.139 53.4034 35.2875C53.4034 35.2228 53.3063 35.2955 53.3063 35.336Z" fill="#A37254" fill-opacity="0.6"/>
<path d="M54.8596 37.781C54.8111 39.0747 54.7949 40.3683 54.7383 41.662C54.6817 42.9071 54.3826 44.3787 54.6575 45.5915C54.7222 45.8664 55.1588 45.4702 55.183 45.3327C55.3932 44.225 55.1749 42.988 55.1264 41.8641C55.0617 40.4815 55.0375 39.0989 54.9809 37.7244C54.9728 37.6516 54.8677 37.7325 54.8596 37.781Z" fill="#A37254" fill-opacity="0.6"/>
<path d="M56.4438 34.9823C56.6541 36.7934 56.5571 38.548 56.4843 40.3591C56.4439 41.3051 56.5004 42.251 56.5166 43.189C56.5328 44.0379 56.2822 45.0567 56.5894 45.8571C56.6541 46.035 56.8886 45.7924 56.9128 45.7035C57.1554 44.8384 56.9613 43.8843 56.929 42.9949C56.8966 42.057 56.8239 41.1272 56.832 40.1893C56.8562 38.4833 57.1311 36.5832 56.5247 34.9419C56.5085 34.9015 56.4438 34.9581 56.4438 34.9823Z" fill="#A37254" fill-opacity="0.6"/>
<path d="M58.0772 37.2537C57.9721 38.7171 57.9802 40.1886 57.964 41.6602C57.9532 42.4525 57.9398 43.2476 57.9236 44.0454C57.9155 44.6194 57.7538 45.1288 58.1176 45.5897C58.1823 45.6624 58.3117 45.5331 58.3279 45.4846C58.813 44.4173 58.4734 42.9781 58.4249 41.83C58.3602 40.2857 58.3198 38.7333 58.1904 37.1971C58.1904 37.1243 58.0853 37.2051 58.0772 37.2537Z" fill="#A37254" fill-opacity="0.6"/>
<path d="M59.7261 39.6072C59.8474 40.7149 59.8555 41.8226 59.807 42.9465C59.7827 43.6661 59.4189 44.9436 59.9363 45.5095C60.0091 45.5904 60.1385 45.4529 60.1627 45.3963C60.567 44.5878 60.3568 43.5933 60.3002 42.7039C60.2274 41.6367 60.0981 40.5775 59.8474 39.5345C59.8312 39.4698 59.7261 39.5587 59.7261 39.6072Z" fill="#A37254" fill-opacity="0.6"/>
<path d="M61.4639 33.5243C61.41 35.5079 61.3588 37.4888 61.3103 39.4671C61.2833 40.5236 61.2564 41.58 61.2294 42.6365C61.2133 43.4451 60.906 44.6579 61.3426 45.3613C61.4315 45.5149 61.6498 45.3532 61.6984 45.2319C62.0137 44.4234 61.8601 43.5987 61.8358 42.7335C61.8089 41.704 61.7819 40.6745 61.755 39.6449C61.7011 37.5859 61.6472 35.5268 61.5932 33.4677C61.5852 33.3869 61.4639 33.4677 61.4639 33.5243Z" fill="#A37254" fill-opacity="0.6"/>
<path d="M63.0343 31.2537C62.8887 33.6388 62.8806 36.0402 62.8402 38.4335C62.824 39.6247 62.8079 40.8159 62.7917 42.0072C62.7755 43.0502 62.4359 44.5864 62.8887 45.5405C62.9938 45.7507 63.2606 45.4596 63.293 45.3464C63.6245 44.3358 63.4143 43.1634 63.3981 42.1123C63.3819 40.9372 63.3658 39.7622 63.3496 38.5871C63.3092 36.1291 63.3092 33.655 63.1475 31.1971C63.1475 31.1243 63.0343 31.2051 63.0343 31.2537Z" fill="#A37254" fill-opacity="0.6"/>
<path d="M64.5333 33.1628C64.3393 35.3054 64.4201 37.4966 64.3959 39.6554C64.3905 40.7172 64.3824 41.7818 64.3716 42.8491C64.3554 43.7142 64.1533 44.8138 64.4686 45.6224C64.5495 45.8326 64.8244 45.5415 64.8567 45.4364C65.1154 44.5308 64.9618 43.5121 64.9295 42.5823C64.8972 41.5366 64.8675 40.4881 64.8406 39.4371C64.784 37.3429 64.8163 35.2084 64.6142 33.1224C64.6061 33.0739 64.5333 33.1305 64.5333 33.1628Z" fill="#A37254" fill-opacity="0.6"/>
<path d="M65.7426 38.7269C65.6537 39.9963 65.6537 41.2819 65.6375 42.5513C65.6321 43.1873 65.6267 43.8234 65.6214 44.4594C65.6214 45.0011 65.4839 45.462 65.7831 45.9309C65.8235 45.9956 65.9529 45.8744 65.969 45.8339C66.349 44.896 66.0903 43.7317 66.0499 42.7372C65.9933 41.387 65.9448 40.0286 65.8316 38.6865C65.8235 38.6299 65.7507 38.6945 65.7426 38.7269Z" fill="#A37254" fill-opacity="0.6"/>
</svg>
