<svg width="198" height="174" viewBox="0 0 198 174" fill="none" xmlns="http://www.w3.org/2000/svg">
<path d="M145.622 60.748C146.564 64.0029 144.947 62.4983 144.537 62.744C144.333 62.8668 142.275 65.5587 141.528 66.2342C140.812 66.879 137.025 69.7552 136.82 70.1134C136.697 70.3284 137.096 71.8637 136.994 72.6416C136.881 73.5934 136.247 74.2895 136.237 75.2209C138.99 72.2117 143.77 68.4041 145.704 64.9343C146.83 62.9179 145.94 60.7378 149.676 62.3652C155.029 65.9783 160.198 70.0622 165.858 73.1943C167.137 73.9005 174.926 77.2577 174.967 77.7695C175.029 78.5474 174.056 78.1891 173.585 77.9844C164.855 74.0643 157.086 69.2332 149.717 63.1022L149.154 63.092C147.833 65.3642 145.714 67.7797 143.872 69.7552C142.275 71.4542 137.209 77.0223 135.653 78.0049C134.773 78.5576 133.514 77.7797 131.989 79.7756C127.209 89.9087 122.47 100.113 116.278 109.468C118.263 109.571 120.914 108.558 122.664 107.636C125.285 106.265 129.348 101.823 131.528 101.229C136.963 99.7346 131.068 107.391 129.962 108.67C127.25 111.843 123.514 114.893 119.41 115.927C119.553 117.084 120.515 117.002 121.057 118.383C121.303 118.987 121.416 119.581 121.365 120.226C121.825 120.727 126.902 116.234 129.594 119.243C131.641 121.536 129.154 122.948 129.276 124.279C129.42 125.866 130.853 126.121 130.187 129.253C129.307 133.389 125.633 131.802 124.916 132.396C124.681 132.6 124.323 136.254 122.122 137.626C119.491 139.274 118.263 136.838 115.889 138.24C116.185 138.731 116.953 141.239 117.086 141.331C117.496 141.638 120.372 140.134 122.163 142.324C123.094 143.47 123.105 145.866 122.746 147.247C122.388 148.598 120.863 149.52 120.658 150.246C120.075 152.273 120.802 154.453 118.232 156.039C122.306 157.943 122.173 161.495 119.41 164.658C117.649 166.674 115.264 168.322 114.128 164.852C111.262 166.459 107.424 169.939 104.752 166.387C103.002 164.033 102.593 161.843 104.21 159.233C104.793 158.301 106.871 157.002 106.871 156.817C106.881 156.572 104.681 155.712 105.408 152.6C106.011 149.949 110.024 149.305 109.625 152.713C108.581 153.041 108.591 151.648 108.437 151.546C107.352 150.86 106.441 153.818 106.881 154.668C108.468 155.282 110.689 152.375 111.805 154.279C112.224 154.995 110.433 157.032 114.312 155.64C115.684 155.159 118.14 153.225 118.222 151.72C118.263 151.014 117.629 150.297 118.007 149.581C118.263 149.12 119.154 148.854 119.563 148.363C121.211 146.388 122.419 143.286 118.816 143.286C117.71 143.286 115.234 144.433 114.752 143.665C114.364 143.061 116.247 138.824 111.467 139.878C108.509 140.523 109.717 144.586 106.881 144.105C106.134 140.001 109.246 137.544 113.145 137.841C113.084 136.787 112.142 136.418 111.979 135.262C111.815 134.054 112.275 133.122 112.357 131.976C111.426 131.761 111.723 132.13 111.487 132.478C110.996 133.204 110.924 133.911 110.003 134.504C109.215 135.006 107.741 135.088 107.434 135.477C107.301 135.651 108.11 137.401 107.055 138.998C105.981 140.645 104.855 139.857 104.118 140.369C103.678 140.676 103.811 141.761 103.381 142.365C101.917 144.443 98.6215 142.467 99.0514 140.185C98.6624 139.765 91.3953 145.272 88.9183 141.515C87.5673 139.458 90.4741 137.616 90.0545 137.063C87.0657 136.521 86.5847 131.28 82.7157 133.051C80.8938 133.88 82.6031 134.627 82.6031 134.914C82.5929 135.251 78.3452 137.401 77.987 139.704C77.5468 142.621 80.4332 141.956 80.6584 142.744C80.9245 143.675 77.8232 146.326 78.7034 148.015C80.1262 147.872 81.2009 143.951 81.4977 143.777C82.9306 142.907 82.9306 144.433 83.0125 144.494C83.6369 144.934 84.7832 141.618 84.9368 141.147C85.3257 139.949 85.0289 137.769 86.5437 138.803C87.4035 139.397 85.8375 144.023 85.3053 145.036C84.0361 147.483 83.3708 146.817 81.6307 148.015C80.4332 148.844 79.7679 150.492 77.772 150.39C75.7249 148.598 78.2735 144.371 78.2019 143.511C78.1712 143.174 77.2807 142.59 77.0453 142.048C75.8068 139.264 78.3657 137.698 78.3042 136.121C78.2838 135.262 76.8406 132.252 76.2879 131.444C73.0228 126.654 66.9327 126.459 61.8765 124.924C62.8079 129.274 63.9133 134.351 69.1538 135.067C71.6513 135.405 77.1784 133.818 77.1374 137.053C68.9593 138.701 59.9932 140.666 56.7895 149.386C56.7076 149.653 57.1682 149.673 57.3729 149.581C57.9256 149.325 59.942 147.268 60.7403 146.684C63.1354 144.924 68.0689 141.167 70.5049 140.011C70.8938 139.827 72.4496 139.427 72.0504 140.379C71.6308 141.372 59.4609 148.834 57.3831 150.768C56.8714 151.239 56.5029 151.628 56.073 152.191C55.5203 152.897 55.0802 155.077 54.0464 154.473C53.4834 154.146 54.1795 152.59 54.333 152.017C56.769 143.174 60.3821 138.895 69.6963 137.053L66.032 135.845C63.7905 134.883 62.6748 133.215 61.8662 131.004C61.4363 129.868 60.1774 125.579 60.0853 124.555C59.9932 123.501 61.1498 123.348 61.9583 123.43C64.8243 123.737 71.7741 125.722 74.1384 127.339C77.5775 129.683 77.3831 131.956 79.0003 134.996C79.2971 135.538 79.205 135.794 80.075 135.487C80.8733 135.2 79.6451 133.194 81.9378 132.273C83.7495 131.536 85.6328 132.519 85.7454 132.365C85.817 132.273 85.6942 131.341 85.9501 130.809C86.9327 128.762 90.9142 129.264 92.7873 129.233C92.8897 127.964 91.8764 126.991 91.7024 125.804C91.252 122.774 93.5754 119.857 96.7279 120.799C97.905 121.157 101.027 123.931 102.061 124.095C102.613 124.187 105.909 120.871 108.048 124.146C109.205 116.111 117.936 115.313 123.586 112.078C127.373 109.898 129.952 106.787 132.316 103.204C132.398 102.938 131.948 102.918 131.743 103.01C130.003 103.808 127.332 107.237 125.152 108.568C124.149 109.182 122.583 109.909 121.467 110.349C118.099 111.7 114.63 111.372 112.941 115.139L112.746 113.573C109.788 114.013 111.385 117.708 111.191 117.882C110.965 118.066 110.085 117.892 109.809 117.503C109.195 116.603 109.706 114.218 110.28 113.297C110.863 112.355 112.378 111.966 112.92 111.198C113.842 109.898 114.834 101.086 115.1 98.8953C115.94 91.8534 115.735 84.617 117.844 77.7695C110.505 79.8166 109.983 76.1113 112.357 70.1441L109.625 69.1615C111.027 67.3806 112.449 69.571 112.941 69.6221C113.432 69.6733 114.2 68.9671 115.5 69.1206C117.618 69.3765 120.72 71.9251 121.631 72.0377C122.071 72.0889 122.419 71.485 122.736 71.485C124.497 71.4952 125.295 73.2045 125.459 73.225C125.745 73.2557 129.86 71.4952 130.853 71.2086C132.593 70.7071 135.346 70.4819 136.769 69.6938C137.281 69.4072 142.685 64.4533 143.104 63.8903C143.923 62.7747 143.974 60.8197 145.622 60.748ZM121.692 73.3273C121.59 73.1738 118.898 71.792 118.499 71.6283C113.657 69.6528 112.787 71.7409 113.145 76.398C114.384 76.746 119.379 74.7194 119.747 76.2342L113.934 110.84L115.827 109.407L131.538 79.7245C128.55 77.3908 131.549 77.575 132.746 76.6231C133.493 76.0295 135.745 72.6928 135.254 71.6999L133.893 72.877L133.729 71.7408C131.927 72.5801 126.881 72.9998 125.51 74.0029C125.162 74.2588 125.581 78.3939 122.316 78.3529C120.535 78.3324 122.449 74.5351 121.692 73.3273ZM124.097 74.4532C124.056 74.4021 123.166 74.2792 122.931 74.054V76.398C123.606 76.2956 124.486 74.8934 124.097 74.4532ZM117.055 117.493C116.349 116.766 111.385 121.147 110.791 121.997C110.433 122.508 109.696 125.251 109.625 125.937C109.41 127.913 111.774 132.058 114.312 131.188C114.292 132.396 113.074 133.204 113.145 134.484C113.207 135.497 114.251 136.766 115.285 136.879C117.639 137.145 116.37 133.798 117.281 133.511C119.727 132.754 118.509 136.193 118.99 136.48C120.679 137.493 123.084 134.75 123.319 133.307C123.514 132.089 122.101 130.072 122.542 129.622C123.227 128.926 124.599 130.953 125.162 131.127C128.386 132.078 130.546 127.472 128.601 125.313C128.089 124.74 126.799 125.077 126.451 124.34C125.848 123.051 128.284 123.409 128.724 121.904C130.126 117.104 123.545 121.352 122.552 121.618C119.522 122.426 120.249 120.185 119.113 118.383C117.997 116.623 117.762 120.236 117.864 121.178C118.018 122.6 118.98 122.641 119.021 122.774C119.491 124.361 117.833 123.706 117.281 122.948C116.124 121.362 116.943 119.233 117.055 117.493ZM103.842 124.238C103.401 124.699 103.442 126.725 102.398 126.49C102.214 126.439 101.58 125.64 101.139 125.384C99.9419 124.699 98.6829 124.197 97.5058 123.542C96.4721 122.969 95.6737 121.024 93.9439 122.754C91.7024 124.996 94.8446 128.312 93.6164 129.857C92.6645 131.045 87.8948 129.745 87.3421 131.434C86.4823 134.044 92.7361 135.548 91.7228 138.128C91.3851 139.008 88.7239 141.229 91.8457 141.331C94.9777 141.434 93.381 140.492 93.5652 139.243C93.6369 138.69 94.6092 137.82 94.3533 137.462C94.2203 137.278 92.8692 137.462 93.2274 136.142C93.4936 135.139 95.7556 134.494 96.7075 134.31C94.8242 132.652 97.3421 132.181 97.3932 131.393C97.4547 130.645 94.036 127.769 97.3421 127.677C99.2356 127.616 101.774 132.406 101.406 132.754C100.085 133.962 99.4813 129.11 97.8845 129.622C99.5427 131.393 97.6798 132.119 97.5468 133.02C97.4751 133.511 98.6931 134.586 98.2735 135.487C96.8508 135.456 95.3769 135.292 94.3636 136.469L96.3083 137.258C94.773 138.128 93.7392 141.024 96.1957 140.287C97.7003 139.847 98.2735 138.076 99.8395 138.23C98.949 142.887 103.76 143.992 102.972 139.018C108.529 140.011 105.377 135.18 106.267 133.9C106.769 133.184 108.867 134.207 109.973 132.099C111.293 129.581 107.864 129.468 107.455 128.854C106.841 127.943 107.782 125.917 106.912 124.699C106.318 123.88 104.609 123.44 103.842 124.238ZM108.836 124.535H108.059L108.447 126.101H108.836V124.535ZM117.383 157.073C116.902 156.787 111.815 159.141 109.921 158.168C109.604 158.005 109.604 157.391 109.399 157.38C107.291 157.339 104.742 160.482 104.886 162.692C104.916 163.092 106.329 165.753 106.472 165.855C107.997 166.971 114.568 161.669 115.909 162.662C116.482 163.081 115.827 164.821 117.465 163.88C118.058 163.532 119.021 161.106 119 160.379C118.98 159.775 117.7 157.257 117.383 157.073Z" fill="#A37254"/>
<path d="M82.6207 72.8732C82.0475 72.2079 84.8417 66.9469 84.1662 66.2304C84.115 66.1793 82.8254 65.9643 82.6002 66.0462C81.1877 66.5375 80.3177 73.7944 80.6657 74.4392C80.6862 74.4904 81.5255 73.8865 81.8325 74.6439C81.7302 75.6367 80.6248 77.3051 80.6759 78.1751C80.7169 78.9735 81.6688 79.1373 81.6585 79.9356C81.6483 80.5702 81.0956 82.7708 80.7783 83.3338C80.4303 83.9581 79.6933 83.9991 79.5705 84.4494C79.4886 84.7565 79.8059 85.3092 79.7036 85.8005C79.3556 87.3768 78.7926 88.7585 77.1652 87.1106C76.9707 86.476 77.1959 86.0871 77.5132 85.5651C78.6084 83.7227 80.5838 85.0021 78.3423 82.9244C78.0659 82.6582 78.158 82.4842 77.5337 82.6582C76.0802 86.9571 72.5286 90.0175 69.3863 93.1086C69.3044 96.8138 68.1376 103.16 69.0178 106.629C69.5808 108.881 75.7527 112.064 77.9226 112.975C85.2204 116.046 92.9993 117.203 100.44 119.424C100.962 119.587 101.658 119.454 101.792 120.222C94.2583 118.195 85.8857 117.08 78.4958 114.756C75.1795 113.723 71.5971 112.095 69.4989 109.27C68.4139 111.921 71.372 115.145 71.6586 117.295C71.7711 118.093 71.1366 118.062 70.6862 117.868C70.1744 117.643 68.1683 113.549 67.9431 112.791C66.1724 106.814 67.3188 99.6592 68.1274 93.6203C63.1632 95.2273 58.7415 94.3061 54.0435 92.4433C54.2584 95.3194 54.8009 98.7687 54.4426 101.645C54.3608 102.218 54.1356 102.853 53.6545 102.218C53.5317 99.9765 53.8183 97.6224 53.6545 95.3808C53.6033 94.7565 53.2349 91.9417 53.0711 91.6551C52.8971 91.3583 49.6115 89.0553 48.762 88.1444C46.8378 86.0871 45.456 82.6378 44.0435 81.1127C43.4089 80.4167 42.2932 80.2734 41.5461 79.7002C39.151 77.8374 37.2165 73.2724 36.8685 70.2837C36.2953 65.299 38.7109 62.4843 41.1264 67.9807C41.7917 68.6255 41.3414 67.2233 41.7201 67.3973C42.7334 67.8476 42.9688 73.037 43.2656 74.4495C44.6883 81.0922 48.9053 88.6459 55.2001 91.8701C69.7343 99.3112 77.6258 85.0328 79.4374 72.6275C79.6115 71.43 79.6626 65.7289 79.9083 65.4628C80.3586 64.9612 82.0679 65.8927 81.8428 64.8487C81.4641 63.1189 80.3996 63.9377 79.6729 63.5078C75.9165 61.2765 75.3535 47.6225 72.8254 46.0463C69.98 44.2756 67.6361 52.2489 67.0526 53.5898C66.8275 54.122 66.6842 54.5621 66.1826 53.8968C66.7251 51.3687 67.0731 49.1067 68.5879 46.9061C75.4252 36.9982 77.8714 54.7361 79.2123 58.861C79.3453 59.2806 79.3044 60.0483 79.8673 59.9562C79.028 55.1251 80.1642 41.0821 72.3546 42.0442C71.6074 42.1364 68.4549 43.5386 68.199 43.9685C68.1376 44.0811 68.547 44.6235 68.3423 45.0637C67.9124 46.0156 65.722 47.4178 65.7835 48.994L65.589 47.0391C64.5757 47.9296 64.4529 49.383 63.9206 50.4577C63.675 50.9593 63.5931 51.4915 63.0404 50.7545C64.4836 45.3298 68.9257 38.7382 75.3945 40.7546C82.8663 43.078 79.8264 55.9234 83.0608 61.6655C83.767 62.9039 85.6401 64.0605 85.7834 65.6265C85.9165 67.1516 84.7394 70.6828 83.8591 71.9725C83.5214 72.474 83.419 73.037 82.6207 72.8732ZM42.6924 77.561C42.2932 75.8312 40.9422 66.2407 38.977 66.2304C36.7764 66.21 40.0926 74.4904 40.6658 75.4935C40.9934 76.0667 41.8531 77.6941 42.6924 77.561Z" fill="#A37254"/>
<path d="M196.654 145.823C196.511 145.966 196.316 147.153 195.723 146.447C195.436 146.12 194.669 138.177 194.935 137.839L196.101 138.228C195.539 132.025 194.341 125.853 193.768 119.641C193.051 111.882 193.287 103.97 192.089 96.263C191.833 94.6048 191.158 90.654 190.411 89.3438C189.582 87.9006 180.8 81.6059 179.51 81.9129C178.589 83.2538 177.34 83.5711 176.142 84.7993C173.973 87.0204 172.222 90.1013 171.854 93.2231L174.812 88.5557C176.634 88.392 176.194 90.0091 175.887 91.1964C174.382 96.9078 168.834 105.024 166.061 110.337C164.515 113.305 164.085 118.617 162.529 121.288C162.222 121.831 162.048 122.332 161.281 122.179C160.093 120.787 165.293 103.458 166.265 100.746C167.934 96.0685 170.319 91.9436 172.14 87.4503C175.047 80.2548 173.256 76.8566 182.673 81.8106C185.006 83.0286 190.574 86.5905 191.608 88.9139C195.027 96.6007 194.914 113.827 195.723 122.773C196.061 126.549 196.951 130.347 197.279 134.124C197.514 136.754 198.128 142.384 197.688 144.697C197.534 145.475 197.064 145.434 196.654 145.823ZM178.886 81.0941C175.006 78.8833 174.566 82.179 174.198 85.393C175.354 83.9395 176.972 83.1002 178.394 81.9846C178.722 81.7389 179.111 81.9948 178.886 81.0941ZM164.802 112.005L165.191 109.661C164.935 109.129 164.116 111.36 164.413 112.005H164.802Z" fill="#A37254"/>
<path d="M44.6583 85.0041C42.6624 84.7892 43.9214 85.4544 43.6552 86.1914C42.9388 88.1463 39.3154 87.2559 39.5816 86.0174L41.5263 84.4207L39.5713 82.2712L34.8733 111.616C36.3369 111.698 37.7699 111.37 39.1824 111.043C39.4485 110.971 43.3584 109.262 41.9152 110.828C41.0862 111.729 35.4567 112.333 34.9654 112.885C33.0002 115.096 35.8968 124.257 36.9306 126.979C39.7044 134.349 44.4434 141.626 49.7453 147.43C50.5027 148.259 52.0073 148.402 51.7002 149.968C51.0657 150.644 46.951 146.273 46.4086 145.669C43.1537 142.025 40.6767 137.665 38.3226 133.417L34.0954 121.8C34.2489 125.065 33.8702 128.525 34.0954 131.77C34.7812 141.677 41.2295 156.856 35.2008 165.761C30.6461 172.465 30.2981 166.764 28.6809 163.008C24.6481 153.684 20.7485 150.388 10.1344 152.824C7.01257 153.54 3.57348 156.314 1.90512 151.432C0.646165 147.757 5.01667 146.027 4.54584 144.052C4.38208 143.346 1.67994 141.524 0.891813 139.917C0.246984 138.597 -0.131725 137.389 0.042276 135.884C1.04534 135.802 0.697342 135.823 0.809932 136.468C1.6697 141.422 2.44759 139.917 4.73008 143.121C6.89998 146.161 1.79253 147.358 2.45782 150.848C3.3483 155.495 6.93069 152.629 9.22341 151.913C14.945 150.122 18.1282 149.364 23.2561 153.172C26.5519 155.618 28.4045 161.053 29.9705 164.85C30.2162 165.444 30.8303 167.88 30.9634 167.972C31.7105 168.484 33.645 166.416 34.0852 165.823C39.6225 158.402 34.3615 145.035 33.0411 136.734C31.7822 128.883 31.8846 121.033 33.3073 113.182C28.8446 113.377 22.642 115.485 19.8273 119.078C19.3053 119.743 18.8549 121.483 18.2306 121.79C17.5448 122.128 17.3912 120.971 17.4527 120.572C18.0361 116.672 23.6655 113.98 27.0432 112.988C28.8958 112.445 31.0964 112.384 32.6317 111.923C33.123 111.78 33.471 111.432 33.6143 110.951L39.121 81.2682C37.3912 77.7984 36.1936 74.4719 36.0503 70.5312L37.4219 75.2088C38.1691 77.3583 41.1476 82.0154 42.8978 83.4381C43.5222 83.9601 44.8425 83.8577 44.6583 85.0041Z" fill="#A37254"/>
<path d="M108.837 34.9138C110.894 36.5003 109.768 40.0622 110.055 42.4982C110.628 47.2781 116.585 53.8288 121.345 54.6988C130.444 56.3569 135.203 49.7551 140.536 43.9107C140.352 44.9137 139.492 45.9475 138.898 46.7766C133.873 53.9209 127.209 58.3323 118.233 54.8728C118.581 56.2136 117.824 57.8001 117.864 58.9567C117.916 60.1031 121.877 67.8615 122.737 68.5677C124.405 69.9495 130.638 67.5135 132.583 66.6844C136.073 65.2003 139.175 62.9792 142.419 61.0549L142.184 43.7981C142.849 42.621 144.139 42.1707 145.06 41.1983C146.012 40.2055 146.063 40.1031 147.005 39.2433C148.591 37.7899 150.833 33.4399 149.461 31.4747C148.069 29.4583 145.817 33.9516 145.623 34.1256C145.367 34.3406 144.691 34.3099 144.886 33.5832C145.439 31.5054 148.438 28.2915 150.505 30.6252C153.791 34.3201 148.53 39.3662 146.974 42.3242C146.554 43.1328 145.428 46.8994 145.234 47.0427C143.76 48.1379 144.415 44.4634 144.845 43.9107L142.562 45.3232L143.883 61.1573C140.577 62.7028 137.721 64.9956 134.415 66.5616C132 67.6977 124.405 70.7479 122.174 69.1307L117.844 61.5258C117.537 62.8666 118.632 65.0877 117.056 65.6302C118.653 66.6537 119.482 70.6558 117.117 68.3118C116.043 67.2474 114.906 65.2003 114.108 63.8595C109.052 67.1143 102.552 72.5288 96.3292 73.102C95.101 73.2146 93.9444 72.3958 94.9782 71.6691C95.4797 71.3108 100.812 69.9495 102.327 69.2944C103.729 68.7008 105.408 67.8205 106.759 67.0733C109.881 65.3436 112.798 62.3958 116.278 61.9249C114.21 63.4398 115.326 63.1737 116.667 64.6578C116.043 62.0785 117.998 56.9198 117.455 54.7602C117.394 54.4941 114.262 52.4368 113.371 51.3211C112.685 50.4511 108.837 43.9516 108.837 43.3273V34.9138Z" fill="#A37254"/>
<path d="M78.1164 34.1343C80.2147 34.4107 83.6845 36.3145 85.2198 37.7884C96.2536 48.423 94.2884 82.4146 95.5268 97.3276C96.0796 103.95 97.4101 110.541 98.4849 117.082C98.6179 117.645 98.188 117.87 97.6865 117.88C96.7039 117.911 94.5135 100.06 94.36 98.5047C92.9271 83.9909 93.8073 69.1905 91.1052 54.7893C89.2321 44.7791 84.6569 32.8959 72.2311 34.902L72.0469 34.1343C73.9609 34.3083 76.2536 33.8785 78.1164 34.1343Z" fill="#A37254"/>
<path d="M96.7075 148.404C94.9778 146.531 93.2685 144.913 90.423 145.845C88.3452 146.52 89.3278 148.66 88.5192 149.806C87.6083 151.106 83.4732 151.249 83.0126 153.675C83.8519 155.446 87.5673 153.972 88.0791 154.688C88.4988 155.282 86.7076 157.36 89.1641 157.728C90.5765 157.943 94.1896 155.773 94.8856 155.896C96.1241 156.131 95.4076 157.697 95.8989 158.015C97.2705 158.905 100.679 156.101 100.955 154.77C101.313 153.02 98.5704 153.235 98.335 152.068C98.0791 150.758 99.5837 150.758 100.249 150.195C103.135 147.759 97.0965 149.171 97.1477 147.493C97.2295 145.343 102.736 145.354 103.34 148.619C103.709 150.615 102.675 151.157 102.613 152.109C102.511 153.982 103.79 154.893 102.183 157.216C100.751 159.294 97.8641 160.655 95.3462 160.144C94.4455 159.959 94.1999 159.059 93.4629 159.059C92.163 159.048 89.901 160.297 88.1712 159.888C85.8683 159.355 86.032 156.971 85.6943 156.684C84.8038 155.927 80.9246 157.319 81.4159 152.897C81.7536 149.847 86.595 149.99 87.2398 149.11C87.5162 148.721 87.4752 146.94 87.9256 146.09C89.6963 142.774 96.3595 144.729 96.7075 148.404Z" fill="#A37254"/>
<path d="M151.778 13.0902C151.666 12.8241 149.475 11.2376 149.015 10.9715C147.132 9.907 144.992 9.36453 143.15 8.2284C140.755 6.76474 137.193 3.05953 134.593 2.30211C132.434 1.67775 124.112 1.82105 121.533 2.01552C120.407 2.0974 119.742 3.16189 118.227 2.43517L119.005 3.40755C118.247 4.29803 115.801 1.64706 115.893 1.10459C116.456 -0.215778 117.306 0.480218 117.95 0.326687C120.192 -0.215788 119.568 0.0810477 121.553 0.0810477C129.353 0.0912831 133.733 0.0401011 140.806 3.53037C144.511 5.3625 151.236 9.11887 152.843 13.0083C154.092 16.0175 150.274 22.2611 150.233 25.6286C149.639 26.8056 148.063 27.041 147.643 25.6286C146.937 23.213 152.73 15.3829 151.778 13.0902Z" fill="#A37254"/>
<path d="M47.4028 105.753C50.8829 104.627 52.5001 100.983 52.4898 97.5335C53.1244 97.5233 53.2779 98.8743 53.2677 99.2838C53.1756 102.477 51.3742 105.927 48.1807 106.93C50.3609 108.475 48.4878 110.645 48.5697 111.003C48.6515 111.382 49.89 111.791 50.3097 112.426C51.0364 113.511 51.0773 116.356 50.412 117.38C49.9514 118.096 47.0958 119.202 46.6659 117.605C46.1132 115.517 48.5082 115.64 48.9893 114.883C50.4632 112.59 48.365 112.774 47.6485 112.037C47.2698 111.648 47.4745 111.024 47.3517 110.901C47.1879 110.758 45.7652 110.799 45.1203 110.573C39.7058 108.659 38.3547 105.558 40.3302 100.051L39.9617 94.7904C40.4428 94.7188 41.2514 94.3913 41.6812 94.7495C42.2033 95.1794 41.5482 96.0596 42.3056 95.9675C42.4489 95.0054 42.4898 93.1733 43.8716 93.2244C43.759 97.6973 38.9586 102.6 42.1316 106.899C42.8481 107.871 47.3209 110.799 48.1807 110.051C47.8839 108.68 46.4816 107.994 45.9289 106.623C43.5646 100.696 48.887 96.8887 48.1602 92.2725C47.9044 90.6758 44.4243 87.6461 45.0487 86.9706C45.4376 86.5509 48.2933 89.4885 48.5697 89.8979C52.3056 95.2203 45.4683 100.266 47.4028 105.753Z" fill="#A37254"/>
<path d="M155.017 110.841C155.795 111.476 160.933 109.071 160.493 111.026C160.186 112.428 154.587 112.479 154.229 112.796C154.157 112.868 155.242 114.076 153.645 114.362C151.885 114.67 143.031 114.526 141.608 113.881C139.551 112.94 139.346 111.732 136.235 112.796C135.856 114.536 138.763 112.633 139.357 113.185C138.671 115.12 138.466 117.013 138.19 119.05C141.67 118.088 145.211 118.446 148.753 117.883C148.947 119.071 148.456 118.508 147.801 118.672C145.539 119.245 143.686 118.835 141.557 119.101C139.827 119.316 137.494 121.394 137.013 118.846C136.757 117.413 137.678 115.847 137.412 114.362C131.24 114.751 134.423 111.916 138.19 111.619C137.76 110.299 135.385 110.872 135.447 109.275C141.598 110.463 147.985 111.681 154.239 110.831C151.752 108.027 149.244 105.048 147.965 101.445C147.555 101.138 143.328 106.645 142.1 106.532L147.78 100.678C148.251 100.668 152.345 106.584 153.072 107.505C153.973 108.651 155.733 109.286 155.017 110.841ZM145.621 112.407L140.534 111.63L141.915 112.786L145.621 112.407Z" fill="#A37254"/>
<path d="M54.8212 29.4372C54.1457 29.3758 54.3708 28.5263 53.6441 28.0759C49.7956 25.7423 41.3514 33.1322 38.7721 35.8855C29.0076 46.2847 20.5531 78.3317 15.9779 92.9273C13.9718 99.3449 12.3546 105.916 10.3177 112.313C10.1642 112.784 10.0209 113.961 9.4375 113.961C13.634 97.1955 18.8336 80.5527 24.4221 64.1864C28.9359 50.9622 32.8151 36.2335 45.5582 28.5775C48.2296 26.9603 53.9717 24.9951 54.8212 29.4372Z" fill="#A37254"/>
<path d="M136.62 148.014C136.395 150.869 137.93 152.036 140.131 153.305C141.175 153.899 144.757 154.779 143.887 156.233C143.028 157.666 139.599 156.673 138.258 156.366C134.911 155.588 131.973 153.889 128.79 152.712C128.104 153.408 131.799 157.226 131.933 157.993C132.086 158.894 131.605 158.536 131.042 158.484L127.613 158.188C126.979 160.88 131.585 165.946 130.008 168.136C129.087 169.416 122.086 165.7 121.411 167.829C121.063 168.914 122.055 171.115 120.182 171.105C118.596 162.886 125.003 167.42 129.578 167.584C130.152 167.031 126.436 160.511 126.477 158.802C126.518 156.366 128.79 157.901 130.356 157.215C128.77 155.414 126.999 153.244 126.835 150.757C130.97 150.532 134.256 153.52 138.186 154.278C136.979 152.742 135.239 151.412 135.443 149.191L130.356 149.58L133.591 149.099L136.62 148.014Z" fill="#A37254"/>
<path d="M173.405 105.365C170.14 114.812 165.769 124.127 165.575 134.321C163.774 132.919 165.36 129.951 165.186 128.057C164.47 128.446 164.306 129.613 163.794 130.381C163.528 130.769 162.709 130.872 162.515 131.445C161.808 133.492 162.801 139.173 162.852 141.547C162.985 146.634 162.842 151.701 163.241 156.788L162.054 157.023C161.368 145.969 161.419 134.782 162.453 123.758C163.108 123.656 162.883 124.71 162.852 125.14C162.781 126.378 162.259 127.566 162.453 128.845L163.037 128.446L171.757 106.256L173.405 105.365Z" fill="#A37254"/>
<path d="M138.483 13.1044C139.578 14.1177 139.25 17.6898 139.803 18.0378C140.878 18.7031 144.44 16.9426 145.443 19.6345C145.914 20.8935 145.791 29.4912 145.33 30.5147C144.962 31.3233 144.051 31.8761 143.457 31.0163C142.915 30.2282 144.655 22.6335 143.999 20.2998C143.682 19.1535 140.305 21.0265 138.79 19.2456C137.551 17.8126 138.739 14.5885 137.817 13.9539C132.485 13.4114 126.169 14.3326 122.137 10.0645L138.483 13.1044Z" fill="#A37254"/>
<path d="M80.972 164.382C80.8696 164.577 78.9249 165.611 78.362 166.655C76.3251 170.431 81.2995 168.507 83.0088 169.346C84.7182 170.186 82.2514 172.816 86.1511 171.711C87.2258 171.404 89.017 169.674 89.5288 169.592C89.9689 169.531 90.8287 170.38 90.8287 170.524C90.8287 171.445 86.9392 173.574 85.8543 173.748C81.0027 174.556 82.6711 171.516 81.7908 170.759C81.1051 170.155 76.4684 172.059 76.3251 168.159C76.2125 165.16 79.4572 163.778 79.4674 163.482C79.4776 163.359 78.5564 162.345 78.3927 161.424C77.7171 157.453 82.2207 155.785 84.7693 158.579C85.6905 159.572 85.4449 160.851 84.3804 160.145C83.3159 159.449 82.1184 157.606 80.4295 158.937C77.9628 160.872 81.7499 163.041 80.972 164.382Z" fill="#A37254"/>
<path d="M61.8752 48.2196L60.6674 44.5451C59.2651 41.3005 55.0584 40.6761 52.4996 42.9586C50.2273 44.9954 49.6029 50.5737 48.5794 53.5215C47.1669 57.5952 44.4955 64.3505 39.5723 64.6576C40.0738 63.7262 41.2202 63.7569 42.1106 63.0916C48.3645 58.4959 46.6859 48.5573 50.432 42.8358C54.6183 36.4591 63.5845 41.0343 61.8752 48.2196Z" fill="#A37254"/>
<path d="M62.6617 32.9602C65.7324 29.4495 67.9125 29.6747 70.4202 33.6153C70.9319 34.4137 71.7098 35.4781 70.6658 36.082L62.1397 34.1783C61.4233 33.7279 61.4847 32.1721 61.4744 31.3942C59.888 32.2028 58.4038 36.2356 57.1653 32.9602C56.7969 32.5406 56.3875 34.7617 55.4253 34.5263C54.8419 34.3727 54.9033 32.1209 54.0538 32.9602C53.9514 33.0626 53.9514 34.9561 52.887 35.5088C49.888 37.0851 54.4734 27.9347 55.5379 31.2714C55.7017 31.7832 55.3025 32.6532 55.9985 32.561C56.4489 30.3502 58.1684 28.9377 58.5471 32.1721C60.6556 29.6133 63.1121 28.1496 62.6617 32.9602ZM70.0926 35.3042C70.4918 34.8845 67.1141 31.5477 66.6842 31.4352C65.7631 31.1895 65.2001 32.2131 64.6167 32.7658L70.0926 35.3042Z" fill="#A37254"/>
<path d="M56.7848 38.4332C42.445 33.2234 47.8698 55.905 35.2598 56.0381C35.9046 55.0862 37.5423 54.9838 38.5249 54.4209C42.8237 51.9337 42.5781 46.9081 44.5842 42.8651C46.9793 38.0238 51.8411 33.7863 56.7848 38.4332Z" fill="#A37254"/>
<path d="M118.617 5.94754C117.716 6.52072 115.628 5.06732 115.495 5.16967C115.301 5.3232 115.649 6.43883 114.144 6.35695C113.325 6.30577 112.814 5.45625 111.964 5.56884C111.79 6.24437 112.251 6.34674 112.548 6.73568C113.96 8.55758 116.335 10.1952 117.829 12.0171C117.225 12.6927 116.509 11.3211 115.874 11.6077C114.82 12.099 114.032 14.4736 112.752 14.9547C112.66 13.88 115.188 12.0274 115.066 11.2904C114.902 10.2669 108.863 7.39074 110.398 4.39177L114.707 5.55859C114.697 4.33034 113.162 4.49413 113.121 3.05094C113.09 1.47469 119.487 5.20036 118.617 5.94754Z" fill="#A37254"/>
<path d="M90.4405 108.873L89.2737 108.883L85.3535 75.2188C86.6534 75.9045 86.6432 78.013 86.8683 79.3845C88.4037 89.0672 88.3115 99.2514 90.4405 108.873Z" fill="#A37254"/>
<path d="M84.5626 117.493C85.4838 118.434 80.3968 128.803 78.1143 129.233C76.3436 128.885 79.578 125.067 79.9362 124.401C80.6322 123.143 82.5565 118.485 83.2013 117.892C83.58 117.544 84.3272 117.247 84.5626 117.493Z" fill="#A37254"/>
<path d="M145.228 136.273C145.811 136.806 141.41 141.831 140.724 142.138C140.55 142.22 140.08 142.241 140.141 141.954C140.53 141.381 143.365 139.201 142.874 138.628C137.736 142.548 133.079 137.276 127.623 139.006C128.288 138.065 130.284 137.809 131.338 137.809C134.9 137.788 136.579 139.764 140.52 138.413C142.219 137.839 143.447 136.325 145.228 136.273Z" fill="#A37254"/>
<path d="M77.1336 159.764C76.5297 161.013 74.7385 160.409 73.5205 160.645C71.76 160.982 67.9729 162.026 66.7242 163.275C66.0794 163.92 66.6321 164.442 66.3762 164.831C65.4038 166.366 62.149 165.547 64.9944 163.07C67.7273 160.696 73.5921 158.843 77.1336 159.764Z" fill="#A37254"/>
<path d="M69.6904 148.414C69.6392 149.161 68.3086 148.946 67.9197 149.56C67.1111 150.86 68.7283 151.433 69.8235 151.157C70.2841 151.045 70.6321 149.038 72.0445 149.581L71.6556 151.536C72.3311 152.089 74.4703 148.967 74.7876 151.341C73.6515 152.068 72.2083 153.859 70.7651 153.44C70.3352 153.317 69.9872 152.692 69.4038 152.416C68.5031 151.996 67.367 152.713 67.019 150.85C66.7119 149.192 68.2063 148.414 69.6904 148.414Z" fill="#A37254"/>
<path d="M48.2174 60.7051C48.3402 60.8484 49.0158 60.5516 48.9543 60.9303C48.3095 62.2302 46.8356 62.0869 46.0066 62.6806C45.6381 62.9467 41.6463 67.1637 42.7312 64.4922C42.8234 64.2466 45.9247 61.698 46.6002 60.9303C47.7466 59.6099 48.7189 58.0747 49.8244 56.7236L52.0864 52.916L51.6463 54.6253C51.5644 55.6181 48.0025 60.439 48.2174 60.7051Z" fill="#A37254"/>
<path d="M16.0802 139.406L15.8652 137.819L22.3442 118.27C20.768 125.414 17.636 132.21 16.0802 139.406Z" fill="#A37254"/>
<path d="M61.4759 51.7388L59.8587 46.9077C58.8557 45.1165 57.4739 44.3898 56 43.1309C59.7154 43.3458 61.5578 48.484 61.4759 51.7388Z" fill="#A37254"/>
<path d="M42.5881 92.342C41.759 93.1403 40.0088 92.9765 40.408 91.5334C41.0528 89.1485 44.2257 90.7555 42.5881 92.342Z" fill="#A37254"/>
<path d="M78.2696 97.8802C77.5122 99.1698 75.6392 96.7952 76.3556 95.5772C77.8909 95.004 78.9452 96.7543 78.2696 97.8802Z" fill="#A37254"/>
<path d="M110.013 27.0815C109.286 26.8052 109.583 24.7888 109.624 24.1542C109.706 22.885 109.839 19.968 110.791 19.2617L110.013 27.0815Z" fill="#A37254"/>
<path d="M57.1739 49.3924L52.875 46.2604C53.919 45.7589 57.8392 48.6964 57.1739 49.3924Z" fill="#A37254"/>
<path d="M77.7267 91.2674C79.0062 90.9808 79.1188 93.683 77.3378 93.2224C76.3654 92.9665 77.2866 91.3698 77.7267 91.2674Z" fill="#A37254"/>
<path d="M77.1357 88.9138C77.4734 88.4532 79.0702 88.5146 78.7017 89.8964C78.323 91.268 76.4806 89.835 77.1357 88.9138Z" fill="#A37254"/>
<path d="M46.6107 64.2695C46.2012 65.0269 46.3855 65.6922 45.4336 65.4363V64.2695H46.6107Z" fill="#A37254"/>
<path d="M93.9603 151.144C94.0934 151.287 94.206 152.607 93.3871 152.31C92.1794 151.88 93.5816 150.734 93.9603 151.144Z" fill="#A37254"/>
<path d="M141.709 106.93C141.514 107.677 140.849 107.81 140.143 107.697C139.744 107.513 141.197 106.766 141.709 106.93Z" fill="#A37254"/>
<path d="M135.831 144.105V144.494H133.887V144.105H135.831Z" fill="#A37254"/>
<path d="M102.672 132.65C101.628 131.616 102.928 129.518 104.177 129.794C107.35 130.501 104.361 134.349 102.672 132.65Z" fill="#A37254"/>
<path d="M115.557 124.831C116.488 125.107 118.443 124.647 119.037 125.578C120.603 128.035 117.461 131.095 115.915 128.608C115.229 127.492 115.587 125.619 115.086 124.34L115.557 124.831ZM116.519 125.742C114.769 126.295 117.317 130.379 118.433 128.055C119.088 126.684 117.89 125.312 116.519 125.742Z" fill="#A37254"/>
</svg>
