<svg width="96" height="87" viewBox="0 0 96 87" fill="none" xmlns="http://www.w3.org/2000/svg">
<path d="M32.8992 67.6012C39.7103 71.8194 48.1105 72.6211 55.6801 70.1148C62.679 67.8035 68.7174 62.7836 72.4516 56.4636C76.3303 49.8835 77.3776 41.7651 75.0157 34.4772C72.5816 26.9799 66.7528 21.0137 59.7538 17.5973C56.2579 15.8927 52.4009 14.8888 48.515 14.6938C44.5425 14.4987 40.6999 15.3438 37.0451 16.8606C30.4001 19.6342 24.8096 24.618 21.3426 30.9163C18.2801 36.4779 17.3195 43.1085 18.6629 49.3129C20.1292 56.1169 24.4484 62.0685 30.1112 66.0266C30.9996 66.6478 31.9169 67.1462 32.892 67.6084C32.9786 67.6446 33.1664 67.4568 33.0797 67.3917C29.9811 65.1671 26.9764 62.9425 24.5495 59.9739C22.3755 57.3231 20.7431 54.2534 19.7752 50.967C17.8973 44.5603 18.8002 37.7058 21.8265 31.8047C25.1418 25.3691 31.1007 20.7971 37.7313 18.1463C45.2142 15.1416 53.506 16.4128 60.4183 20.2915C67.1789 24.0907 72.7983 30.5985 74.6762 38.2042C76.5469 45.8243 73.9684 54.0439 69.2302 60.0894C65.2143 65.2177 59.4865 68.8725 53.1665 70.3893C46.2615 72.0505 39.2481 70.6854 33.0509 67.3845C32.9642 67.334 32.7908 67.5362 32.8992 67.6012Z" fill="#A37254" fill-opacity="0.6"/>
<path d="M61.2162 19.388C54.405 15.1626 46.0048 14.3608 38.4353 16.8672C31.4436 19.1785 25.4053 24.2056 21.671 30.5256C17.7851 37.0984 16.7378 45.2241 19.0997 52.512C21.5338 60.0093 27.3554 65.9682 34.3616 69.3846C37.8575 71.0964 41.7073 72.0932 45.6004 72.2882C49.573 72.4904 53.4155 71.6454 57.0703 70.1213C63.7153 67.355 69.3058 62.3712 72.7728 56.0657C75.8353 50.5041 76.7959 43.8735 75.4525 37.6763C73.9862 30.8651 69.6669 24.9207 64.0042 20.9553C63.1158 20.3414 62.2057 19.843 61.2234 19.3807C61.1368 19.3374 60.949 19.5324 61.0429 19.5974C64.1342 21.8148 67.139 24.0395 69.5658 27.0081C71.7399 29.6589 73.3723 32.7358 74.3402 36.0222C76.2181 42.4289 75.3224 49.2834 72.2888 55.1772C68.9736 61.62 63.0147 66.1849 56.3913 68.8429C48.9012 71.8476 40.6094 70.5764 33.6971 66.6905C26.9365 62.8913 21.3171 56.3907 19.4392 48.7778C17.5684 41.1649 20.147 32.938 24.8852 26.8925C28.9011 21.7715 34.6289 18.1095 40.9561 16.5927C47.8611 14.9387 54.8673 16.2966 61.0645 19.6046C61.1584 19.648 61.3245 19.453 61.2162 19.388Z" fill="#A37254" fill-opacity="0.6"/>
<path d="M57.4582 25.8401C50.8349 21.6436 42.4058 22.1781 35.8908 26.2807C29.5058 30.3038 25.4248 37.31 25.5476 44.9012C25.6704 52.8608 31.0659 59.6647 38.1154 62.9078C41.6402 64.5329 45.5766 65.1324 49.4264 64.6196C53.2256 64.114 56.9237 62.2794 59.8996 59.9175C65.1289 55.7716 68.4803 49.6105 68.3647 42.8644C68.307 39.6502 67.3535 36.4866 65.7717 33.7058C64.9267 32.2251 63.8794 30.8744 62.702 29.6537C61.4669 28.3681 59.9718 27.003 58.3466 26.2301C58.0481 26.0905 57.7471 25.9532 57.4438 25.8184C57.3571 25.7823 57.1693 25.9701 57.256 26.0351C58.7872 27.2196 60.3763 28.3103 61.7703 29.6537C63.0776 30.9105 64.2116 32.3479 65.1361 33.908C66.8479 36.7755 67.6714 40.0763 67.6425 43.4061C67.5919 50.3328 63.4171 56.6961 57.4871 60.0909C54.0418 62.0627 50.3582 63.2473 46.3567 63.0089C42.4274 62.7706 38.5921 61.2104 35.4141 58.9352C32.2504 56.6673 29.5491 53.6264 27.9601 50.0583C26.3421 46.4252 26.2121 42.4093 27.2378 38.5956C28.8268 32.6729 33.24 27.7397 38.7582 25.19C41.5896 23.8827 44.7027 23.2615 47.8085 23.3554C51.1454 23.4493 54.3379 24.5255 57.2849 26.0423C57.3643 26.0856 57.5377 25.8906 57.4582 25.8401Z" fill="#A37254" fill-opacity="0.6"/>
<path d="M41.8419 59.4515C42.557 59.9354 43.1276 60.311 43.9727 60.5349C44.8105 60.7588 45.6845 60.8238 46.5512 60.8455C48.4364 60.9033 50.4371 60.665 52.2284 60.0655C54.0991 59.4371 55.8543 58.5342 57.4794 57.4291C58.2234 56.9235 58.924 56.3457 59.5885 55.739C60.2241 55.1684 61.0475 54.4461 61.3798 53.6443C61.6831 52.9076 61.0259 52.6115 60.448 53.0521C59.8558 53.4999 59.3935 54.1499 58.8518 54.67C58.2812 55.2189 57.6528 55.6956 57.0099 56.1507C55.6015 57.133 54.0125 57.9058 52.3945 58.4692C50.6683 59.0831 48.942 59.5887 47.1002 59.6971C45.4245 59.7982 43.561 59.6465 41.9069 59.3648C41.878 59.3576 41.8058 59.4298 41.8419 59.4515Z" fill="#A37254" fill-opacity="0.6"/>
<path d="M63.0489 48.9415C62.4277 49.2376 62.0305 50.0393 61.7416 50.6244C61.5754 50.9711 61.5899 51.5056 62.0883 51.5128C62.6083 51.52 63.0417 51.065 63.2728 50.6461C63.4558 50.3186 63.5593 49.9671 63.5834 49.5915C63.5906 49.4254 63.5617 49.057 63.4173 48.9559C63.3017 48.8692 63.1789 48.8837 63.0489 48.9415Z" fill="#A37254" fill-opacity="0.6"/>
<path d="M32.9871 32.5548C34.3089 31.3486 35.6162 30.1568 37.133 29.1962C37.8986 28.7123 38.7148 28.315 39.5527 27.9683C40.4194 27.6144 41.3584 27.5277 42.2251 27.2099C42.4851 27.1232 43.0991 26.4515 42.5357 26.3721C41.7484 26.2637 40.7878 26.6537 40.0583 26.9282C39.0326 27.3182 38.0648 27.8094 37.133 28.3728C35.4717 29.3623 33.6949 30.7202 32.8498 32.5043C32.7921 32.6198 32.9293 32.6126 32.9871 32.5548Z" fill="#A37254" fill-opacity="0.6"/>
<path d="M44.4649 26.4519C44.5444 26.4952 44.5949 26.5964 44.6816 26.6325C44.8044 26.6758 44.9633 26.683 45.0933 26.683C45.4111 26.683 45.6278 26.553 45.9167 26.4447C45.9601 26.423 46.0323 26.3363 45.989 26.2858C45.8084 26.0619 45.7361 25.9824 45.4256 25.9824C45.0427 25.9824 44.8188 26.1774 44.501 26.3508C44.4794 26.3652 44.4216 26.423 44.4649 26.4519Z" fill="#A37254" fill-opacity="0.6"/>
<path d="M72.053 50.2501C71.4535 51.5646 70.5867 52.8214 69.8861 54.0854C69.1638 55.3855 68.3837 56.6495 67.5026 57.8485C66.8814 58.6864 67.9576 58.8308 68.4343 58.1952C69.3299 56.9818 70.1317 55.713 70.8395 54.3888C71.1718 53.7869 71.4559 53.1609 71.6918 52.5108C71.9591 51.7524 72.0168 51.0157 72.183 50.2356C72.2046 50.1417 72.0746 50.2067 72.053 50.2501Z" fill="#A37254" fill-opacity="0.6"/>
<path d="M66.5577 59.5472C66.0305 59.7928 65.4815 60.1972 65.2359 60.7462C65.0626 61.1434 65.431 61.2735 65.7271 61.0568C66.1966 60.7245 66.5505 60.1756 66.6516 59.6122C66.6661 59.5472 66.6155 59.5255 66.5577 59.5472Z" fill="#A37254" fill-opacity="0.6"/>
<path d="M36.9441 20.0996C37.8614 20.2224 38.9521 19.4495 39.7827 19.1534C40.3701 18.9415 40.9697 18.7706 41.5812 18.6406C42.2024 18.5106 42.7585 18.5178 43.3002 18.1855C43.5025 18.0627 43.7986 17.651 43.5892 17.4127C43.2425 17.0371 42.5852 17.2754 42.1446 17.3549C41.379 17.4994 40.6422 17.7666 39.9199 18.0411C38.8654 18.4383 37.4858 18.9584 36.908 19.9985C36.8863 20.0418 36.8935 20.0923 36.9441 20.0996Z" fill="#A37254" fill-opacity="0.6"/>
<path d="M44.9428 17.6083C45.0728 17.8466 45.1955 17.8972 45.4772 17.9261C45.8528 17.9694 46.1273 17.7166 46.4307 17.536C46.4668 17.5071 46.5679 17.3843 46.5029 17.3338C46.2645 17.1677 46.2212 17.0376 45.8889 17.0665C45.5495 17.0954 45.2967 17.2326 45.0294 17.4349C44.9861 17.4638 44.9066 17.5505 44.9428 17.6083Z" fill="#A37254" fill-opacity="0.6"/>
<path d="M20.9231 46.8373C20.7858 47.5018 20.5619 48.1085 20.5547 48.7947C20.5547 49.1125 20.6486 49.4664 20.7425 49.7698C20.8292 50.0659 21.1614 50.0659 21.3925 50.1237C21.4864 50.1381 21.5731 50.0514 21.5948 49.972C21.8187 49.3364 21.8043 49.0402 21.6309 48.3902C21.4792 47.8412 21.1036 47.3645 21.0314 46.8011C21.017 46.7361 20.9303 46.8012 20.9231 46.8373Z" fill="#A37254" fill-opacity="0.6"/>
<path d="M69.3747 51.8686C68.6235 52.9809 67.9302 54.1366 67.179 55.2489C66.435 56.354 65.3949 57.3291 64.7738 58.492C64.7376 58.557 64.7882 58.6148 64.8532 58.5786C65.9655 57.9719 66.7312 56.6862 67.4101 55.6534C68.1974 54.4616 68.833 53.1615 69.4542 51.883C69.4831 51.818 69.4036 51.8325 69.3747 51.8686Z" fill="#A37254" fill-opacity="0.6"/>
<path d="M67.3843 53.1068C66.6765 53.923 66.012 54.797 65.5497 55.7721C65.528 55.8226 65.5858 55.8082 65.6075 55.7793C66.2286 54.9126 66.8354 54.0314 67.4277 53.1357C67.4565 53.0924 67.4132 53.0779 67.3843 53.1068Z" fill="#A37254" fill-opacity="0.6"/>
<path d="M21.0202 44.6768C21.1285 42.6544 21.5475 40.7404 21.9158 38.7613C21.9303 38.6891 21.8364 38.7396 21.8147 38.7757C20.9263 40.567 20.5724 42.7194 20.9769 44.6985C20.9769 44.7201 21.013 44.684 21.0202 44.6768Z" fill="#A37254" fill-opacity="0.6"/>
<path d="M23.5183 39.3303C22.926 42.0533 22.5865 45.1808 23.0704 47.9399C23.0777 47.9832 23.1499 47.9182 23.1499 47.8966C23.1932 46.4376 23.1354 44.9858 23.1932 43.5267C23.251 42.1183 23.4171 40.717 23.5616 39.3158C23.5616 39.2941 23.5255 39.3158 23.5183 39.3303Z" fill="#A37254" fill-opacity="0.6"/>
<path d="M24.1845 42.5731C23.874 43.2449 23.7584 44.0177 23.9462 44.7328C23.9534 44.7689 24.0112 44.7183 24.0112 44.6967C24.0039 43.9672 24.1267 43.2738 24.2567 42.5659C24.264 42.5081 24.199 42.5443 24.1845 42.5731Z" fill="#A37254" fill-opacity="0.6"/>
<path d="M37.2422 21.6495C38.6579 20.9345 40.0736 20.3494 41.6192 19.9883C43.3094 19.591 45.0862 19.5116 46.8125 19.4032C46.8414 19.4032 46.8991 19.331 46.8486 19.3238C43.6344 18.9482 39.8496 19.5982 37.2422 21.6206C37.2277 21.6279 37.2205 21.664 37.2422 21.6495Z" fill="#A37254" fill-opacity="0.6"/>
<path d="M39.6201 21.4784C41.0214 21.2184 42.4082 20.8789 43.8094 20.6478C43.8383 20.6406 43.8889 20.5684 43.8383 20.5684C42.3504 20.59 40.9853 20.7923 39.6274 21.4207C39.6057 21.4351 39.5768 21.4856 39.6201 21.4784Z" fill="#A37254" fill-opacity="0.6"/>
<path d="M40.8396 22.3226C41.4247 22.2359 41.9519 21.9976 42.5226 21.8748C42.5442 21.8748 42.5731 21.8242 42.5442 21.8242C41.9231 21.8531 41.4174 22.0481 40.8468 22.272C40.8252 22.2793 40.8035 22.3298 40.8396 22.3226Z" fill="#A37254" fill-opacity="0.6"/>
<path d="M31.738 3.71512C30.0984 6.22146 28.6394 8.8578 27.1948 11.4797C26.3859 12.9315 25.5336 14.3616 24.5368 15.6906C23.764 16.7163 23.345 17.3663 22.0522 17.0558C20.7881 16.7524 18.5852 15.5317 18.6285 14.0005C18.6646 12.8159 19.4158 11.5447 19.9431 10.5191C20.7376 8.95893 21.6621 7.46381 22.6155 5.99034C23.4895 4.62522 24.5368 3.31787 25.3169 1.89497C25.6058 1.3677 25.6925 0.768199 25.9453 0.219261C26.0681 -0.0479846 25.7647 -0.0479722 25.6275 0.096485C25.3193 0.404661 24.9894 0.688754 24.6379 0.948777C24.0095 1.41826 23.5762 2.16945 23.1356 2.80506C22.1533 4.23519 21.2047 5.68939 20.2898 7.16767C19.3941 8.62669 18.5274 10.1218 17.8123 11.682C17.3284 12.7293 16.7939 13.9644 16.8589 15.1562C16.96 16.7957 18.8741 17.9947 20.2175 18.5653C21.691 19.1865 23.0634 18.9409 24.2479 17.9225C25.3169 17.0124 26.1258 15.799 26.8842 14.6289C27.8473 13.1217 28.7261 11.5664 29.5206 9.96292C30.5029 7.98385 31.3119 5.84587 31.933 3.71512C31.9764 3.57067 31.7741 3.65012 31.738 3.71512Z" fill="#A37254" fill-opacity="0.6"/>
<path d="M27.7089 1.36109C26.7627 2.2495 26.0549 3.44126 25.3326 4.51024C24.3937 5.91148 23.5197 7.35607 22.6674 8.81509C21.8295 10.2452 20.9267 11.632 20.096 13.0693C19.7205 13.7242 19.34 14.3767 18.9548 15.0267C18.8031 15.2868 18.5792 15.5757 18.5142 15.8718C18.4637 16.0668 18.5503 16.2257 18.5214 16.3919C18.4998 16.5652 18.6659 16.5869 18.7815 16.493C19.2293 16.1246 19.5543 15.9079 19.8649 15.3807C20.2357 14.7595 20.5944 14.1335 20.9411 13.5027C21.7067 12.1159 22.364 10.6714 23.1296 9.28457C23.9145 7.84963 24.7114 6.42191 25.5204 5.00141C26.221 3.76631 27.0806 2.62509 27.7884 1.38998C27.8245 1.32498 27.7378 1.33219 27.7089 1.36109Z" fill="#A37254" fill-opacity="0.6"/>
<path d="M29.3396 2.65306C27.5989 4.91381 26.111 7.47069 24.6736 9.93369C23.8791 11.2916 23.1207 12.6712 22.3479 14.0435C22.0012 14.655 21.6569 15.2666 21.315 15.8781C21.0983 16.2609 20.4699 17.0121 20.73 17.4671C20.8383 17.6549 21.0261 17.6405 21.1994 17.561C20.8744 17.7127 21.4306 17.4382 21.4595 17.4238C21.7339 17.2216 21.9145 16.9182 22.0806 16.6293C22.4129 16.0563 22.7403 15.4809 23.0629 14.903C23.8575 13.4873 24.6544 12.0692 25.4537 10.6487C26.253 9.21862 27.0114 7.76683 27.7289 6.29336C28.3067 5.10159 28.964 3.90261 29.4624 2.67472C29.5057 2.56638 29.3829 2.59527 29.3396 2.65306Z" fill="#A37254" fill-opacity="0.6"/>
<path d="M26.8785 12.9447C26.8857 12.8436 26.7196 12.8725 26.6762 12.9086C25.6723 13.5876 25.2678 14.8371 24.4083 15.675C23.751 16.3178 22.7614 16.3323 23.0648 15.1477C23.267 14.3676 23.4548 13.4287 23.8377 12.7353C24.011 12.4175 23.3609 12.4536 23.2309 12.6269C23.2165 12.6414 23.202 12.6582 23.1876 12.6775V12.6847C23.1876 12.6847 23.1852 12.6847 23.1804 12.6847C22.7614 13.2625 21.5047 15.4583 20.8185 14.7216C20.2985 14.1726 21.093 12.5908 21.3169 12.0347C21.4469 11.7169 20.8546 11.8035 20.739 11.9913C20.5368 12.3308 20.3635 12.6775 20.1612 13.0242C19.5834 13.4527 19.2584 13.3974 19.1861 12.8581C19.0922 12.5619 19.2006 12.1719 19.2584 11.8758C19.4823 10.8284 20.154 9.88946 20.6163 8.93604C20.6813 8.81325 20.4357 8.84938 20.3924 8.9216C19.6628 9.9617 17.9149 12.013 18.7239 13.407C18.3627 13.5153 18.0449 13.7537 18.1316 14.0426C18.2977 14.6132 18.3122 14.9599 18.6733 15.3066C18.8105 15.61 18.9983 15.8844 19.3161 16.0867C19.4461 16.1685 19.5834 16.2143 19.7278 16.2239C20.2262 16.5562 20.7679 16.8234 21.2735 17.1196C21.3024 17.1292 21.3337 17.1412 21.3674 17.1557C21.3819 17.9068 23.072 17.524 23.5343 17.3868C23.8449 17.2929 23.9749 17.0907 23.946 16.9318C23.9556 16.9318 23.9653 16.9293 23.9749 16.9245C24.0182 16.9173 24.1554 16.8234 24.0543 16.7801C23.9436 16.7319 23.828 16.6741 23.7076 16.6067C24.3794 16.4334 24.9139 15.9494 25.3689 15.4438C25.9395 14.8082 26.7846 13.7609 26.8785 12.9447ZM20.1179 13.6959C20.0095 14.1221 19.9662 14.541 20.0673 14.8443C20.0625 14.8299 20.0553 14.8154 20.0457 14.801C19.9012 14.4832 19.7928 14.1654 19.6556 13.8476C19.8241 13.8091 19.9782 13.7585 20.1179 13.6959ZM21.8803 16.2672C21.7791 16.195 21.6828 16.13 21.5913 16.0722C21.495 16.0193 21.3963 15.9639 21.2952 15.9061C21.6058 15.805 22.2197 15.4222 21.7502 15.1983C21.7262 15.1886 21.6997 15.179 21.6708 15.1694C22.0392 14.996 22.357 14.6999 22.6387 14.3604C22.6338 14.3941 22.629 14.4278 22.6242 14.4615C22.5231 14.9382 22.2703 15.3066 22.2775 15.8122C22.2823 15.923 22.3064 16.0217 22.3497 16.1083C22.1812 16.1132 22.0247 16.1661 21.8803 16.2672Z" fill="#A37254" fill-opacity="0.6"/>
<path d="M24.0676 18.0668C21.0773 19.5619 19.026 22.4511 17.2492 25.1813C14.8729 28.8289 12.8866 32.722 10.8786 36.5862C9.11623 39.981 7.54165 43.6502 5.19422 46.6982C4.57306 47.5072 2.6951 49.6813 1.79947 47.955C1.06274 46.5393 2.37731 44.2497 3.01293 43.0218C4.39249 40.3132 6.30654 37.8575 8.10504 35.4234C10.1202 32.7148 12.1282 30.0134 13.8978 27.1387C15.2484 24.9574 16.5269 22.7183 17.4153 20.3059C17.8559 19.1141 18.1737 17.9079 18.3182 16.6511C18.4337 15.5605 18.1087 14.7154 17.3648 13.9281C17.2203 13.7764 16.9386 14.0798 16.9458 14.2242C17.0108 15.1416 16.8447 16.0444 16.7797 16.9545C16.7002 18.009 16.4619 19.013 16.1224 20.0098C15.4651 21.9816 14.425 23.8451 13.3633 25.6219C10.7197 30.0351 7.48386 34.0221 4.52971 38.2258C3.27293 40.0099 2.0595 41.8517 1.12775 43.8308C0.42713 45.3114 -0.295145 47.1316 0.123781 48.7856C0.513815 50.3386 2.28341 50.3819 3.45351 49.7752C5.07143 48.9373 6.24875 47.2616 7.21662 45.7665C8.57451 43.6646 9.64351 41.3605 10.7269 39.107C12.0463 36.3671 13.3922 33.6369 14.7645 30.9163C16.0719 28.3233 17.5381 25.7881 19.2138 23.4117C20.5573 21.4904 22.0813 19.4536 24.0892 18.1752C24.1398 18.1463 24.1542 18.0235 24.0676 18.0668Z" fill="#A37254" fill-opacity="0.6"/>
<path d="M24.6324 17.0121C23.4335 17.1421 22.4078 18.0305 21.5772 18.8322C20.3565 20.0096 19.2586 21.3024 18.233 22.6531C16.0661 25.4989 14.3182 28.6048 12.6642 31.7756C10.9596 35.0451 9.27664 38.3267 7.61538 41.6204C6.90754 43.0288 6.24302 44.4517 5.49907 45.8457C5.12348 46.5608 4.63955 47.2397 4.10506 47.8465C3.62113 48.3954 2.99998 48.7782 2.49438 49.3055C2.40048 49.3994 2.3138 49.6811 2.55215 49.6233C3.59224 49.3488 4.4301 48.316 5.08738 47.5214C6.01913 46.3802 6.7053 45.0657 7.52148 43.845C9.57278 40.7897 11.234 37.525 12.917 34.2603C14.5421 31.1111 16.1528 27.9547 18.1391 25.0078C19.131 23.5439 20.2 22.1355 21.346 20.7824C22.3861 19.5401 23.3684 18.1677 24.618 17.1276C24.6397 17.1132 24.7119 17.0048 24.6324 17.0121Z" fill="#A37254" fill-opacity="0.6"/>
<path d="M95.2093 41.2738C96.4949 41.3243 94.552 44.2929 94.2992 44.7046C93.4541 46.0697 92.4862 47.3626 91.5689 48.6844C88.2031 53.5093 84.7 58.2403 81.4136 63.1229C78.1416 67.9911 74.9491 72.9027 71.6338 77.7348C70.7165 79.071 69.8281 80.4217 68.8675 81.7218C68.0441 82.8413 66.9607 84.4232 65.5955 84.9143C64.4904 85.3188 63.8115 84.3654 64.0571 83.3686C64.3749 82.0613 65.3861 80.8839 66.2022 79.8583C68.0585 77.547 70.2543 75.4668 72.2189 73.2422C73.8585 71.3787 75.4114 69.4429 76.6248 67.2689C77.8816 65.0298 78.3005 62.639 78.6111 60.1254C78.77 58.8253 78.9506 57.5252 79.2901 56.254C79.6079 55.0839 80.2074 53.9716 80.7996 52.9242C81.977 50.8368 83.5371 48.9806 85.2562 47.3193C86.6574 45.9686 88.232 44.7985 89.9221 43.8379C91.6412 42.87 93.5336 42.3644 95.2526 41.4255C95.3393 41.3749 95.7149 40.9704 95.4404 40.9198C94.487 40.7465 93.8297 40.9198 92.9196 41.2521C91.7928 41.671 90.707 42.1742 89.6621 42.7617C87.6252 43.9029 85.7618 45.3403 84.0788 46.9582C80.6913 50.2157 78.0188 54.4122 77.3182 59.107C76.921 61.7361 76.7765 64.3003 75.5775 66.7271C74.4435 69.0168 72.7245 71.0175 71.0416 72.9171C69.0914 75.1129 66.9606 77.1714 65.1116 79.4538C64.0209 80.7973 61.1318 84.3654 63.1398 86.0338C64.1943 86.915 65.6027 86.3083 66.5851 85.6438C67.9718 84.6976 69.0553 83.2747 70.0304 81.9385C72.7317 78.2548 75.1586 74.34 77.636 70.5047C80.8213 65.5931 83.9633 60.6527 87.2713 55.8278C89.561 52.4764 91.8362 49.1034 94.0103 45.6797C94.3136 45.2175 97.08 41.0065 95.2959 41.0932C95.2165 41.1004 95.0937 41.2738 95.2093 41.2738Z" fill="#A37254" fill-opacity="0.6"/>
</svg>
