<svg width="53" height="78" viewBox="0 0 53 78" fill="none" xmlns="http://www.w3.org/2000/svg">
<path d="M34.647 4.37637C34.6723 8.91903 34.1423 13.3671 33.1581 17.7962C32.2432 21.9224 31.0192 25.9414 29.2463 29.7837C27.9655 32.5661 26.1043 36.0741 22.956 37.0457C19.4354 38.1309 16.1104 35.3106 14.7413 32.3011C13 28.4966 14.0284 23.9603 14.9622 20.0675C16.0726 15.4302 17.8455 10.9569 19.9402 6.67925C20.4575 5.63192 20.9959 4.59509 21.5553 3.56879C21.8329 3.05563 22.1169 2.54459 22.4071 2.03564C22.5543 1.77907 22.7015 1.52459 22.8487 1.27222C22.874 1.22805 23.2651 0.767477 23.0569 0.887353C23.7257 0.508798 24.9686 0.843188 25.6627 0.975682C28.1548 1.45519 30.5965 2.35741 32.912 3.38582C33.2653 3.54355 34.5461 3.89687 34.6029 4.40161C34.6155 4.54673 34.8426 4.3953 34.83 4.28804C34.7669 3.7139 34.1297 3.29749 33.7006 2.98834C32.7795 2.31325 31.6564 1.89053 30.5902 1.49935C29.3367 1.03667 28.0602 0.656016 26.7605 0.357378C25.8015 0.142863 24.7794 -0.0716508 23.7951 0.022988C22.6153 0.136555 22.2872 1.07663 21.7446 2.02302C20.5332 4.13452 19.4186 6.29439 18.4007 8.50263C16.4638 12.6857 14.8991 17.0643 13.9211 21.5691C13.0946 25.3862 12.5268 29.4683 13.7697 33.2538C14.2934 34.8375 15.2335 36.4716 16.5963 37.4621C17.9401 38.44 19.6373 38.9132 21.2967 38.7807C24.6973 38.5158 27.221 35.6829 28.9119 32.9699C30.9246 29.7333 32.3378 26.0487 33.3662 22.3893C34.1801 19.4933 34.5776 16.4712 34.7354 13.468C34.9057 10.408 35.0067 7.37327 34.7858 4.31328C34.7795 4.21864 34.647 4.31959 34.647 4.37637Z" fill="#A37254" fill-opacity="0.6"/>
<path d="M14.5677 33.784C14.7317 34.1057 14.7822 34.5285 14.839 34.8881C14.9105 35.3592 14.963 35.8324 14.9967 36.3077C15.085 37.4349 15.0998 38.5643 15.0409 39.6957C14.9021 42.6043 14.3973 45.5381 13.7853 48.3773C12.5487 54.1692 10.7064 60.2513 7.52023 65.2861C7.18374 65.816 6.8178 66.325 6.42242 66.8129C6.00601 67.324 6.70003 67.4186 7.01549 67.0337C8.56757 65.1347 9.66537 62.8633 10.6559 60.6362C11.943 57.7465 13.0156 54.737 13.9431 51.7086C14.8642 48.6864 15.6465 45.5823 16.0693 42.4529C16.3784 40.1626 16.675 37.6011 15.9746 35.355C15.8548 34.9638 15.6592 34.6483 15.4636 34.3013C15.2932 33.9859 15.0282 33.8534 14.7759 33.6073C14.7002 33.5316 14.5172 33.6956 14.5677 33.784Z" fill="#A37254" fill-opacity="0.6"/>
<path d="M25.3424 36.6631C24.8187 36.8839 24.3329 37.0417 23.8407 37.3445C23.254 37.7041 22.7303 38.1458 22.2193 38.6C21.153 39.5464 20.2697 40.7641 19.4684 41.9313C17.6703 44.5749 16.4463 47.5466 15.38 50.5434C14.2948 53.5908 13.5314 56.7644 12.9257 59.9379C12.4273 62.5184 12.0614 65.1557 12.0172 67.7929C12.013 68.1168 12.0172 68.4407 12.0298 68.7646C12.0424 69.2693 12.8563 68.7393 12.8437 68.3734C12.686 62.7771 14.1056 57.0294 15.9289 51.7927C16.9826 48.7642 18.2886 45.7989 19.9606 43.0607C20.7177 41.8367 21.5442 40.6569 22.5158 39.5906C23.3675 38.6442 24.3266 37.5716 25.3739 36.8524C25.4622 36.7893 25.5001 36.6 25.3424 36.6631Z" fill="#A37254" fill-opacity="0.6"/>
<path d="M8.38831 64.673C6.07281 63.6194 1.2273 63.3292 0.154731 66.3765C-0.85475 69.2473 3.32829 71.2031 5.37249 72.0927C8.12963 73.2915 11.2969 74.0801 14.319 73.6574C16.1929 73.3924 19.4484 71.6258 18.1866 69.2788C17.6314 68.2441 16.5336 67.5059 15.5682 66.9002C14.5903 66.2945 13.4357 65.6825 12.2559 65.897C12.1802 65.9097 12.0603 66.0358 12.1297 66.1115C12.5083 66.5595 13.0509 66.7993 13.5556 67.0895C14.2622 67.4933 14.9689 67.8403 15.6313 68.3198C16.4515 68.9065 17.9658 70.1495 17.2213 71.2788C16.6597 72.118 15.4231 72.282 14.502 72.3325C13.0193 72.4145 11.5303 72.1621 10.0918 71.8214C7.34097 71.1716 4.36932 70.0107 2.29988 68.0232C1.85824 67.5942 1.32826 66.957 1.26517 66.3261C1.20838 65.7519 1.833 65.3608 2.26834 65.1399C4.0854 64.2188 6.38197 64.5469 8.31891 64.7929C8.36307 64.7992 8.44509 64.6983 8.38831 64.673Z" fill="#A37254" fill-opacity="0.6"/>
<path d="M1.47977 65.0976C-0.785256 67.7223 3.80157 69.9242 5.68804 70.6624C7.15178 71.2366 8.69125 71.6403 10.237 71.9116C11.5115 72.1325 13.114 72.5552 14.256 71.7728C14.3065 71.7413 14.3948 71.634 14.357 71.5646C13.9405 70.8201 12.4579 71.0031 11.7197 70.8959C10.3316 70.7066 8.96885 70.3659 7.63759 69.9369C6.45145 69.552 5.29056 69.0599 4.19275 68.4542C3.64174 68.1513 3.11176 67.8106 2.60281 67.4321C2.33782 67.2365 2.10438 66.9967 1.87094 66.7633C1.37251 66.2522 1.22108 65.8737 1.55547 65.1292C1.58071 65.0661 1.51131 65.0598 1.47977 65.0976Z" fill="#A37254" fill-opacity="0.6"/>
<path d="M15.5952 71.4562C16.9075 71.6139 18.2325 69.7842 17.734 68.6107C17.4817 67.9987 16.6047 68.781 16.7876 69.2858C16.9643 69.759 17.0337 70.1312 16.6804 70.5413C16.3902 70.882 15.9611 71.1029 15.6078 71.3741C15.5826 71.3868 15.5447 71.4498 15.5952 71.4562Z" fill="#A37254" fill-opacity="0.6"/>
<path d="M11.6205 62.7938C11.4144 63.8958 11.2314 64.9999 11.0716 66.1062C11.0001 66.6235 10.9433 67.143 10.9012 67.6645C10.8634 68.163 10.7246 68.7245 10.9959 69.1598C11.0589 69.2545 11.1851 69.1283 11.2041 69.0589C11.3366 68.6172 11.2735 68.245 11.2608 67.7907C11.2419 67.1913 11.3113 66.592 11.3744 65.9989C11.488 64.9263 11.6899 63.8601 11.6646 62.7812C11.6646 62.7496 11.6205 62.7812 11.6205 62.7938Z" fill="#A37254" fill-opacity="0.6"/>
<path d="M12.0416 60.5678C11.8565 60.9337 11.7724 61.3186 11.7892 61.7224C11.7892 61.7792 11.8586 61.7224 11.8712 61.7034C12.0731 61.3438 12.1551 60.9463 12.1615 60.5425C12.1615 60.4668 12.0605 60.5426 12.0416 60.5678Z" fill="#A37254" fill-opacity="0.6"/>
<path d="M17.1011 44.5144C17.5869 43.4166 17.9907 42.3062 18.5585 41.2462C19.1958 40.0727 20.1674 39.2272 20.893 38.1357C20.9308 38.079 20.9119 38.0096 20.8299 38.0411C19.833 38.508 19.0948 39.6626 18.5522 40.5837C17.8519 41.7699 17.2147 43.1453 17.0317 44.5207C17.0254 44.5775 17.0885 44.5396 17.1011 44.5144Z" fill="#A37254" fill-opacity="0.6"/>
<path d="M18.6671 39.4874C19.0331 39.0394 19.5693 38.5725 19.6829 37.9858C19.6955 37.929 19.6451 37.91 19.6009 37.929C19.0331 38.194 18.5914 38.8627 18.5977 39.4937C18.5977 39.5378 18.6545 39.5 18.6671 39.4874Z" fill="#A37254" fill-opacity="0.6"/>
<path d="M18.0566 40.2698C17.8611 40.4969 17.7538 40.7241 17.779 41.0206C17.7853 41.0837 17.8674 41.0395 17.88 41.008C18.0251 40.7682 18.126 40.5537 18.1702 40.2698C18.1828 40.1815 18.0819 40.2319 18.0566 40.2698Z" fill="#A37254" fill-opacity="0.6"/>
<path d="M18.1482 9.8908C18.5394 9.60058 19.1577 9.46809 19.6182 9.32298C20.3375 9.09584 21.1135 9.03275 21.8643 9.02644C23.6814 9.00751 25.5048 9.405 27.2272 9.9539C28.8802 10.4776 30.5143 11.1905 31.9276 12.2C32.8677 12.8688 33.4544 13.7331 34.098 14.648C34.1737 14.7489 34.3567 14.5723 34.3882 14.5092C34.956 13.2284 33.7825 12.2 32.8425 11.4807C31.3282 10.3261 29.5112 9.56272 27.713 8.98858C25.8392 8.3892 23.8391 8.00433 21.8643 8.09266C20.3501 8.15576 18.9558 8.53431 18.0914 9.82771C18.0536 9.88449 18.0914 9.93497 18.1482 9.8908Z" fill="#A37254" fill-opacity="0.6"/>
<path d="M17.0265 16.4136C15.8593 19.5493 14.812 22.7229 14.2 26.0226C13.8719 27.7577 13.6574 29.5306 13.7709 31.2971C13.853 32.477 14.0485 34.559 15.241 35.1584C15.3293 35.2089 15.4744 35.0511 15.4618 34.9628C15.4113 34.3067 15.14 33.7578 14.9382 33.1395C14.6795 32.3634 14.5722 31.5495 14.5028 30.7356C14.3577 29.0511 14.4902 27.3349 14.7552 25.6693C15.2599 22.5147 16.2316 19.4673 17.0896 16.401C17.1022 16.3568 17.0328 16.3884 17.0265 16.4136Z" fill="#A37254" fill-opacity="0.6"/>
<path d="M18.5332 12.1501C18.3124 12.7116 18.0537 13.2668 17.9906 13.8788C17.9843 13.923 18.0537 13.8788 18.06 13.8599C18.325 13.3089 18.5164 12.7348 18.6342 12.1375C18.6531 12.0555 18.5459 12.1059 18.5332 12.1501Z" fill="#A37254" fill-opacity="0.6"/>
<path d="M31.6837 18.2758C30.977 20.7301 30.3651 23.2033 29.5701 25.6324C29.1663 26.869 28.6994 28.0825 28.1694 29.2728C27.8918 29.8743 27.5932 30.4653 27.2735 31.0457C27.059 31.4558 26.7562 31.847 26.7246 32.3202C26.7246 32.3643 26.7814 32.3517 26.8066 32.3328C27.5953 31.6703 27.9802 30.459 28.3713 29.5315C28.8424 28.4042 29.2736 27.2602 29.6647 26.0993C30.5228 23.5377 31.16 20.8941 31.7531 18.2632C31.7594 18.2127 31.69 18.2505 31.6837 18.2758Z" fill="#A37254" fill-opacity="0.6"/>
<path d="M25.8659 33.519C25.5841 33.8345 25.3086 34.1542 25.0394 34.478C24.9952 34.5285 25.0141 34.5916 25.0836 34.5474C25.4747 34.3035 25.7523 33.967 25.9164 33.538C25.929 33.5001 25.8911 33.4938 25.8659 33.519Z" fill="#A37254" fill-opacity="0.6"/>
<path d="M31.9896 16.3264C31.9328 16.4904 31.876 16.6545 31.8697 16.8248C31.8634 16.8627 31.9139 16.8248 31.9202 16.8122C32.0001 16.6482 32.0548 16.4778 32.0842 16.3012C32.1031 16.2255 32.0085 16.2885 31.9896 16.3264Z" fill="#A37254" fill-opacity="0.6"/>
<path d="M15.4313 28.5039C15.2231 29.5954 14.8635 31.2863 15.5449 32.2642C15.5764 32.3147 15.6521 32.2137 15.6584 32.1822C15.7278 31.5449 15.5827 30.8951 15.5449 30.2515C15.5154 29.6627 15.4965 29.0738 15.4881 28.4849C15.4881 28.4471 15.4376 28.4849 15.4313 28.5039Z" fill="#A37254" fill-opacity="0.6"/>
<path d="M15.8484 32.9147C15.8295 33.2302 15.9115 33.4321 16.044 33.7034C16.0629 33.7476 16.126 33.6908 16.1197 33.6593C16.1197 33.3564 16.0755 33.1356 15.9178 32.8769C15.8926 32.839 15.8484 32.8895 15.8484 32.9147Z" fill="#A37254" fill-opacity="0.6"/>
<path d="M15.7765 25.7662C15.5936 26.1637 15.4422 26.6432 15.5873 27.0722C15.6062 27.1227 15.6756 27.0533 15.6819 27.028C15.7955 26.6116 15.8396 26.1763 15.8649 25.7472C15.8712 25.6905 15.7892 25.7472 15.7765 25.7662Z" fill="#A37254" fill-opacity="0.6"/>
<path d="M24.1504 35.3476C23.5384 35.7136 22.8822 35.9344 22.2198 36.1805C21.9296 36.2877 21.7971 36.8619 22.2261 36.6915C22.958 36.395 23.6394 36.0038 24.1756 35.4107C24.1946 35.3855 24.2009 35.3224 24.1504 35.3476Z" fill="#A37254" fill-opacity="0.6"/>
<path d="M32.4038 14.2174C32.1892 14.4319 31.9937 14.8925 32.2082 15.1638C32.2271 15.189 32.2776 15.1574 32.2965 15.1385C32.4858 14.9429 32.7508 14.4445 32.5173 14.1858C32.4858 14.1543 32.429 14.1921 32.4038 14.2174Z" fill="#A37254" fill-opacity="0.6"/>
<path d="M19.108 10.6291C19.0533 10.7931 18.9902 10.9509 18.9187 11.1023C18.8998 11.1402 18.9439 11.1275 18.9566 11.1149C19.0701 10.9572 19.1269 10.7995 19.1711 10.6102C19.1774 10.566 19.1206 10.6039 19.108 10.6291Z" fill="#A37254" fill-opacity="0.6"/>
<path d="M16.8561 21.4302C16.4901 22.3577 16.3198 23.3672 15.9917 24.3199C15.9349 24.4902 16.2252 24.3893 16.2567 24.2505C16.4586 23.3104 16.7551 22.3703 16.9066 21.4239C16.9129 21.3861 16.8687 21.4113 16.8561 21.4302Z" fill="#A37254" fill-opacity="0.6"/>
<path d="M17.5116 19.432C17.3539 19.6591 17.2151 19.8926 17.3286 20.1576C17.3476 20.1954 17.398 20.1513 17.4106 20.1386C17.5999 19.9115 17.7009 19.697 17.6441 19.4005C17.6315 19.3311 17.5305 19.4131 17.5116 19.432Z" fill="#A37254" fill-opacity="0.6"/>
<path d="M4.17462 65.16C3.99165 64.7373 3.24084 65.1095 2.99478 65.2673C2.61622 65.507 2.0547 66.1442 2.21874 66.6301C2.33231 66.9581 2.77396 66.5354 2.84336 66.4029C2.96324 66.1821 2.97586 65.9613 3.19037 65.7972C3.43013 65.6206 3.73927 65.6143 3.99164 65.4628C4.07997 65.4124 4.2314 65.2862 4.17462 65.16Z" fill="#A37254" fill-opacity="0.6"/>
<path d="M3.40509 66.4734C3.66377 66.3851 3.80887 66.2273 3.92244 65.9813C3.94347 65.9476 3.93927 65.9224 3.90983 65.9056C3.67639 65.792 3.48079 65.9813 3.34199 66.1516C3.28521 66.221 3.21581 66.5365 3.40509 66.4734Z" fill="#A37254" fill-opacity="0.6"/>
<path d="M23.4735 31.7393C23.4861 31.4996 23.1959 31.4428 23.0129 31.5438C22.7669 31.6889 22.565 31.8907 22.4577 32.162C22.3126 32.5532 22.4703 32.957 22.8426 33.1463C23.2212 33.3356 23.688 33.1905 23.9656 32.9002C24.1381 32.7194 24.2243 32.5028 24.2243 32.2504C24.2243 31.998 24.0603 31.7204 23.7953 31.7772C23.7511 31.7898 23.7133 31.834 23.707 31.8781C23.688 32.08 23.8458 32.1431 23.8584 32.345C23.871 32.4712 23.789 32.6479 23.6754 32.7047C23.5051 32.7867 23.2779 32.6542 23.1518 32.5532C22.9877 32.4397 22.8994 32.2441 22.9814 32.0548C23.0445 31.9097 23.4672 31.8908 23.4735 31.7393Z" fill="#A37254" fill-opacity="0.6"/>
<path d="M24.2758 30.5667C23.7711 30.5667 23.8594 31.715 24.5093 31.4878C24.7616 31.3995 24.9572 31.1913 25.0456 30.9452C25.0771 30.8506 25.0645 30.7181 24.9951 30.6361C24.8815 30.4847 24.7616 30.5099 24.6102 30.5856C24.5787 30.5982 24.5471 30.6361 24.5471 30.6676C24.5597 30.8317 24.6228 30.8127 24.6922 30.9389C24.7427 31.0335 24.6544 31.1219 24.585 31.1597C24.2821 31.3301 24.1623 30.7875 24.2821 30.6108C24.2947 30.5982 24.3011 30.5667 24.2758 30.5667Z" fill="#A37254" fill-opacity="0.6"/>
<path d="M20.6295 14.9203C19.7904 14.9645 19.6453 16.3651 20.5664 16.4282C20.9386 16.4534 21.2667 16.22 21.4497 15.9108C21.6137 15.6459 21.6831 15.1916 21.3803 14.996C21.2289 14.9014 20.926 15.179 21.0648 15.3178C21.1973 15.4503 21.273 15.5386 21.2289 15.7468C21.1847 15.9235 21.027 16.056 20.8566 16.1001C20.6232 16.1695 20.3961 15.9992 20.2572 15.8351C19.9733 15.4944 20.3267 15.1664 20.6106 15.0023C20.6232 14.9897 20.6863 14.914 20.6295 14.9203Z" fill="#A37254" fill-opacity="0.6"/>
<path d="M31.9838 5.27861C32.1731 4.41424 32.274 3.4994 32.5138 2.64765C32.5769 2.44575 32.2614 2.5467 32.192 2.59718C32.2551 2.55932 32.2593 2.54039 32.2046 2.54039C32.0721 2.50254 31.8955 2.59717 31.8576 2.72966L31.8513 2.75491C31.8513 2.6834 31.8429 2.6119 31.8261 2.54039C31.8135 2.47099 31.7378 2.48361 31.6873 2.49623C31.6326 2.51726 31.5969 2.5467 31.58 2.58455C31.58 2.58455 31.5779 2.58455 31.5737 2.58455C31.3781 2.99466 31.3087 3.44892 31.2141 3.89688C30.9912 4.95684 30.7598 6.01469 30.5201 7.07043C30.049 9.14828 29.5337 11.2156 28.9743 13.2724C28.1289 16.3703 27.2077 19.4618 26.0847 22.4776C25.8659 23.0497 25.643 23.6238 25.4159 24.2001C25.2266 24.6754 25.031 25.1485 24.8291 25.6196C24.8165 25.6386 24.8481 25.6323 24.8544 25.626C24.8838 25.5587 24.9133 25.4956 24.9427 25.4367C24.9133 25.5082 24.8838 25.5797 24.8544 25.6512C24.8291 25.7143 24.949 25.6827 24.9679 25.6449C26.8481 22.0549 28.1667 18.1684 29.397 14.3198C30.0322 12.3176 30.6399 10.3071 31.2204 8.28812C31.5064 7.29546 31.7609 6.2923 31.9838 5.27861ZM30.2299 10.3197C30.0153 11.039 29.7966 11.7582 29.5737 12.4775C29.683 12.0695 29.7903 11.6636 29.8955 11.2598C30.0048 10.9443 30.1163 10.631 30.2299 10.3197Z" fill="#A37254" fill-opacity="0.6"/>
<path d="M49.3176 3.92776C50.5669 8.40103 51.2167 12.9248 51.406 17.5557C51.5826 21.7703 51.4754 25.9723 50.7624 30.1364C50.2829 32.9693 49.488 36.5151 47.1031 38.3952C44.2702 40.6287 40.2638 38.9946 38.0682 36.6665C35.0903 33.4992 34.7874 28.843 34.6107 24.7168C34.3962 19.8586 34.9073 14.9753 35.7906 10.1992C36.0135 9.02985 36.2596 7.86474 36.5288 6.70383C36.6634 6.11918 36.8043 5.53873 36.9515 4.96248C37.023 4.67226 37.0966 4.38203 37.1723 4.0918C37.1723 4.10442 37.4878 3.341 37.2859 3.58075C37.7275 3.05709 39.084 3.0634 39.6897 3.01292C42.2008 2.80472 44.7813 3.02554 47.2734 3.38517C47.6772 3.44826 49.0779 3.46719 49.2735 3.95931C49.3176 4.07919 49.5384 3.90253 49.4943 3.80158C49.2924 3.28422 48.5731 3.05709 48.0936 2.88043C47.04 2.48294 45.8601 2.38199 44.7497 2.28735C42.5478 2.10439 39.9231 1.89618 37.7969 2.65329C36.6928 3.04447 36.5603 3.77634 36.2827 4.85523C35.6644 7.25695 35.1512 9.6839 34.7432 12.1361C33.9735 16.7671 33.6202 21.4864 33.9041 26.1805C34.1439 30.149 34.7243 34.3258 37.0966 37.6381C38.1124 39.0577 39.5193 40.2375 41.2102 40.7296C42.7875 41.1839 44.4721 41.0199 45.9863 40.4142C48.9454 39.2217 50.5542 36.0671 51.4628 33.1964C52.5606 29.7326 52.9328 25.9218 52.9959 22.3066C53.0527 19.1709 52.712 15.928 51.936 12.8869C51.1599 9.83322 50.5227 6.80478 49.4564 3.83312C49.4249 3.75741 49.2987 3.86467 49.3176 3.92776Z" fill="#A37254" fill-opacity="0.6"/>
<path d="M37.8018 37.6277C38.0479 37.8927 38.1488 38.2587 38.3192 38.5804C38.5274 38.9779 38.6725 39.4385 38.8113 39.8612C39.1731 40.8959 39.4801 41.9454 39.7325 43.0095C40.3697 45.773 40.6473 48.6437 40.8555 51.4639C41.2909 57.3252 41.0889 63.5525 39.5684 69.2497C39.3476 70.0699 39.0826 70.8838 38.7419 71.6599C38.4769 72.2529 39.2845 72.0573 39.4549 71.6662C40.4265 69.4832 40.8744 67.0856 41.2404 64.7386C41.7073 61.6912 41.947 58.5934 42.0543 55.5145C42.1615 52.4103 42.13 49.2494 41.7451 46.1642C41.4549 43.8297 41.07 41.2934 39.9091 39.2114C39.682 38.8076 39.3981 38.3912 39.0448 38.082C38.6978 37.7792 38.3823 37.6341 37.9848 37.4132C37.8965 37.3691 37.7324 37.5457 37.8018 37.6277Z" fill="#A37254" fill-opacity="0.6"/>
<path d="M48.9707 37.5431C47.9549 38.3696 47.1284 39.1836 46.4155 40.3003C45.6394 41.5117 45.1031 42.8997 44.6299 44.2499C43.5826 47.272 43.2103 50.4834 42.9958 53.6507C42.775 56.8936 42.9012 60.1681 43.1725 63.3985C43.3933 66.0105 43.7466 68.6478 44.4217 71.1841C44.4932 71.4575 44.571 71.7288 44.6552 71.998C44.7813 72.4144 45.5574 71.8087 45.4438 71.4364C43.7908 66.0547 43.6331 60.0987 44.0179 54.5277C44.2388 51.2973 44.7309 48.0859 45.6205 44.9691C46.018 43.5685 46.5227 42.2057 47.1726 40.906C47.7152 39.8271 48.3082 38.5842 49.0843 37.6567C49.1663 37.5621 49.0716 37.4674 48.9707 37.5431Z" fill="#A37254" fill-opacity="0.6"/>
<path d="M40.1184 69.0621C37.6073 68.7025 33.2413 69.6615 32.5915 72.6142C31.9543 75.5417 36.377 76.4692 38.4086 76.8099C41.3172 77.2957 44.5097 77.3462 47.3299 76.3872C49.1154 75.7815 52.0808 74.0149 51.3489 71.6678C50.983 70.5069 49.3552 69.9013 48.3394 69.5416C47.0586 69.0937 45.4687 68.6646 44.169 69.2135C44.1248 69.2325 43.986 69.3713 44.068 69.4218C44.5097 69.7057 45.0207 69.7814 45.5255 69.9139C46.3078 70.1095 47.0838 70.2609 47.8473 70.5259C48.8441 70.8792 50.6612 71.6426 50.352 72.9802C50.1123 73.9959 49.1091 74.5007 48.2195 74.8414C46.9324 75.3398 45.4939 75.4786 44.1248 75.5543C41.2919 75.7184 38.2193 75.4029 35.6262 74.1915C34.5347 73.6805 33.1656 72.6899 34.0489 71.4281C35.0773 69.958 37.3991 69.6047 39.008 69.3397C39.3613 69.2808 39.7167 69.2283 40.0743 69.182C40.1184 69.1757 40.1878 69.0747 40.1184 69.0621Z" fill="#A37254" fill-opacity="0.6"/>
<path d="M33.5505 71.3188C32.989 72.4039 33.5001 73.6343 34.5032 74.2273C35.7588 74.9781 37.2288 75.2431 38.661 75.4324C40.2888 75.6469 41.9482 75.6217 43.5823 75.4829C44.8757 75.3756 46.7495 75.3567 47.6706 74.3094C47.7148 74.2589 47.7779 74.1705 47.7211 74.1075C47.4625 73.8235 47.0776 73.8803 46.7243 73.9434C46.0239 74.0696 45.3299 74.1958 44.617 74.2778C43.2352 74.4292 41.8346 74.4482 40.4466 74.3661C39.0838 74.2841 37.7273 74.0696 36.4213 73.6658C35.803 73.4765 35.2099 73.2809 34.642 72.9592C33.8723 72.5238 33.5442 72.221 33.6515 71.2935C33.6578 71.2304 33.5632 71.2998 33.5505 71.3188Z" fill="#A37254" fill-opacity="0.6"/>
<path d="M48.8634 73.6584C49.4628 73.5259 49.9865 72.9391 50.2578 72.4154C50.4407 72.0558 50.5101 71.7214 50.5543 71.3302C50.5858 71.04 50.4723 70.4533 50.1505 70.3397C49.6458 70.1504 49.0211 70.7246 49.3871 71.2356C49.7025 71.6646 49.835 72.0306 49.6205 72.5479C49.4502 72.9454 49.0969 73.2546 48.8382 73.5953C48.8193 73.6205 48.8193 73.6647 48.8634 73.6584Z" fill="#A37254" fill-opacity="0.6"/>
<path d="M42.7188 66.3778C42.7945 67.4883 42.9207 68.5987 43.0595 69.7028C43.1183 70.1739 43.192 70.6429 43.2803 71.1098C43.3749 71.6271 43.3812 72.3275 43.8103 72.6682C43.8923 72.7313 43.9995 72.5988 44.0122 72.523C44.0563 72.0246 43.8292 71.6145 43.6904 71.135C43.5137 70.5293 43.4191 69.8984 43.3181 69.2864C43.1604 68.2958 43.0658 67.3053 42.7692 66.3463C42.7629 66.3211 42.7188 66.3589 42.7188 66.3778Z" fill="#A37254" fill-opacity="0.6"/>
<path d="M42.5294 64.12C42.4347 64.5175 42.4473 64.915 42.5925 65.2935C42.6114 65.344 42.6745 65.2746 42.6808 65.2557C42.7859 64.8561 42.7754 64.4586 42.6492 64.0632C42.6303 64.0001 42.542 64.0884 42.5294 64.12Z" fill="#A37254" fill-opacity="0.6"/>
<path d="M43.1321 47.2932C43.334 46.0692 43.4286 44.8452 43.7126 43.6339C43.8724 42.9777 44.089 42.3405 44.3624 41.7222C44.5959 41.1796 44.9303 40.6874 45.0943 40.1133C45.1195 40.025 45.0123 40.0628 44.9744 40.0944C44.1037 40.8767 43.7252 42.1449 43.416 43.2427C43.0627 44.5108 42.8482 46.0124 43.0564 47.3248C43.0627 47.3689 43.1258 47.3248 43.1321 47.2932Z" fill="#A37254" fill-opacity="0.6"/>
<path d="M43.2946 42.0331C43.5469 41.522 43.9886 40.8848 43.8813 40.298C43.8687 40.2412 43.7804 40.298 43.7552 40.317C43.2946 40.746 43.0107 41.44 43.2252 42.0583C43.2378 42.0962 43.2883 42.052 43.2946 42.0331Z" fill="#A37254" fill-opacity="0.6"/>
<path d="M42.9016 42.9513C42.7691 43.2352 42.7249 43.4624 42.8385 43.7463C42.8637 43.8094 42.9457 43.721 42.952 43.6958C43.0404 43.4182 43.0782 43.1974 43.0277 42.9072C43.0151 42.8441 42.9142 42.9324 42.9016 42.9513Z" fill="#A37254" fill-opacity="0.6"/>
<path d="M34.9202 13.6269C35.671 12.6616 37.1662 12.0685 38.2956 11.7467C40.018 11.2672 41.8477 11.1663 43.6269 11.2357C45.3367 11.2988 47.0718 11.5575 48.6869 12.1316C49.8037 12.5291 50.605 13.2231 51.5009 13.9424C51.6081 14.0307 51.7785 13.8667 51.7974 13.7594C52.0813 12.3777 50.5293 11.6963 49.4567 11.2735C47.7153 10.5921 45.7721 10.3524 43.9172 10.2767C41.9739 10.201 39.9676 10.3713 38.1063 10.9518C37.3051 11.2041 36.5416 11.5575 35.8602 12.0496C35.2735 12.4786 35.0148 12.9644 34.8129 13.6269C34.794 13.7026 34.8949 13.6584 34.9202 13.6269Z" fill="#A37254" fill-opacity="0.6"/>
<path d="M35.5499 20.2463C35.2408 23.6028 35.0704 26.972 35.3669 30.3348C35.5184 32.0446 35.7707 33.7418 36.3196 35.3696C36.7108 36.5242 37.4805 38.4422 38.7992 38.7577C38.9064 38.7829 39.0515 38.6504 39.02 38.5368C38.8118 37.8744 38.3323 37.3949 37.9727 36.8144C37.5499 36.152 37.2471 35.4201 36.9758 34.6819C36.3701 33.073 36.0547 31.3632 35.8654 29.6597C35.5184 26.524 35.6319 23.3631 35.6193 20.2148C35.6193 20.1643 35.5499 20.2148 35.5499 20.2463Z" fill="#A37254" fill-opacity="0.6"/>
<path d="M35.8625 15.7306C35.7994 16.33 35.6922 16.9293 35.812 17.5287C35.8183 17.5666 35.8814 17.5098 35.8814 17.4909C35.9992 16.8894 36.0308 16.2858 35.9761 15.6801C35.9698 15.5981 35.8688 15.6864 35.8625 15.7306Z" fill="#A37254" fill-opacity="0.6"/>
<path d="M50.1749 18.1193C50.1307 20.6241 50.2064 23.1289 50.0929 25.6273C50.034 27.0112 49.8994 28.3866 49.6891 29.7536C49.5944 30.3467 49.4619 30.9397 49.3294 31.5265C49.2222 31.9997 49.0014 32.4918 49.1402 32.9713C49.1528 33.0218 49.2285 32.965 49.2474 32.9461C49.872 32.0502 49.9036 30.7252 50.0361 29.6653C50.1833 28.4791 50.2864 27.2888 50.3452 26.0942C50.4777 23.4317 50.3894 20.7503 50.2443 18.0878C50.238 18.0436 50.1749 18.0941 50.1749 18.1193Z" fill="#A37254" fill-opacity="0.6"/>
<path d="M48.6368 34.3758C48.4391 34.7502 48.254 35.1329 48.0816 35.5241C48.0563 35.5872 48.1257 35.5935 48.1636 35.5556C48.4727 35.2023 48.6746 34.8301 48.6999 34.3569C48.6999 34.3127 48.6431 34.3569 48.6368 34.3758Z" fill="#A37254" fill-opacity="0.6"/>
<path d="M49.9467 16.1567C49.9278 16.3271 49.9215 16.5037 49.9593 16.6741C49.9719 16.6993 50.0161 16.6615 50.0161 16.6425C50.0539 16.4659 50.0624 16.2871 50.0413 16.1063C50.035 16.0432 49.9467 16.1189 49.9467 16.1567Z" fill="#A37254" fill-opacity="0.6"/>
<path d="M37.2422 32.3082C37.3116 33.3997 37.4189 35.1663 38.34 35.8919C38.3842 35.9297 38.4599 35.8603 38.4536 35.8098C38.3905 35.2105 38.0813 34.6553 37.8794 34.0874C37.6712 33.488 37.4883 32.8824 37.299 32.2767C37.2864 32.2451 37.2422 32.2893 37.2422 32.3082Z" fill="#A37254" fill-opacity="0.6"/>
<path d="M38.819 36.4418C38.8694 36.7573 39.0146 36.934 39.2165 37.1611C39.248 37.1927 39.2985 37.1296 39.2922 37.098C39.2101 36.8015 39.1092 36.5996 38.8821 36.3977C38.8568 36.3788 38.8127 36.4166 38.819 36.4418Z" fill="#A37254" fill-opacity="0.6"/>
<path d="M36.8436 29.5816C36.7553 30.017 36.7426 30.5091 37.0139 30.8877C37.0392 30.9255 37.096 30.8498 37.096 30.8246C37.1149 30.3892 37.0329 29.9602 36.9319 29.5375C36.9193 29.487 36.8499 29.5564 36.8436 29.5816Z" fill="#A37254" fill-opacity="0.6"/>
<path d="M47.4658 36.5947C46.9736 37.1247 46.3932 37.5222 45.8064 37.9449C45.6929 38.0269 45.5477 38.2036 45.6045 38.355C45.6613 38.5127 45.8758 38.437 45.9642 38.3676C46.6014 37.8881 47.1755 37.3455 47.5289 36.6199C47.5541 36.5695 47.491 36.5695 47.4658 36.5947Z" fill="#A37254" fill-opacity="0.6"/>
<path d="M49.7859 14.0254C49.6218 14.3031 49.5461 14.751 49.8363 14.9718C49.8805 14.9971 49.931 14.9466 49.9499 14.915C50.095 14.6627 50.2086 14.1769 49.9121 13.975C49.8679 13.9497 49.8111 13.9876 49.7859 14.0254Z" fill="#A37254" fill-opacity="0.6"/>
<path d="M36.0164 14.0995C36.008 14.272 35.989 14.4444 35.9596 14.6169C35.9533 14.6484 35.9975 14.6295 36.0038 14.6105C36.0795 14.4276 36.0858 14.2699 36.0795 14.0743C36.0795 14.0301 36.0227 14.0806 36.0164 14.0995Z" fill="#A37254" fill-opacity="0.6"/>
<path d="M36.7289 25.1174C36.6027 26.108 36.7163 27.1301 36.6469 28.1269C36.6343 28.2847 36.9308 28.1333 36.9182 27.9945C36.8614 27.0418 36.8992 26.0449 36.7794 25.0922C36.7731 25.0606 36.7289 25.0985 36.7289 25.1174Z" fill="#A37254" fill-opacity="0.6"/>
<path d="M36.8236 23.0203C36.7164 23.2916 36.647 23.5251 36.8426 23.7522C36.8678 23.7838 36.9183 23.7333 36.9246 23.7144C37.0571 23.4557 37.1202 23.2349 36.9687 22.9636C36.9309 22.9005 36.8362 22.9762 36.8236 23.0203Z" fill="#A37254" fill-opacity="0.6"/>
<path d="M36.2009 70.6556C35.9233 70.3464 35.2797 70.8575 35.0841 71.0594C34.7687 71.3748 34.3964 72.031 34.5983 72.4916C34.6299 72.5547 34.6929 72.6051 34.7687 72.5988C34.9579 72.5799 35.0778 72.4979 35.1914 72.3402C35.3302 72.1509 35.286 71.9174 35.3365 71.7029C35.4248 71.2928 35.8602 71.1729 36.1378 70.9206C36.2009 70.8638 36.2703 70.7376 36.2009 70.6556Z" fill="#A37254" fill-opacity="0.6"/>
<path d="M35.8479 72.0515C36.0372 71.8874 36.1823 71.7423 36.1697 71.4836C36.1697 71.4542 36.155 71.4395 36.1256 71.4395C35.8858 71.4458 35.3306 71.9253 35.6902 72.1082C35.747 72.1398 35.8164 72.083 35.8479 72.0515Z" fill="#A37254" fill-opacity="0.6"/>
<path d="M45.8643 33.2848C45.8769 32.963 45.3722 33.2091 45.2775 33.3163C45.0883 33.5308 44.9621 33.7706 44.9558 34.0608C44.9368 34.4772 45.3091 34.7485 45.6813 34.7864C46.1104 34.8305 46.5268 34.5466 46.7097 34.1807C46.8801 33.8337 46.6845 33.0008 46.1798 33.2469C46.1419 33.2679 46.1188 33.2995 46.1104 33.3416C46.1104 33.3668 46.1083 33.392 46.1041 33.4173C46.1041 33.4425 46.1125 33.4635 46.1293 33.4803C46.3249 33.6128 46.5268 34.004 46.2933 34.1996C46.1545 34.3132 45.9211 34.2375 45.776 34.1744C45.5867 34.0987 45.4731 33.9094 45.5047 33.7012C45.5362 33.493 45.858 33.4614 45.8643 33.2848Z" fill="#A37254" fill-opacity="0.6"/>
<path d="M46.3221 31.9409C45.9814 31.9914 46.0823 32.4898 46.2211 32.6791C46.3789 32.9062 46.6312 32.8557 46.8331 32.7169C47.035 32.5781 47.1928 32.3131 47.1865 32.0671C47.1738 31.7516 46.8457 31.7201 46.6438 31.8778C46.6144 31.8988 46.6018 31.9262 46.606 31.9598C46.606 31.9766 46.6081 31.9934 46.6123 32.0103C46.6123 32.0481 46.6291 32.0755 46.6628 32.0923C46.852 32.1806 46.8899 32.3257 46.7322 32.4835C46.4987 32.7106 46.3536 32.0481 46.3473 31.9598C46.3473 31.943 46.3389 31.9367 46.3221 31.9409Z" fill="#A37254" fill-opacity="0.6"/>
<path d="M38.6236 17.8398C38.2829 17.966 38.081 18.3698 38.1252 18.7168C38.1693 19.1332 38.6236 19.3351 38.9895 19.2783C39.3492 19.2215 39.6078 18.8682 39.7088 18.5465C39.8034 18.2625 39.7214 17.802 39.387 17.7262C39.2293 17.6884 38.9517 17.9597 39.1346 18.0733C39.3176 18.1931 39.4122 18.2752 39.4059 18.5149C39.3996 18.7168 39.2608 18.9124 39.0652 18.9692C38.8066 19.0512 38.4974 18.8619 38.3838 18.6285C38.245 18.3509 38.4659 18.0859 38.6425 17.9029C38.6741 17.8714 38.6741 17.8209 38.6236 17.8398Z" fill="#A37254" fill-opacity="0.6"/>
<path d="M47.0033 5.51253C46.9528 4.62924 46.8077 3.7207 46.814 2.83741C46.814 2.62289 46.5427 2.80587 46.4859 2.87527C46.5406 2.82059 46.5406 2.79956 46.4859 2.81217C46.3534 2.81217 46.202 2.95098 46.202 3.08978V3.11502C46.181 3.04351 46.1557 2.97622 46.1263 2.91312C46.0947 2.85003 46.0253 2.88157 45.9748 2.90681C45.9748 2.90681 45.9748 2.90892 45.9748 2.91312C45.9286 2.94677 45.9012 2.98462 45.8928 3.02669C45.8108 3.47464 45.8676 3.92892 45.8928 4.38318C45.9643 5.46417 46.0232 6.54725 46.0695 7.63244C46.1704 9.75656 46.2272 11.8849 46.2398 14.0174C46.2461 17.2351 46.1831 20.4528 45.9118 23.6579C45.8487 24.272 45.7877 24.8862 45.7288 25.5003C45.6699 26.0092 45.6047 26.5181 45.5332 27.0271C45.5332 27.046 45.5584 27.0334 45.5647 27.0208C45.5732 26.9535 45.5816 26.8841 45.59 26.8126C45.5858 26.8925 45.5795 26.9724 45.5711 27.0523C45.5647 27.1154 45.672 27.0523 45.6783 27.0082C46.5364 23.0523 46.7635 18.9512 46.9275 14.9133C47.0033 12.8144 47.0516 10.7156 47.0727 8.61669C47.0811 7.58197 47.0579 6.54725 47.0033 5.51253ZM46.6562 10.8375C46.6436 11.5862 46.6268 12.337 46.6058 13.0899C46.6016 12.6693 46.5953 12.2508 46.5868 11.8344C46.6079 11.5021 46.631 11.1698 46.6562 10.8375Z" fill="#A37254" fill-opacity="0.6"/>
</svg>
