<svg width="131" height="32" viewBox="0 0 131 32" fill="none" xmlns="http://www.w3.org/2000/svg">
<path d="M79.0019 10.2974C75.6719 5.03738 68.9619 6.78741 66.3119 11.4774C64.5719 9.17741 61.9419 6.7774 58.9319 6.9074C56.0619 7.0174 53.9519 9.37739 53.4619 12.0874C52.1619 19.2874 60.4819 25.5574 66.4519 27.3874C66.6919 27.4574 66.9119 27.3674 67.0619 27.2174C67.2519 27.5574 67.6819 27.7774 68.0919 27.5374C72.9219 24.6874 83.1819 16.8874 79.0019 10.2974ZM76.6519 17.5274C74.0219 20.9974 70.3719 23.4374 67.2019 26.3474C67.1552 26.2674 67.0786 26.2007 66.9719 26.1474C63.0319 24.4374 59.2319 22.0174 56.8819 18.3274C55.2019 15.7074 54.3919 12.8774 56.3719 10.2674C59.4719 6.19738 63.3119 10.4374 65.7519 12.7674C65.7619 13.2874 66.6119 13.5674 66.8919 13.0274C68.2919 10.4174 70.7119 8.4174 73.8119 8.7174C78.7119 9.2074 79.0319 14.3974 76.6519 17.5274Z" fill="#A37254"/>
<path d="M130.152 0.00752008C125.952 0.61752 119.592 3.45752 120.322 8.66752C120.296 8.70086 120.272 8.73085 120.252 8.75752C120.092 8.76419 119.936 8.83418 119.782 8.96751C119.089 9.60084 118.386 10.2175 117.672 10.8175C118.722 8.61752 119.032 6.09751 118.742 3.52751C118.682 2.99751 118.132 2.73752 117.712 3.09752C114.282 6.07752 112.252 10.4175 112.192 14.9575C110.106 16.3642 107.956 17.6342 105.742 18.7675C107.612 16.5275 108.822 13.7475 109.252 10.8675C109.332 10.3675 108.872 9.93752 108.382 10.1975C104.382 12.3275 101.332 16.2775 100.432 20.7275C100.412 20.8942 100.446 21.0275 100.532 21.1275C97.8323 22.2075 95.0523 23.0975 92.1923 23.7975C94.7523 21.6775 96.5623 18.6675 97.3423 15.4275C97.4723 14.8775 96.9223 14.5475 96.4523 14.7475C91.8523 16.7475 88.1223 20.3675 86.1623 24.9775C84.869 25.1709 83.5656 25.3308 82.2523 25.4575C81.4023 25.5375 81.3723 26.8275 82.2523 26.7975C83.359 26.7642 84.4623 26.6942 85.5623 26.5875C85.569 26.7275 85.6357 26.8575 85.7623 26.9775C89.7523 30.5075 94.9923 31.8375 100.172 30.5875C100.722 30.4475 100.692 29.7875 100.312 29.4975C97.7323 27.4975 94.7323 26.1875 91.5623 25.7275C94.8423 25.0609 98.039 24.1208 101.152 22.9075C105.072 25.6375 110.372 25.5475 114.572 23.5475C115.002 23.3375 114.902 22.7575 114.572 22.5275C112.232 20.9375 109.502 20.1875 106.782 20.3575C109.036 19.1908 111.206 17.8842 113.292 16.4375C117.822 17.0175 122.212 15.6575 125.792 12.8575C126.142 12.5775 125.942 11.9475 125.532 11.8575C123.132 11.3575 120.752 11.5375 118.562 12.2975C119.369 11.5908 120.156 10.8575 120.922 10.0975C121.132 9.88752 121.182 9.64751 121.142 9.43751C125.552 7.96751 128.632 4.9075 130.782 0.827497C131.032 0.367497 130.622 -0.0624799 130.152 0.00752008ZM95.7923 16.3975C94.6223 19.9075 92.2623 22.5675 89.0923 24.4875C88.5056 24.5942 87.919 24.6975 87.3323 24.7975C89.2923 21.1675 92.1223 18.2775 95.7923 16.3975ZM98.5423 29.6475C94.4323 30.1875 90.4323 29.0775 87.1823 26.4275C87.4423 26.3942 87.699 26.3608 87.9523 26.3275C91.8623 26.3875 95.4023 27.4175 98.5423 29.6475ZM101.392 20.7875C102.582 17.0675 104.682 14.1275 107.832 11.9675C107.042 15.3275 105.192 18.0675 102.542 20.2875C102.162 20.4542 101.779 20.6209 101.392 20.7875ZM112.992 22.9375C109.462 24.2575 106.002 23.8475 102.612 22.3175C102.786 22.2442 102.959 22.1675 103.132 22.0875C106.522 20.9675 109.932 21.1975 112.992 22.9375ZM113.152 14.2975C113.632 10.6042 115.169 7.42419 117.762 4.75752C118.142 7.66752 117.052 10.5375 115.212 12.7875C114.532 13.3075 113.846 13.8108 113.152 14.2975ZM123.852 12.7875C121.132 14.5575 118.102 15.3475 114.872 15.3275C117.502 13.2775 120.612 12.4175 123.852 12.7875ZM121.252 8.2975C122.092 4.0675 125.472 2.51751 129.292 1.40751C127.712 4.65751 124.622 7.0875 121.252 8.2975Z" fill="#A37254"/>
<path d="M0.0717384 0.827497C2.23174 4.9075 5.31175 7.96751 9.72175 9.43751C9.68175 9.64751 9.72174 9.88752 9.93174 10.0975C10.6984 10.8575 11.4884 11.5908 12.3017 12.2975C10.1017 11.5375 7.72174 11.3575 5.32174 11.8575C4.91174 11.9475 4.71174 12.5775 5.06174 12.8575C8.64174 15.6575 13.0317 17.0175 17.5617 16.4375C19.6484 17.8842 21.8184 19.1908 24.0717 20.3575C21.3517 20.1875 18.6217 20.9375 16.2817 22.5275C15.9517 22.7575 15.8517 23.3375 16.2817 23.5475C20.4817 25.5475 25.7817 25.6375 29.7017 22.9075C32.8151 24.1208 36.0117 25.0609 39.2917 25.7275C36.1217 26.1875 33.1317 27.4975 30.5417 29.4975C30.1617 29.7875 30.1317 30.4475 30.6817 30.5875C35.8717 31.8375 41.1017 30.5075 45.0917 26.9775C45.2184 26.8575 45.2851 26.7275 45.2917 26.5875C46.3917 26.6942 47.4984 26.7642 48.6117 26.7975C49.4817 26.8275 49.4517 25.5375 48.6117 25.4575C47.2917 25.3308 45.9851 25.1709 44.6917 24.9775C42.7317 20.3675 39.0017 16.7475 34.4017 14.7475C33.9317 14.5475 33.3818 14.8775 33.5218 15.4275C34.3018 18.6675 36.1118 21.6775 38.6618 23.7975C35.8018 23.0975 33.0217 22.2075 30.3217 21.1275C30.4151 21.0275 30.4484 20.8942 30.4217 20.7275C29.5217 16.2775 26.4817 12.3275 22.4717 10.1975C21.9817 9.93752 21.5218 10.3675 21.6018 10.8675C22.0318 13.7475 23.2517 16.5275 25.1117 18.7675C22.8984 17.6342 20.7517 16.3642 18.6717 14.9575C18.6017 10.4175 16.5717 6.07752 13.1417 3.09752C12.7317 2.73752 12.1717 2.99751 12.1117 3.52751C11.8217 6.09751 12.1417 8.61752 13.1817 10.8175C12.4684 10.2175 11.7651 9.60084 11.0717 8.96751C10.9184 8.83418 10.7618 8.76419 10.6018 8.75752C10.5818 8.73085 10.5584 8.70086 10.5317 8.66752C11.2717 3.45752 4.90174 0.61752 0.711738 0.00752008C0.231738 -0.0624799 -0.168262 0.367497 0.0717384 0.827497ZM43.5218 24.7975C42.9351 24.6975 42.3518 24.5942 41.7718 24.4875C38.5918 22.5675 36.2317 19.9075 35.0617 16.3975C38.7317 18.2775 41.5618 21.1675 43.5218 24.7975ZM42.9017 26.3275C43.1617 26.3608 43.4184 26.3942 43.6717 26.4275C40.4217 29.0775 36.4217 30.1875 32.3117 29.6475C35.4517 27.4175 38.9917 26.3875 42.9017 26.3275ZM28.3117 20.2875C25.6617 18.0675 23.8118 15.3275 23.0218 11.9675C26.1718 14.1275 28.2817 17.0675 29.4617 20.7875C29.0751 20.6209 28.6917 20.4542 28.3117 20.2875ZM27.7217 22.0875C27.8951 22.1675 28.0684 22.2442 28.2418 22.3175C24.8518 23.8475 21.3917 24.2575 17.8717 22.9375C20.9217 21.1975 24.3417 20.9675 27.7217 22.0875ZM15.6517 12.7875C13.8017 10.5375 12.7118 7.66752 13.1018 4.75752C15.6951 7.42419 17.2284 10.6042 17.7017 14.2975C17.0084 13.8108 16.3251 13.3075 15.6517 12.7875ZM15.9817 15.3275C12.7617 15.3475 9.73175 14.5575 7.00175 12.7875C10.2417 12.4175 13.3517 13.2775 15.9817 15.3275ZM1.56174 1.40751C5.38174 2.51751 8.76175 4.0675 9.60175 8.2975C6.23175 7.0875 3.15174 4.65751 1.56174 1.40751Z" fill="#A37254"/>
</svg>
