<svg width="31" height="26" viewBox="0 0 31 26" fill="none" xmlns="http://www.w3.org/2000/svg">
<path d="M29.6307 3.45259C28.013 0.519171 24.8208 -0.796553 21.6645 0.497601C18.1056 1.95712 16.4807 5.67422 15.6467 9.22595C14.8127 5.63827 13.1015 2.15124 9.4563 0.734864C6.53726 -0.401116 3.36659 0.339426 1.54758 2.98525C-4.23297 11.3973 7.60136 21.5492 13.7126 25.5826C13.8229 25.6449 13.9283 25.6545 14.029 25.6114C14.2087 25.9062 14.6401 26.0931 14.9924 25.7983C20.4926 21.1897 34.6851 12.6051 29.6307 3.45259ZM28.164 11.692C25.3169 17.07 18.7167 21.1178 14.1656 24.9284C9.42036 20.8374 1.65542 15.1287 1.29594 8.26253C1.0443 3.52449 5.17121 -0.235752 9.78702 2.09372C13.3388 3.89116 14.4532 7.93899 14.9996 11.5626C15.1002 12.2385 16.1356 11.9509 16.0349 11.275C16.0205 11.1696 16.0038 11.0665 15.9846 10.9659C16.0038 10.9371 16.0205 10.906 16.0349 10.8724C17.1853 7.68016 18.0768 3.89835 21.2115 2.01464C24.4182 0.0877858 28.1281 1.78457 29.1562 5.25721C29.8033 7.45009 29.1994 9.74361 28.164 11.692Z" fill="white"/>
</svg>
