<svg width="69" height="66" viewBox="0 0 69 66" fill="none" xmlns="http://www.w3.org/2000/svg">
<path d="M48.3944 47.7173C46.4069 47.94 44.7193 48.3683 43.1859 49.7476C41.3098 51.4352 40.1276 53.7225 40.1019 56.2668C40.0762 58.4085 41.6096 59.9076 43.5971 60.3874C45.5931 60.8671 48.0346 60.019 49.8508 59.1623C52.6092 57.8688 55.085 54.9047 54.9136 51.7093C54.8451 50.4243 54.2283 49.1736 53.2089 48.3769C52.6692 47.9571 51.9924 47.6316 51.3414 47.426C50.2534 47.0748 49.431 47.2718 48.3944 47.6402C48.3088 47.6659 48.0004 47.9486 48.2145 48.0085C48.857 48.197 49.3453 48.3769 50.0307 48.4454C50.6475 48.5054 51.3071 48.6253 51.8725 48.8995C52.8491 49.3621 53.5516 50.3986 53.7058 51.4523C54.0741 53.791 52.5921 56.0955 50.6132 57.2348C49.3624 57.9459 47.889 58.2971 46.4926 57.8345C45.8073 57.6118 45.122 57.6203 44.4366 57.3119C43.7941 57.0292 43.3315 56.481 43.0745 55.8385C42.5006 54.4421 43.2287 52.2919 43.914 51.0326C44.745 49.4991 46.7154 48.4112 48.3173 47.9229C48.3859 47.9057 48.5229 47.7001 48.3944 47.7173Z" fill="#A37254" fill-opacity="0.6"/>
<path d="M41.8313 53.3223C42.5937 52.3971 43.1677 50.9921 44.2385 50.3668C45.158 49.847 46.1346 49.473 47.1683 49.2445C49.3442 48.7562 52.0427 49.3388 52.6938 51.7032C53.4991 54.6158 50.8862 57.0745 48.3762 57.9055C47.4681 58.2053 46.106 58.1367 45.6177 59.1476C44.9752 60.4926 47.9479 59.5845 48.2734 59.4817C50.7663 58.6593 53.0536 56.9203 54.2529 54.573C55.3409 52.4142 55.6236 49.433 53.5248 47.7968C51.8885 46.5203 49.2072 46.5118 47.2797 47.0429C45.0952 47.6511 43.2276 49.3216 42.1139 51.2748C41.7627 51.8916 41.4543 52.6626 41.6856 53.3565C41.7027 53.4336 41.8056 53.348 41.8313 53.3223Z" fill="#A37254" fill-opacity="0.6"/>
<path d="M54.2278 23.2791C53.414 25.6692 53.6367 28.2992 53.5853 30.7921C53.5282 33.522 53.4597 36.2519 53.3798 38.9818C53.3112 41.5518 53.2484 44.1218 53.1913 46.6918C53.1627 47.9311 53.1399 49.1705 53.1227 50.4098C53.1113 51.0094 53.1085 51.6091 53.1142 52.2088C53.1142 52.8084 53.4054 53.2453 53.6967 53.7422C53.8081 53.9221 54.0736 53.7165 54.125 53.5794C54.5534 52.4401 54.7504 51.5663 54.759 50.3412C54.7761 49.1133 54.7961 47.8854 54.8189 46.6576C54.8818 43.9619 54.9532 41.2691 55.0331 38.5792C55.1131 35.8436 55.1816 33.1108 55.2387 30.3809C55.273 29.1016 55.2958 27.8223 55.3073 26.543C55.3073 25.3351 55.3244 24.1186 54.7761 23.0135C54.6305 22.7308 54.2792 23.1249 54.2278 23.2791Z" fill="#A37254" fill-opacity="0.6"/>
<path d="M54.4849 24.733C54.7419 24.1504 54.7676 23.2252 55.333 22.8397C55.6586 22.6256 56.6609 22.9853 56.995 23.0881C58.3399 23.5079 59.6164 24.1419 60.9528 24.5702C63.4114 25.3498 66.5211 24.5702 67.6005 22.043C66.7495 22.2543 65.8957 22.4685 65.0391 22.6855C65.2532 25.2641 65.4074 27.8512 65.5531 30.4384C65.6616 30.1471 65.7672 29.8558 65.87 29.5645C64.585 31.5777 60.7215 29.496 59.0424 29.1191C57.8773 28.8535 56.7294 28.8193 55.6243 29.3161C54.9989 29.5817 54.4507 30.1128 54.1337 30.7039C53.8424 31.2351 54.0994 31.5349 54.0138 32.0146C53.9195 32.4944 54.5192 32.1603 54.6306 31.9375C54.9904 31.2351 56.1554 31.0466 56.875 31.1066C58.0487 31.1922 59.2051 31.6805 60.3188 32.0318C62.9574 32.8799 65.4931 32.6828 67.3863 30.4384C67.9089 29.8216 67.8746 29.2476 67.8575 28.5194C67.8404 27.6056 67.8289 26.689 67.8232 25.7695C67.8147 24.3046 67.7633 22.8397 67.7718 21.3663C67.7718 20.7837 67.2407 20.5781 66.7353 20.7066C66.0671 20.8694 65.5188 21.4091 65.2104 22.0088C65.2618 21.906 65.5445 21.8031 65.2789 21.9059C65.0619 21.9802 64.8392 22.0287 64.6107 22.0516C64.0196 22.103 63.4542 22.0259 62.8803 21.8717C61.501 21.4948 60.2588 20.758 58.8196 20.5695C56.361 20.2611 53.8167 22.1886 54.1679 24.8101C54.1936 25.0071 54.4421 24.8272 54.4849 24.733Z" fill="#A37254" fill-opacity="0.6"/>
<path d="M55.7283 21.7291C55.4285 23.1083 55.5056 24.5732 55.497 25.9782C55.4856 26.8063 55.477 27.6344 55.4713 28.4625C55.4713 29.0279 55.2828 29.6276 55.7711 29.9959C55.8397 30.0473 55.9425 29.9788 55.9853 29.9103C56.6621 28.8223 56.328 27.2546 56.2766 26.0124C56.2252 24.5904 56.3023 23.0141 55.9168 21.6434C55.8911 21.5406 55.7369 21.6863 55.7283 21.7291Z" fill="#A37254" fill-opacity="0.6"/>
<path d="M56.7628 21.735C56.4801 23.1228 56.4886 24.5792 56.4372 25.9927C56.4029 26.8208 56.3858 27.6518 56.3858 28.4856C56.3858 29.0852 56.3087 29.6078 56.7628 30.0533C56.8741 30.1646 57.0626 29.9762 57.114 29.8819C57.7308 28.6912 57.4738 27.2348 57.3967 25.9413C57.3025 24.5278 57.3367 23.0029 56.9855 21.6237C56.9512 21.5037 56.7713 21.6751 56.7628 21.735Z" fill="#A37254" fill-opacity="0.6"/>
<path d="M58.058 21.6071C57.8181 22.9692 57.6553 24.3827 57.5354 25.7534C57.4154 27.0212 57.1242 28.5804 57.5954 29.7968C57.6468 29.9111 57.7353 29.9681 57.8609 29.9681C59.086 30.0281 58.6491 27.8608 58.6319 27.1754C58.5634 25.3336 58.829 23.2776 58.2893 21.4957C58.255 21.3672 58.0665 21.5386 58.058 21.6071Z" fill="#A37254" fill-opacity="0.6"/>
<path d="M59.3675 21.9918C59.1447 22.9255 59.1533 23.9021 59.0933 24.8616C59.0334 25.8296 58.8021 26.9947 59.239 27.8942C59.2904 28.0142 59.4446 27.8514 59.4617 27.7914C59.7787 26.8491 59.753 25.8982 59.7872 24.913C59.8215 23.9364 59.9243 22.8227 59.5816 21.889C59.5388 21.7776 59.376 21.9318 59.3675 21.9918Z" fill="#A37254" fill-opacity="0.6"/>
<path d="M60.722 22.7643C60.5506 23.4325 60.4993 24.1093 60.4736 24.7946C60.4393 25.5571 60.3536 26.2338 60.6535 26.9363C60.7134 27.0734 60.8762 26.8849 60.9019 26.8249C61.2874 25.5828 61.3559 23.9037 60.9533 22.653C60.9105 22.533 60.7391 22.7043 60.722 22.7643Z" fill="#A37254" fill-opacity="0.6"/>
<path d="M62.0064 23.3463C61.8522 23.8003 61.8608 24.28 61.8436 24.7512C61.8265 25.2395 61.8351 25.5136 62.0492 25.9505C62.0921 26.0448 62.212 25.9163 62.2291 25.8649C62.4005 25.3594 62.469 24.9825 62.469 24.4514C62.469 24.0402 62.5118 23.5433 62.2463 23.2006C62.1777 23.1064 62.0235 23.2863 62.0064 23.3463Z" fill="#A37254" fill-opacity="0.6"/>
<path d="M63.5244 22.9504C63.1989 24.4752 63.0703 26.0515 62.9247 27.6021C62.839 28.4245 62.8133 29.2555 62.7705 30.0864C62.7448 30.7289 62.5221 31.6541 63.1218 32.0568C63.2417 32.1424 63.4045 32.0396 63.473 31.9283C64.184 30.7975 63.8842 29.2383 63.8756 27.9448C63.8671 26.2657 63.9099 24.5438 63.73 22.8733C63.7128 22.7448 63.5415 22.8818 63.5244 22.9504Z" fill="#A37254" fill-opacity="0.6"/>
<path d="M64.4907 23.0889C64.3079 24.054 64.1994 25.0307 64.1651 26.0187C64.1394 26.8154 63.9853 27.5949 64.4907 28.2546C64.5592 28.3488 64.7049 28.1946 64.7306 28.1432C65.493 26.6098 65.1332 24.5709 64.7306 22.9689C64.7049 22.8404 64.4993 23.0203 64.4907 23.0889Z" fill="#A37254" fill-opacity="0.6"/>
<path d="M43.33 50.948C42.7817 52.5071 42.619 54.3233 42.499 55.9681C42.4648 56.4564 42.2592 59.2148 43.4756 58.6323C44.5122 58.1354 44.0068 56.0966 43.9725 55.257C43.9211 53.9035 44.2295 52.0617 43.6127 50.8109C43.5441 50.6739 43.3643 50.8709 43.33 50.948Z" fill="#A37254" fill-opacity="0.6"/>
<path d="M44.7511 49.1244C44.417 50.7006 44.4513 52.3883 44.3228 53.9902C44.1943 55.6436 43.9201 57.5454 44.2371 59.1816C44.2714 59.2616 44.3256 59.3158 44.3999 59.3444C44.4913 59.3615 44.5826 59.3787 44.674 59.3958C44.8025 59.4215 44.8968 59.3444 44.9739 59.2502C45.5136 58.6077 45.4793 58.008 45.4793 57.1856C45.4736 56.2147 45.4707 55.2438 45.4707 54.2729C45.4621 52.611 45.5992 50.5721 45.0167 48.9959C44.9738 48.8588 44.7683 49.0473 44.7511 49.1244Z" fill="#A37254" fill-opacity="0.6"/>
<path d="M45.7812 48.6612C45.5584 50.5031 45.6184 52.3963 45.5584 54.2467C45.5299 55.2347 45.5127 56.2199 45.507 57.2022C45.4985 57.879 45.3271 58.7185 45.9011 59.1897C46.0039 59.2668 46.1324 59.1297 46.1752 59.0526C46.9976 57.6134 46.5436 55.4118 46.4408 53.8184C46.3294 52.0708 46.3294 50.2461 46.021 48.5156C45.9953 48.3785 45.7897 48.5927 45.7812 48.6612Z" fill="#A37254" fill-opacity="0.6"/>
<path d="M46.9371 48.6511C46.9371 50.2616 46.8086 51.7865 46.6115 53.3884C46.5002 54.3479 46.5259 55.3245 46.5344 56.2926C46.5344 57.0122 46.2432 58.3229 47.0142 58.6998C47.0913 58.7341 47.1855 58.6484 47.2283 58.597C47.7509 57.8346 47.6738 57.0978 47.6395 56.1898C47.5967 55.1018 47.5282 54.0138 47.5539 52.9344C47.5881 51.7008 48.085 49.5078 47.1427 48.5054C47.0741 48.4283 46.9371 48.5825 46.9371 48.6511Z" fill="#A37254" fill-opacity="0.6"/>
<path d="M48.2381 48.3187C48.2495 48.2959 48.2609 48.2759 48.2724 48.2587C48.1981 48.2416 48.1239 48.2273 48.0497 48.2159C47.6128 49.9806 47.6984 51.9938 47.647 53.8099C47.6128 54.7808 47.5899 55.7546 47.5785 56.7312C47.5699 57.4508 47.2615 58.7186 47.9469 59.1555C48.1096 59.2583 48.3152 59.1298 48.4009 58.9842C48.8378 58.3074 48.8292 57.7763 48.8207 56.9625C48.8149 55.8717 48.7949 54.778 48.7607 53.6815C48.7264 52.7391 48.6836 51.7996 48.6322 50.863C48.5722 49.9464 48.6236 48.9526 48.3409 48.0703C48.2981 47.9246 48.0925 48.1217 48.0582 48.1731C48.0239 48.2416 48.0239 48.2673 48.0068 48.3444C47.9811 48.5243 48.1953 48.3958 48.2381 48.3187Z" fill="#A37254" fill-opacity="0.6"/>
<path d="M49.2872 47.5385C49.1587 49.5259 48.9702 51.4877 48.756 53.4752C48.6447 54.5117 48.6447 55.5655 48.6447 56.6106C48.6447 57.2874 48.4648 58.1697 49.0987 58.5724C49.1758 58.6152 49.2957 58.5124 49.33 58.461C49.8097 57.6986 49.7583 56.979 49.7326 56.088C49.7098 55.06 49.7127 54.032 49.7412 53.004C49.784 51.2393 50.2466 49.0633 49.5356 47.3928C49.4756 47.2558 49.2957 47.4528 49.2872 47.5385Z" fill="#A37254" fill-opacity="0.6"/>
<path d="M50.1341 48.2844C49.8171 50.032 49.8428 51.8567 49.7657 53.63C49.7258 54.5838 49.6972 55.5375 49.6801 56.4913C49.6715 57.1766 49.5773 57.8448 50.0227 58.4102C50.0998 58.4959 50.254 58.3417 50.2883 58.2817C50.9736 56.774 50.6738 54.8208 50.6738 53.1931C50.6652 51.5312 50.7937 49.775 50.4425 48.1388C50.4082 47.976 50.1512 48.2073 50.1341 48.2844Z" fill="#A37254" fill-opacity="0.6"/>
<path d="M51.0163 48.7649C50.7422 50.1527 50.8107 51.6262 50.7936 53.0397C50.7764 53.8792 50.765 54.7159 50.7593 55.5497C50.7593 56.2179 50.6223 56.9289 50.9906 57.52C51.042 57.6057 51.1705 57.5115 51.2048 57.4429C51.7531 56.1408 51.5046 54.5131 51.4618 53.1339C51.4275 51.6861 51.5303 50.0927 51.1877 48.6792C51.162 48.5935 51.0249 48.722 51.0163 48.7649Z" fill="#A37254" fill-opacity="0.6"/>
<path d="M52.0509 50.374C52.3422 50.9822 52.0766 52.2501 52.0338 52.9012C51.9824 53.7236 51.7425 54.6916 52.0595 55.4883C52.1109 55.6168 52.2736 55.4369 52.2993 55.3769C52.5992 54.3917 52.6334 53.3809 52.6763 52.3615C52.702 51.7704 52.9076 50.511 52.2651 50.1598C52.1794 50.1084 52.0166 50.2797 52.0509 50.374Z" fill="#A37254" fill-opacity="0.6"/>
<path d="M6.16834 31.9467C4.18087 32.7434 2.58747 33.7286 1.3967 35.5704C0.120268 37.5493 -0.46227 40.0508 0.428664 42.3124C1.12256 44.0514 2.95583 44.7025 4.69487 44.6339C6.73374 44.5568 8.81544 43.229 10.3746 41.9783C12.679 40.1279 14.4609 36.8383 13.4157 33.8571C13.0045 32.6577 12.0279 31.7069 10.8543 31.27C9.15811 30.6532 7.57327 30.9273 6.11694 31.9039C6.03984 31.9553 5.8685 32.2294 6.0741 32.2294C8.2843 32.2294 10.9914 31.4242 12.0965 34.0284C13.0303 36.2129 11.9937 38.7401 10.3832 40.2907C9.89485 40.7533 9.32088 41.1216 8.70408 41.3957C8.01018 41.6956 7.38481 41.6356 6.6652 41.747C5.3802 41.9611 4.17231 41.7898 3.32421 40.7275C2.84447 40.1279 2.79307 39.2198 2.77594 38.4917C2.75881 37.7121 2.74167 36.8383 2.91301 36.0758C3.29851 34.4053 4.7891 32.9747 6.19403 32.118C6.28827 32.0666 6.3054 31.8953 6.16834 31.9467Z" fill="#A37254" fill-opacity="0.6"/>
<path d="M1.37147 38.7232C1.8512 37.7894 2.1596 36.7957 2.63933 35.8619C3.0848 35.0052 4.00999 34.4141 4.78956 33.8916C6.1945 32.9578 8.29334 32.4866 9.86961 33.1634C11.7286 33.9687 11.8742 36.65 11.2146 38.252C10.7862 39.3143 10.178 40.1367 9.2785 40.8477C8.4561 41.5073 7.36814 41.7815 6.6314 42.5353C6.43437 42.7324 6.04887 43.3749 6.51147 43.5291C7.59087 43.8974 9.20997 42.5268 9.9981 41.9014C11.1032 41.019 12.2854 39.8026 12.9193 38.5261C14.033 36.2388 14.4014 32.4267 11.7628 30.996C9.4327 29.7367 6.1945 30.7733 4.1642 32.1953C2.99056 33.0263 2.3395 34.1057 1.63703 35.3136C1.0802 36.2645 0.523366 37.7979 1.22583 38.8002C1.2601 38.8516 1.3629 38.7574 1.37147 38.7232Z" fill="#A37254" fill-opacity="0.6"/>
<path d="M27.9808 26.0134C25.9934 26.8015 24.4 27.7867 23.2092 29.6285C21.9328 31.616 21.3502 34.1175 22.2412 36.3705C22.9351 38.1096 24.7683 38.7606 26.5074 38.6921C28.5462 38.615 30.6365 37.2872 32.1871 36.0364C34.4915 34.1946 36.2734 30.905 35.2283 27.9152C34.817 26.7244 33.8404 25.765 32.6668 25.3366C30.9706 24.7113 29.3858 24.994 27.9294 25.962C27.8523 26.0134 27.681 26.2961 27.8866 26.2961C30.0968 26.2876 32.8039 25.4909 33.909 28.0866C34.8427 30.2796 33.8062 32.7982 32.1956 34.3488C31.7073 34.82 31.1334 35.1883 30.5166 35.4539C29.8227 35.7623 29.1973 35.6938 28.4777 35.8137C27.1927 36.0193 25.9848 35.8565 25.1367 34.7943C24.657 34.186 24.6056 33.2865 24.5884 32.5498C24.5713 31.7702 24.5542 30.8964 24.7255 30.134C25.111 28.472 26.6016 27.0328 28.0151 26.1762C28.1008 26.1248 28.1179 25.9534 27.9808 26.0134Z" fill="#A37254" fill-opacity="0.6"/>
<path d="M23.182 32.7771C23.6618 31.8519 23.9701 30.8496 24.4499 29.9244C24.8953 29.0592 25.8206 28.4681 26.6001 27.9455C27.9965 27.0203 30.1039 26.5491 31.6802 27.2259C33.5391 28.0226 33.6848 30.7125 33.0251 32.3145C32.5968 33.3682 31.9885 34.1906 31.089 34.9016C30.2666 35.5613 29.1787 35.844 28.4419 36.5893C28.2449 36.7863 27.8594 37.4288 28.322 37.5915C29.4014 37.9599 31.0205 36.5893 31.8086 35.9553C32.9137 35.0815 34.096 33.8565 34.7213 32.5801C35.8436 30.2928 36.2119 26.4806 33.5734 25.0585C31.2433 23.7992 28.005 24.8358 25.9747 26.2578C24.8011 27.0802 24.1501 28.1597 23.4476 29.3676C22.8908 30.3185 22.3339 31.8604 23.0364 32.8542C23.0706 32.9141 23.1735 32.8113 23.182 32.7771Z" fill="#A37254" fill-opacity="0.6"/>
<path d="M5.6113 8.15782C5.32003 10.5222 6.21953 12.8781 6.78493 15.1397C7.41316 17.6526 8.02996 20.1655 8.63534 22.6783C9.20074 25.037 9.7747 27.3957 10.3572 29.7544C10.6599 30.948 10.9626 32.1388 11.2653 33.3267C11.4195 33.9007 11.548 34.4832 11.745 35.0401C11.8907 35.4598 12.3618 35.7596 12.6788 36.0423C12.8244 36.1708 13.0814 35.931 13.1071 35.7854C13.2785 34.6974 13.3128 33.9606 13.0386 32.8898C12.7302 31.7076 12.4275 30.5254 12.1305 29.3432C11.5194 26.8703 10.9169 24.3945 10.323 21.9159C9.7176 19.3973 9.10366 16.8816 8.48114 14.3687C7.95858 12.2613 7.71014 9.39142 6.13387 7.78089C5.92827 7.57529 5.62844 7.98649 5.6113 8.15782Z" fill="#A37254" fill-opacity="0.6"/>
<path d="M27.5332 2.18712C27.2419 4.55152 28.1414 6.90735 28.7068 9.16896C29.335 11.6818 29.9518 14.1948 30.5572 16.7076C31.1283 19.0663 31.7052 21.425 32.2877 23.7837C32.5847 24.9773 32.8874 26.1681 33.1958 27.356C33.3414 27.93 33.4699 28.5125 33.6669 29.0694C33.804 29.4891 34.2837 29.7889 34.6007 30.0716C34.7463 30.2001 35.0033 29.9517 35.029 29.8147C35.2004 28.7267 35.2346 27.9899 34.9605 26.9191C34.6521 25.7369 34.3494 24.5547 34.0524 23.3725C33.4413 20.8996 32.8388 18.4238 32.2448 15.9452C31.6395 13.4266 31.0255 10.9109 30.403 8.39796C29.8805 6.29056 29.632 3.42072 28.0558 1.81018C27.8502 1.60458 27.5503 2.01578 27.5332 2.18712Z" fill="#A37254" fill-opacity="0.6"/>
<path d="M7.50473 14.7046C7.9245 15.0901 8.50704 14.9702 9.0296 14.8845C10.0405 14.7132 11.0428 14.4476 12.0365 14.1906C14.1439 13.6766 16.2599 13.2054 18.3758 12.7257C20.3405 12.2688 22.2965 11.7777 24.244 11.2522C25.2092 10.9895 26.1715 10.7154 27.131 10.4298C28.1247 10.13 29.247 9.90727 29.8895 9.00777C30.0694 8.75077 30.2664 8.39954 30.2578 8.074C30.2492 7.15737 28.9386 7.45721 28.3903 7.62855C27.448 7.9141 26.5028 8.19679 25.5547 8.47664C23.473 9.10201 21.3827 9.68454 19.3096 10.3185C17.1565 10.981 15.0006 11.6349 12.8418 12.2802C11.1113 12.7942 8.80686 13.1712 7.539 14.559C7.5133 14.5847 7.4619 14.6618 7.50473 14.7046Z" fill="#A37254" fill-opacity="0.6"/>
<path d="M5.74088 8.21933C6.16065 8.60483 6.74319 8.48489 7.25719 8.39922C8.27662 8.22789 9.27036 7.95376 10.2727 7.70532C12.3801 7.18276 14.496 6.72016 16.612 6.23186C18.5766 5.78068 20.5327 5.29238 22.4802 4.76696C23.4454 4.50425 24.4077 4.22726 25.3671 3.93599C26.3609 3.63616 27.4831 3.41342 28.1256 2.51392C28.3055 2.26549 28.494 1.91424 28.494 1.5887C28.4854 0.663504 27.1747 0.971913 26.6264 1.14325C25.6841 1.4288 24.7389 1.71149 23.7909 1.99134C21.7092 2.61671 19.6189 3.19926 17.5458 3.8332C15.3927 4.49569 13.2367 5.14959 11.0779 5.79495C9.34746 6.30895 7.04303 6.6859 5.77516 8.06514C5.74946 8.0994 5.68948 8.1765 5.74088 8.21933Z" fill="#A37254" fill-opacity="0.6"/>
<path d="M5.5853 9.17596C5.88513 10.4438 10.5968 8.61055 11.2821 8.41352C13.1268 7.89381 14.9687 7.36839 16.8077 6.83725C18.6638 6.2947 20.5227 5.75501 22.3845 5.21816C24.2264 4.6956 26.1539 4.29297 27.8501 3.37633C28.227 3.17073 29.2122 2.14272 28.4326 1.80862C27.6188 1.47452 26.5908 1.69726 25.777 1.92856C24.7204 2.23125 23.6638 2.52821 22.6073 2.81948C20.3571 3.46483 18.1069 4.1159 15.8567 4.77268C13.7665 5.38091 11.6591 5.94631 9.56024 6.53741C8.4123 6.86295 5.18266 7.4455 5.5853 9.17596Z" fill="#A37254" fill-opacity="0.6"/>
<path d="M7.44497 14.7279C7.9247 14.7708 8.42157 14.5566 8.89274 14.4623C9.82365 14.291 10.7431 14.0854 11.6512 13.8456C13.5701 13.323 15.4719 12.749 17.3909 12.2436C19.3441 11.721 21.3144 11.2327 23.2676 10.7273C25.178 10.2218 27.0284 9.51937 28.9302 8.97967C29.4528 8.83404 29.9411 8.37145 30.0696 7.84031C30.1895 7.36915 29.864 7.0179 29.3842 7.15496C27.6281 7.64326 25.9147 8.26866 24.1329 8.70556C22.1739 9.19671 20.2179 9.69644 18.2647 10.2047C16.3372 10.7102 14.4182 11.2584 12.4993 11.7981C11.0344 12.2179 9.21827 12.2779 7.8733 13.0146C7.4364 13.2545 6.32273 14.6423 7.44497 14.7279Z" fill="#A37254" fill-opacity="0.6"/>
<path d="M6.73293 8.49215C6.63013 9.54586 6.85287 10.6252 7.05847 11.6618C7.19553 12.3728 7.31546 14.1376 8.11217 14.3518C8.24923 14.386 8.37774 14.2575 8.412 14.1461C8.6433 13.3237 8.0522 12.2958 7.8466 11.4905C7.57247 10.4711 7.46966 9.28883 6.9471 8.36363C6.87856 8.2437 6.73293 8.41505 6.73293 8.49215Z" fill="#A37254" fill-opacity="0.6"/>
<path d="M7.40218 8.80891C7.37648 9.54565 7.63348 10.3252 7.78768 11.0448C8.00185 12.0728 8.11322 13.7776 8.93562 14.4886C9.02129 14.5657 9.15836 14.4287 9.17549 14.3516C9.35539 13.2036 8.73858 11.91 8.44732 10.7964C8.31025 10.3081 8.22458 8.77463 7.59065 8.65469C7.50498 8.62899 7.41075 8.72325 7.40218 8.80891Z" fill="#A37254" fill-opacity="0.6"/>
<path d="M8.05179 7.96994C8.18886 8.90371 8.53151 9.82033 8.73711 10.7455C8.94271 11.6365 8.91702 13.1785 9.69659 13.761C9.76512 13.8124 9.85935 13.7182 9.86792 13.6582C10.0992 12.6645 9.67945 11.6193 9.44815 10.6513C9.21685 9.69184 9.01981 8.51821 8.33448 7.76435C8.24025 7.66155 8.03466 7.86714 8.05179 7.96994Z" fill="#A37254" fill-opacity="0.6"/>
<path d="M9.09794 8.15787C8.96944 8.96314 9.35494 9.84551 9.55198 10.6251C9.80041 11.5674 9.94604 12.5697 10.4943 13.3921C10.5628 13.4949 10.717 13.2979 10.717 13.2294C10.717 12.2956 10.4343 11.456 10.1773 10.5651C9.96317 9.83694 9.85181 8.56907 9.27784 8.0465C9.21787 7.98653 9.10651 8.0979 9.09794 8.15787Z" fill="#A37254" fill-opacity="0.6"/>
<path d="M10.058 8.11677C10.2893 8.9563 10.6406 9.7273 10.8119 10.6011C10.9918 11.4835 11.0089 12.6143 11.5829 13.3424C11.6514 13.4367 11.7799 13.2568 11.7885 13.1968C11.857 12.1945 11.5829 11.1922 11.3516 10.2156C11.2145 9.65875 10.9746 8.05679 10.255 7.91972C10.1608 7.90259 10.0323 8.01397 10.058 8.11677Z" fill="#A37254" fill-opacity="0.6"/>
<path d="M10.7621 8.05676C10.6764 8.8706 11.002 9.693 11.2161 10.4726C11.456 11.3549 11.5931 12.2801 12.1756 13.0083C12.2356 13.0854 12.3555 12.9312 12.3555 12.8798C12.4069 11.9889 12.1499 11.2436 11.8758 10.404C11.6273 9.63302 11.4731 8.55363 10.9077 7.95397C10.8563 7.894 10.7707 8.01393 10.7621 8.05676Z" fill="#A37254" fill-opacity="0.6"/>
<path d="M11.7467 8.11532C11.7753 7.99538 11.8038 7.87544 11.8324 7.75551C11.6896 7.80691 11.5468 7.8583 11.4041 7.9097C11.4726 8.86917 11.7981 9.80295 12.0466 10.7367C12.3121 11.7219 12.5263 12.767 13.1516 13.598C13.2287 13.6922 13.3744 13.5038 13.3744 13.4352C13.4172 12.4243 13.1345 11.5762 12.8518 10.6168C12.5606 9.64017 12.3121 8.55221 11.8324 7.65271C11.721 7.44711 11.3184 7.78122 11.4126 7.95255C11.4697 8.0325 11.504 8.12103 11.5154 8.21811C11.5497 8.33805 11.7296 8.16672 11.7467 8.11532Z" fill="#A37254" fill-opacity="0.6"/>
<path d="M12.4911 7.35296C12.5853 8.2182 12.7823 9.06629 12.9451 9.91439C13.1079 10.7539 13.2364 11.6192 13.896 12.2017C13.956 12.2617 14.0759 12.1417 14.0673 12.0732C13.9988 11.3022 13.759 10.5826 13.5705 9.83729C13.3478 8.93779 13.2621 7.96975 12.8166 7.15592C12.7224 7.00172 12.4739 7.22446 12.4911 7.35296Z" fill="#A37254" fill-opacity="0.6"/>
<path d="M13.3833 7.16367C13.4061 7.10085 13.4289 7.03802 13.4518 6.9752C13.3433 6.99233 13.2319 7.00663 13.1177 7.01805C13.1862 7.90042 13.4604 8.78277 13.666 9.648C13.8716 10.4875 14.0343 11.2928 14.5226 12.0295C14.574 12.1066 14.694 11.9524 14.694 11.901C14.7025 11.0872 14.5312 10.3762 14.3342 9.58805C14.1029 8.67142 13.9401 7.64341 13.5032 6.79531C13.4004 6.58971 12.9978 6.94095 13.152 7.09515C13.1748 7.14084 13.1977 7.18937 13.2205 7.24077C13.2462 7.32643 13.3661 7.19794 13.3833 7.16367Z" fill="#A37254" fill-opacity="0.6"/>
<path d="M13.8096 6.84704C14.4949 8.54324 14.0837 10.8477 15.3516 12.304C15.4115 12.3725 15.5143 12.2355 15.5143 12.1841C15.6257 10.8991 15.0175 9.66548 14.7262 8.43188C14.6063 7.92644 14.5463 6.90699 14.0323 6.62429C13.9295 6.57289 13.7753 6.7528 13.8096 6.84704Z" fill="#A37254" fill-opacity="0.6"/>
<path d="M14.3832 6.65756C14.426 7.42856 14.6573 8.17388 14.8287 8.91918C15.0428 9.87008 15.1713 10.8467 15.6682 11.7033C15.7281 11.7976 15.8738 11.6605 15.8738 11.5748C15.8481 10.6668 15.6253 9.81009 15.4026 8.92773C15.197 8.11389 15.0428 7.23153 14.5716 6.52049C14.5202 6.43483 14.3746 6.5976 14.3832 6.65756Z" fill="#A37254" fill-opacity="0.6"/>
<path d="M15.1466 6.47982C15.5064 8.14176 15.5407 10.1292 16.483 11.5856C16.5344 11.6627 16.6886 11.5085 16.68 11.4485C16.4316 9.71802 15.909 7.97041 15.3865 6.30848C15.3436 6.17141 15.1209 6.36846 15.1466 6.47982Z" fill="#A37254" fill-opacity="0.6"/>
<path d="M15.8315 6.04272C16.8252 7.56759 16.157 9.81206 17.1679 11.3112C17.2279 11.3969 17.3478 11.2341 17.3564 11.1827C17.3906 10.1633 17.1936 9.17813 16.988 8.18439C16.8338 7.39626 16.7224 6.29973 15.96 5.88853C15.8915 5.85426 15.7972 5.98276 15.8315 6.04272Z" fill="#A37254" fill-opacity="0.6"/>
<path d="M16.5082 5.82848C16.6024 6.77081 16.8423 7.71315 17.0393 8.63835C17.262 9.66635 17.3477 10.8143 17.9217 11.7052C17.9902 11.808 18.1444 11.611 18.1444 11.5425C18.153 10.5573 17.8531 9.62351 17.639 8.66405C17.4162 7.67031 17.2192 6.59949 16.7137 5.70856C16.6538 5.60576 16.4996 5.74281 16.5082 5.82848Z" fill="#A37254" fill-opacity="0.6"/>
<path d="M17.3656 5.7681C17.3913 6.50484 17.5626 7.30155 17.7083 8.02972C17.9139 9.12625 18.0509 10.3256 18.7277 11.2336C18.7962 11.3279 18.9419 11.148 18.9419 11.0795C18.9847 9.89725 18.5992 8.74074 18.3165 7.59281C18.1966 7.12164 18.1709 5.7424 17.614 5.55394C17.5027 5.51967 17.357 5.6653 17.3656 5.7681Z" fill="#A37254" fill-opacity="0.6"/>
<path d="M18.7103 5.79366C18.7331 5.72513 18.7588 5.65374 18.7874 5.57949C18.6332 5.59663 18.479 5.61662 18.3248 5.63947C18.1963 6.66747 18.3761 7.70404 18.556 8.72348C18.7359 9.75148 18.9073 10.9765 19.8325 11.6019C19.9182 11.6618 20.0552 11.5419 20.0467 11.4477C20.0038 10.4197 19.6183 9.50305 19.3699 8.51788C19.1129 7.48988 19.0872 6.41904 18.8131 5.40818C18.7445 5.15974 18.2134 5.51954 18.3248 5.75084C18.3647 5.80795 18.3933 5.87077 18.4104 5.93931C18.4618 6.11064 18.6846 5.87076 18.7103 5.79366Z" fill="#A37254" fill-opacity="0.6"/>
<path d="M19.5058 5.59724C19.5344 5.54584 19.5629 5.49442 19.5915 5.44302C19.4544 5.47729 19.3202 5.51157 19.1889 5.54584C19.7457 6.94221 19.1889 9.21238 20.3882 10.2832C20.4824 10.3603 20.6024 10.1975 20.6195 10.1204C20.7223 9.22094 20.4824 8.42424 20.3197 7.55044C20.2083 6.96791 20.1483 5.55439 19.6172 5.17745C19.4287 5.04039 19.0775 5.39162 19.2146 5.58009C19.2431 5.62578 19.2802 5.6629 19.3259 5.69146C19.3945 5.74286 19.4801 5.65721 19.5058 5.59724Z" fill="#A37254" fill-opacity="0.6"/>
<path d="M20.3051 4.8765C20.3565 4.80225 20.4079 4.72514 20.4593 4.64518C20.3508 4.64518 20.2423 4.64518 20.1338 4.64518C19.9539 5.60465 20.1595 6.55556 20.348 7.4979C20.5707 8.61157 20.7848 9.84516 21.513 10.7275C21.5987 10.8303 21.7443 10.6333 21.7529 10.5648C21.8128 9.55389 21.5216 8.71435 21.256 7.74631C20.9562 6.66691 20.862 5.51899 20.5107 4.46529C20.4422 4.26825 20.1081 4.5424 20.1338 4.68803C20.1509 4.76227 20.1538 4.83936 20.1423 4.91932C20.1338 5.03069 20.288 4.91076 20.3051 4.8765Z" fill="#A37254" fill-opacity="0.6"/>
<path d="M21.4331 4.60388C21.5102 4.75808 21.4759 5.23782 21.5016 5.40915C21.5587 5.79751 21.6073 6.18585 21.6472 6.57421C21.7415 7.76498 22.067 9.26416 22.8038 10.2065C22.8809 10.3093 23.0265 10.1208 23.035 10.0523C23.1121 8.56168 22.5039 7.14818 22.2469 5.69184C22.2041 5.43484 22.0756 4.13271 21.553 4.40684C21.493 4.43254 21.3988 4.52678 21.4331 4.60388Z" fill="#A37254" fill-opacity="0.6"/>
<path d="M22.4121 4.22502C22.4635 5.20162 22.6606 6.17822 22.8062 7.13769C22.9347 8.06289 22.9947 8.94525 23.5001 9.75051C23.5772 9.87901 23.7571 9.69912 23.7571 9.59632C23.7742 8.53405 23.5601 7.53175 23.3887 6.48661C23.2517 5.65564 23.1403 4.75616 22.6691 4.04513C22.6006 3.93376 22.4121 4.14792 22.4121 4.22502Z" fill="#A37254" fill-opacity="0.6"/>
<path d="M23.0535 3.61798C22.925 4.66312 23.3019 5.84532 23.4904 6.88188C23.6874 7.96128 23.8159 8.99784 24.4327 9.92304C24.4841 10.0001 24.6126 9.84594 24.6126 9.78597C24.6298 8.61234 24.3728 7.55864 24.1415 6.4107C23.9616 5.5369 23.8588 4.16624 23.2163 3.49804C23.1563 3.43807 23.0621 3.56658 23.0535 3.61798Z" fill="#A37254" fill-opacity="0.6"/>
<path d="M23.8409 3.89087C24.0123 4.10504 24.0294 4.57621 24.0979 4.83321C24.235 5.42431 24.3207 6.03255 24.4321 6.63222C24.5863 7.47175 24.5948 8.53403 25.1431 9.2365C25.2202 9.33073 25.3658 9.14226 25.3658 9.07373C25.4515 8.02003 25.1773 6.99203 24.9803 5.97259C24.8604 5.39006 24.7319 3.88231 24.0465 3.65101C23.9437 3.60817 23.7638 3.78807 23.8409 3.89087Z" fill="#A37254" fill-opacity="0.6"/>
<path d="M24.723 3.67816C24.7829 4.40633 24.9714 5.13451 25.1085 5.85411C25.2969 6.78787 25.3655 7.7816 25.8623 8.604C25.9394 8.74964 26.145 8.5526 26.145 8.44123C26.1279 7.66167 25.948 6.95064 25.7767 6.19677C25.5796 5.30583 25.4254 4.32923 24.9457 3.54109C24.8857 3.43829 24.7144 3.58393 24.723 3.67816Z" fill="#A37254" fill-opacity="0.6"/>
<path d="M25.563 2.93275C25.6315 3.72945 25.7429 4.58611 25.9142 5.36568C26.1798 6.59928 26.3768 7.9357 27.0365 9.02367C27.0879 9.1179 27.2335 8.98083 27.2335 8.9123C27.2078 7.62729 26.8737 6.44509 26.531 5.21149C26.3254 4.46618 26.4282 3.30111 25.7258 2.82137C25.6572 2.76997 25.5544 2.86421 25.563 2.93275Z" fill="#A37254" fill-opacity="0.6"/>
<path d="M26.342 2.89816C26.3335 3.74626 26.5648 4.57724 26.7361 5.39964C26.9674 6.48761 27.1387 7.56701 27.6442 8.56074C27.7384 8.74064 28.0211 8.47507 28.0125 8.338C27.944 7.30143 27.687 6.33341 27.4386 5.32254C27.2158 4.44874 27.0788 3.48927 26.5819 2.72684C26.5134 2.61547 26.342 2.82962 26.342 2.89816Z" fill="#A37254" fill-opacity="0.6"/>
<path d="M26.7975 2.69308C26.6261 4.58632 27.2001 6.93359 28.2966 8.45846C28.3652 8.5527 28.5108 8.3728 28.5108 8.30427C28.5365 7.22487 28.3566 6.44528 28.0311 5.41728C27.7312 4.46638 27.4742 3.43839 27.0373 2.54746C26.9774 2.41896 26.806 2.60741 26.7975 2.69308Z" fill="#A37254" fill-opacity="0.6"/>
<path d="M2.44056 36.2818C2.44627 36.2532 2.45199 36.2218 2.4577 36.1875C2.5091 35.9734 2.23496 36.1276 2.18356 36.2218C1.83232 36.8729 2.39773 38.2178 2.5348 38.8518C2.69471 39.6228 2.86318 40.3938 3.04023 41.1648C3.20299 41.8415 3.21156 42.5954 3.8455 42.9724C3.9483 43.0323 4.09392 42.861 4.11962 42.7753C4.30809 42.0986 4.13676 41.6531 3.94829 40.9677C3.70842 40.0939 3.50282 39.203 3.26295 38.3292C3.15159 37.918 2.9717 36.1447 2.38916 36.0762C2.32063 36.1675 2.25494 36.2589 2.19212 36.3503C2.20925 36.3674 2.22925 36.3817 2.25209 36.3931C2.32919 36.4445 2.42343 36.3503 2.44056 36.2818Z" fill="#A37254" fill-opacity="0.6"/>
<path d="M2.81687 34.1925C2.98821 35.7687 3.31373 37.3022 3.66497 38.8442C3.84772 39.6609 4.05904 40.469 4.29891 41.2685C4.49594 41.9539 4.53877 42.7677 5.30121 42.9819C5.39544 43.0161 5.5068 42.9219 5.54107 42.8363C6.07221 41.5855 5.28407 40.1634 4.84717 38.9641C4.25607 37.3279 3.59643 35.7173 2.95393 34.1068C2.91966 34.0383 2.80831 34.1411 2.81687 34.1925Z" fill="#A37254" fill-opacity="0.6"/>
<path d="M3.98392 32.8553C3.91538 34.543 4.51505 36.3762 4.87485 38.021C5.09187 38.9805 5.32032 39.94 5.56018 40.8994C5.74008 41.6105 5.78292 42.4415 6.52822 42.7242C6.67385 42.7756 6.87089 42.6128 6.91372 42.4843C7.20499 41.7304 7.06792 41.225 6.86232 40.4454C6.62245 39.5088 6.35688 38.5779 6.06561 37.6527C5.56875 36.0764 5.21751 34.0204 4.21521 32.684C4.14667 32.5898 3.99248 32.7782 3.98392 32.8553Z" fill="#A37254" fill-opacity="0.6"/>
<path d="M5.20152 32.1021C5.34715 33.9353 5.72408 35.7686 6.06674 37.5676C6.25521 38.5156 6.46366 39.4551 6.69211 40.386C6.88914 41.1827 6.99195 42.185 7.87431 42.442C7.97711 42.4763 8.09705 42.3821 8.13132 42.2878C8.70528 40.8144 7.83149 38.9982 7.38602 37.559C6.80349 35.6915 6.28948 33.7383 5.39854 31.9907C5.34714 31.8879 5.19295 32.0335 5.20152 32.1021Z" fill="#A37254" fill-opacity="0.6"/>
<path d="M6.20377 31.9726C6.38367 32.6665 6.3494 33.4118 6.49503 34.1229C6.6835 35.0423 6.89195 35.959 7.1204 36.8728C7.34884 37.8094 7.58585 38.7403 7.83143 39.6655C8.0199 40.3594 8.06273 41.2075 8.83373 41.396C8.93653 41.4217 9.03076 41.3446 9.0736 41.2589C9.39913 40.5307 9.26207 40.0339 9.03934 39.28C8.72522 38.2463 8.40254 37.2183 8.0713 36.196C7.80573 35.3222 7.49734 34.4655 7.2232 33.6003C7.0176 32.9664 6.95763 32.2211 6.44363 31.767C6.3494 31.6728 6.17807 31.8698 6.20377 31.9726Z" fill="#A37254" fill-opacity="0.6"/>
<path d="M7.29129 31.1339C7.71106 32.6845 7.95949 34.2864 8.41352 35.8456C8.64768 36.6451 8.89039 37.4447 9.14168 38.2442C9.38155 39.0324 9.54433 39.8976 10.1697 40.463C10.2211 40.5144 10.3239 40.4202 10.3325 40.3602C10.5895 38.6983 9.63856 36.8907 9.12456 35.3316C8.839 34.4349 8.53917 33.5411 8.22506 32.6502C8.01946 32.0848 7.91666 31.408 7.41122 31.0311C7.35982 30.9883 7.27416 31.0739 7.29129 31.1339Z" fill="#A37254" fill-opacity="0.6"/>
<path d="M8.62725 31.331C8.81572 32.7445 9.08984 34.1408 9.35541 35.5458C9.5039 36.3225 9.7038 37.0878 9.95509 37.8416C10.1436 38.4499 10.2549 39.1095 10.8118 39.4779C10.8889 39.5293 10.9831 39.4351 11.0088 39.358C11.3429 38.1672 10.5976 36.9679 10.272 35.8199C9.83515 34.2779 9.55244 32.6503 8.85854 31.1939C8.79857 31.0826 8.61868 31.2453 8.62725 31.331Z" fill="#A37254" fill-opacity="0.6"/>
<path d="M9.54276 31.8785C9.7912 32.8465 9.9454 33.8146 10.091 34.7997C10.2624 35.9734 10.5022 37.6267 11.4531 38.4234C11.5131 38.4834 11.6245 38.372 11.6416 38.3121C11.9072 36.8386 11.2732 35.5108 10.9049 34.0973C10.7421 33.4633 10.5622 31.8271 9.73981 31.6814C9.63701 31.6643 9.5085 31.7757 9.54276 31.8785Z" fill="#A37254" fill-opacity="0.6"/>
<path d="M23.9118 29.9682C23.8176 30.2852 23.9118 30.6622 23.9461 30.9706C24.0146 31.6559 24.0832 32.3384 24.1517 33.018C24.2088 33.5662 24.2945 34.1088 24.4087 34.6457C24.5715 35.4338 24.6742 36.873 25.5737 37.1128C25.668 37.1385 25.7879 37.0443 25.8222 36.9587C26.2762 35.9307 25.7537 34.9283 25.4538 33.9003C25.2311 33.1465 25.1026 32.3841 24.9141 31.6216C24.7771 31.1076 24.6914 30.2338 24.2202 29.9083C24.1346 29.8398 23.9546 29.8483 23.9118 29.9682Z" fill="#A37254" fill-opacity="0.6"/>
<path d="M24.4558 28.4607C24.4387 29.8999 24.7299 31.3562 24.9784 32.7697C25.1925 33.9862 25.2354 35.768 26.2462 36.6076C26.3062 36.6675 26.4176 36.5562 26.4347 36.4962C26.6831 35.1684 26.1948 33.8662 25.8864 32.5898C25.5438 31.1677 25.321 29.6429 24.7042 28.315C24.6443 28.1865 24.4558 28.375 24.4558 28.4607Z" fill="#A37254" fill-opacity="0.6"/>
<path d="M25.418 27.7858C25.4522 29.3706 25.7264 31.0069 26.0091 32.5574C26.1804 33.4912 26.4288 34.4078 26.6858 35.3245C26.8829 36.0355 26.9943 36.6866 27.6539 37.0807C27.7396 37.1321 27.8423 36.995 27.8595 36.935C28.2792 35.4273 27.414 33.7225 27.0199 32.2662C26.6087 30.7499 26.5231 28.968 25.6407 27.6316C25.5722 27.5288 25.418 27.7173 25.418 27.7858Z" fill="#A37254" fill-opacity="0.6"/>
<path d="M26.2991 27.081C26.3676 28.6915 26.6846 30.3277 26.9673 31.904C27.2157 33.249 27.507 35.2536 28.5607 36.213C28.6464 36.2987 28.8177 36.1359 28.8263 36.0503C29.049 34.5425 28.2695 33.1205 27.8925 31.6898C27.4728 30.1136 27.3443 28.3745 26.5476 26.9353C26.479 26.8068 26.2905 26.9867 26.2991 27.081Z" fill="#A37254" fill-opacity="0.6"/>
<path d="M27.1582 26.38C27.2781 28.1105 27.6208 29.8495 27.895 31.5543C28.1348 33.0449 28.4604 35.1266 29.5569 36.2488C29.6597 36.3516 29.8053 36.146 29.8139 36.0604C30.0109 34.3385 29.18 32.6765 28.7773 31.0317C28.3918 29.464 28.1948 27.6736 27.3724 26.2601C27.3124 26.1573 27.1582 26.3029 27.1582 26.38Z" fill="#A37254" fill-opacity="0.6"/>
<path d="M28.3906 26.3535C28.4592 28.0155 28.759 29.6603 29.0331 31.2965C29.273 32.7443 29.5043 34.8517 30.5923 35.9054C30.6779 35.991 30.8407 35.8368 30.8493 35.7512C31.0806 34.055 30.3524 32.393 29.9241 30.7654C29.6928 29.883 29.5043 28.9835 29.2816 28.1011C29.1188 27.4586 29.0074 26.739 28.5791 26.2164C28.5191 26.1393 28.3906 26.2935 28.3906 26.3535Z" fill="#A37254" fill-opacity="0.6"/>
<path d="M29.418 25.6354C29.1781 27.246 29.5122 28.8993 29.8035 30.4756C30.0776 31.9491 30.2832 34.0222 31.2255 35.2301C31.3112 35.3329 31.474 35.1359 31.4911 35.0673C31.9537 33.5767 31.1827 32.0433 30.8315 30.5955C30.4117 28.9165 30.1205 27.186 29.6579 25.5241C29.6236 25.4041 29.4351 25.5755 29.418 25.6354Z" fill="#A37254" fill-opacity="0.6"/>
<path d="M30.3526 26.0793C30.3269 27.5527 30.7639 29.0861 31.0294 30.5339C31.2522 31.7504 31.2864 33.6865 32.3315 34.5003C32.4258 34.5774 32.5543 34.4403 32.58 34.3546C32.8627 32.9925 32.3487 31.5791 32.0488 30.2427C31.7404 28.8463 31.5006 27.0559 30.5839 25.9165C30.5068 25.8223 30.3526 26.0107 30.3526 26.0793Z" fill="#A37254" fill-opacity="0.6"/>
<path d="M31.4405 26.4802C31.2006 27.7052 31.5261 29.1273 31.706 30.3523C31.8602 31.4232 31.826 33.325 32.8368 33.9675C32.9482 34.036 33.0853 33.9075 33.111 33.7961C33.4365 32.5882 32.9739 31.3461 32.7426 30.1553C32.5199 29.0331 32.4342 27.2341 31.5947 26.386C31.5433 26.3346 31.449 26.4288 31.4405 26.4802Z" fill="#A37254" fill-opacity="0.6"/>
<path d="M32.1525 27.2204C32.3838 27.8972 32.2638 28.711 32.4009 29.4049C32.6836 30.8099 33.0777 32.0006 33.7544 33.2685C33.8144 33.3884 33.9857 33.2171 33.9857 33.1229C33.9772 32.429 34.0029 31.6923 33.8744 31.0069C33.7202 30.2016 33.4203 29.4306 33.2833 28.6339C33.1805 28.0685 33.0434 27.0405 32.3324 27.0063C32.2381 26.9977 32.1182 27.1262 32.1525 27.2204Z" fill="#A37254" fill-opacity="0.6"/>
<path d="M64.1911 4.72199C61.9723 4.50782 60.5588 7.22347 60.6702 9.12528C60.7816 10.9243 62.2551 12.1664 64.0112 12.1493C65.9387 12.1322 67.455 10.573 67.9005 8.79974C68.1917 7.6004 67.969 6.42677 67.2666 5.42446C66.9639 4.979 66.5555 4.72487 66.0415 4.66204C65.4847 4.60208 64.7308 4.67916 64.1654 4.75626C64.1226 4.75626 64.054 4.86764 64.1226 4.86764C64.4481 4.86764 65.142 4.8248 65.2876 5.24457C65.3819 5.53584 65.4933 5.70716 65.7246 5.9042C66.4699 6.56383 66.8211 7.25774 66.8296 8.26861C66.8382 9.53648 65.9644 10.6673 64.688 10.7444C63.6514 10.8129 62.7091 10.1961 62.2807 9.27089C61.4669 7.54899 62.4349 5.52726 64.1483 4.88476C64.1997 4.86763 64.2939 4.73056 64.1911 4.72199Z" fill="#A37254" fill-opacity="0.6"/>
<path d="M64.5832 11.5251C66.802 11.7393 68.2155 9.02367 68.1042 7.12187C67.9928 5.32287 66.5193 4.0807 64.7631 4.09783C62.8356 4.11496 61.3279 5.6741 60.8824 7.44741C60.5826 8.64674 60.8139 9.82035 61.5078 10.8227C61.8105 11.2681 62.2217 11.5223 62.7414 11.5851C63.2897 11.6451 64.0435 11.568 64.6089 11.4909C64.6518 11.4823 64.7203 11.3795 64.6518 11.3795C64.3263 11.3795 63.6323 11.4138 63.4867 11.0026C63.3925 10.7199 63.2811 10.54 63.0584 10.3429C62.3045 9.68329 61.9533 8.9894 61.9447 7.97854C61.9362 6.71067 62.81 5.57985 64.0864 5.50275C65.123 5.43422 66.0653 6.05102 66.5022 6.97622C67.316 8.69812 66.3394 10.7113 64.6261 11.3538C64.5747 11.3795 64.4804 11.5166 64.5832 11.5251Z" fill="#A37254" fill-opacity="0.6"/>
<path d="M63.5226 6.82293C63.1543 7.33693 62.8287 7.85951 62.4518 8.35637C62.1005 8.81041 61.7493 9.27301 61.518 9.80414C61.4923 9.86411 61.458 9.96691 61.5266 10.0183C61.5437 10.0354 61.5608 10.0526 61.578 10.0697C61.6065 10.0811 61.6322 10.0811 61.6551 10.0697C62.1434 9.82128 62.3747 9.09311 62.6659 8.64764C63.0258 8.09937 63.5397 7.49114 63.6511 6.83151C63.6682 6.72871 63.5483 6.7801 63.5226 6.82293Z" fill="#A37254" fill-opacity="0.6"/>
<path d="M63.7539 8.3797C63.2998 9.0993 62.6659 9.78463 62.3318 10.5642C62.1947 10.8897 62.5802 10.7955 62.7087 10.6327C63.2056 9.99024 63.574 9.15927 63.8652 8.4054C63.9081 8.31117 63.7881 8.3283 63.7539 8.3797Z" fill="#A37254" fill-opacity="0.6"/>
<path d="M65.2524 8.98023C65.7836 8.64613 66.1862 8.09787 66.546 7.59243C66.8887 7.10413 67.3598 6.51303 67.3941 5.9048C67.4284 5.4936 66.8715 5.75061 66.7345 5.88767C66.3147 6.34171 66.092 6.92423 65.7921 7.45536C65.5266 7.9094 65.1925 8.43197 65.1582 8.96311C65.1582 9.02307 65.2267 8.99737 65.2524 8.98023Z" fill="#A37254" fill-opacity="0.6"/>
<path d="M7.35123 58.5724C5.14102 58.3583 3.71895 61.0739 3.83032 62.9757C3.94169 64.7747 5.41516 66.0168 7.17989 65.9997C9.09883 65.9826 10.6151 64.432 11.0606 62.6501C11.3604 61.4508 11.1291 60.2858 10.4267 59.2749C10.1297 58.8294 9.72134 58.5753 9.20163 58.5124C8.6448 58.4525 7.89093 58.5382 7.32553 58.6067C7.28269 58.6153 7.21416 58.718 7.28269 58.718C7.60822 58.718 8.30213 58.6838 8.44776 59.095C8.54199 59.3862 8.65337 59.5661 8.88467 59.7632C9.63854 60.4142 9.9812 61.1081 9.98976 62.119C9.99833 63.3954 9.12453 64.5177 7.84809 64.5948C6.82009 64.6633 5.86919 64.0465 5.44086 63.1299C4.62703 61.3994 5.59505 59.3862 7.30839 58.7437C7.35979 58.718 7.45403 58.5896 7.35123 58.5724Z" fill="#A37254" fill-opacity="0.6"/>
<path d="M7.74536 65.3748C9.96413 65.5975 11.3776 62.8733 11.2663 60.9715C11.1549 59.1725 9.68999 57.9303 7.92525 57.9474C5.99775 57.9646 4.49001 59.5237 4.04455 61.297C3.74471 62.4963 3.97601 63.67 4.66991 64.6723C4.9726 65.1178 5.3838 65.3719 5.90351 65.4347C6.45178 65.4947 7.20565 65.4176 7.77962 65.3405C7.82245 65.3405 7.89099 65.2291 7.81389 65.2291C7.48836 65.2291 6.79446 65.2719 6.64882 64.8522C6.55459 64.5695 6.44322 64.3896 6.22049 64.1926C5.46662 63.5329 5.11539 62.839 5.10682 61.8281C5.09825 60.5603 5.97205 59.4295 7.24849 59.3524C8.28506 59.2839 9.22738 59.9007 9.66428 60.8259C10.4781 62.5478 9.50152 64.5695 7.78818 65.212C7.73678 65.2291 7.64256 65.3662 7.74536 65.3748Z" fill="#A37254" fill-opacity="0.6"/>
<path d="M6.68277 60.6804C6.3144 61.1859 5.99743 61.717 5.61193 62.2139C5.2607 62.6679 4.90947 63.1219 4.67817 63.6531C4.65247 63.7131 4.6182 63.8159 4.68673 63.8758C4.70386 63.8872 4.72099 63.9015 4.73813 63.9186C4.76668 63.9358 4.79239 63.9358 4.81524 63.9186C5.30354 63.6702 5.53483 62.9421 5.8261 62.5052C6.19447 61.9569 6.69989 61.3486 6.81126 60.6804C6.82839 60.5776 6.71703 60.629 6.68277 60.6804Z" fill="#A37254" fill-opacity="0.6"/>
<path d="M6.91401 62.2387C6.45997 62.9498 5.82604 63.6351 5.49194 64.4232C5.35487 64.7402 5.74037 64.6459 5.86887 64.4832C6.36574 63.8407 6.73411 63.0097 7.03394 62.2558C7.06821 62.1616 6.95684 62.1787 6.91401 62.2387Z" fill="#A37254" fill-opacity="0.6"/>
<path d="M8.41259 62.8386C8.94373 62.496 9.34636 61.9477 9.70616 61.4423C10.0574 60.954 10.52 60.3714 10.5628 59.7546C10.5885 59.352 10.0317 59.6004 9.89462 59.7375C9.47486 60.1915 9.25212 60.7741 8.95229 61.3052C8.68672 61.7678 8.35263 62.2818 8.31836 62.8129C8.31836 62.8729 8.38689 62.8472 8.41259 62.8386Z" fill="#A37254" fill-opacity="0.6"/>
<path d="M50.5432 10.2309C51.3913 9.83687 51.9567 8.97161 52.5221 8.25201C53.3017 7.25828 54.1241 6.25598 55.1007 5.44214C55.3491 5.22798 55.8289 4.64544 55.3577 4.39701C53.1304 3.20624 50.9887 1.7071 49.0012 0.139395C48.1874 -0.503105 47.2879 1.25304 46.8767 1.80131C45.9515 3.00921 44.992 4.20855 44.1439 5.47642C44.0583 5.60492 43.8955 5.9219 44.0754 6.0504C45.052 6.76429 46.0286 7.47818 47.0052 8.19207C48.0589 8.97163 49.3867 9.39996 50.4233 10.1624C50.5347 10.2395 50.766 9.99962 50.6632 9.91395C49.7208 9.22862 48.9584 8.19205 48.0418 7.45532C47.0394 6.65862 45.9772 5.93901 44.9406 5.17658C44.9178 5.37076 44.8978 5.56209 44.8806 5.75056C46.0714 3.97726 47.4164 2.25536 48.7613 0.584853C48.5557 0.710498 48.3501 0.836144 48.1445 0.961789C47.9132 0.961789 48.0931 0.987491 48.273 1.12456C48.4901 1.29018 48.7071 1.45009 48.9241 1.60429C49.6437 2.124 50.369 2.63799 51.1001 3.14628C52.2223 3.92585 53.3017 4.92816 54.501 5.58779C54.5924 5.23941 54.6809 4.89103 54.7666 4.54265C53.85 5.30509 53.0618 6.16175 52.308 7.07838C51.6226 7.91792 50.5261 8.9802 50.3205 10.0939C50.2948 10.2395 50.4147 10.2909 50.5432 10.2309Z" fill="#A37254" fill-opacity="0.6"/>
<path d="M48.1449 3.44592C47.3911 4.35399 46.3202 5.13357 45.7548 6.18727C45.5749 6.52137 45.9947 6.5385 46.1746 6.34146C46.5601 5.90456 46.9113 5.42482 47.2797 4.96222C47.6481 4.49105 48.0421 4.01988 48.2649 3.46305C48.3077 3.36025 48.1878 3.39452 48.1449 3.44592Z" fill="#A37254" fill-opacity="0.6"/>
<path d="M47.9043 5.16541C47.5188 5.38814 47.2104 5.71367 46.9192 6.0392C46.6365 6.35617 46.3195 6.7074 46.2681 7.13573C46.2338 7.3756 46.5679 7.28993 46.6707 7.21283C46.9705 6.97296 47.1676 6.64743 47.3732 6.33046C47.5959 5.9878 47.8615 5.66226 48.0157 5.28533C48.05 5.19966 47.9986 5.10544 47.9043 5.16541Z" fill="#A37254" fill-opacity="0.6"/>
<path d="M51.0834 6.6249C51.9487 6.1109 52.5997 5.43413 53.2422 4.6717C53.3879 4.50036 53.6363 4.16626 53.4221 3.9521C53.1651 3.6951 52.7539 4.07204 52.5997 4.26051C52.0001 4.99725 51.3918 5.67399 50.9978 6.53922C50.9721 6.59919 51.0149 6.65916 51.0834 6.6249Z" fill="#A37254" fill-opacity="0.6"/>
<path d="M22.6412 61.595C23.4893 61.1923 24.0461 60.3357 24.6115 59.6161C25.3997 58.6138 26.2135 57.62 27.1987 56.7976C27.4471 56.5835 27.9268 56.0095 27.4557 55.7525C25.2283 54.5617 23.0866 53.0626 21.0992 51.4949C20.2853 50.8524 19.3859 52.6085 18.9747 53.1568C18.0495 54.3647 17.09 55.5726 16.2333 56.8319C16.1562 56.9604 15.9934 57.2774 16.1733 57.4059C17.1499 58.1198 18.1266 58.8365 19.1032 59.5561C20.1569 60.3271 21.4847 60.7555 22.5213 61.5179C22.6326 61.6036 22.8639 61.3551 22.7611 61.278C21.8188 60.5927 21.0564 59.5561 20.1397 58.8194C19.1374 58.0141 18.0666 57.2945 17.0386 56.5321C17.0157 56.7263 16.9929 56.9176 16.9701 57.1061C18.1694 55.3327 19.5143 53.6194 20.8593 51.9489C20.6537 52.0688 20.4481 52.1916 20.2425 52.3173C20.0112 52.3173 20.1826 52.343 20.3625 52.48C20.5795 52.6456 20.7993 52.8084 21.0221 52.9683C21.7417 53.488 22.467 53.9992 23.198 54.5018C24.3203 55.2899 25.3997 56.2922 26.599 56.9518C26.6904 56.5977 26.7789 56.2465 26.8646 55.8981C25.9479 56.6606 25.1598 57.5172 24.4059 58.4339C23.7206 59.282 22.6155 60.3442 22.4185 61.4493C22.3928 61.6035 22.5127 61.6549 22.6412 61.595Z" fill="#A37254" fill-opacity="0.6"/>
<path d="M20.2426 54.8021C19.4887 55.7188 18.4093 56.4898 17.8525 57.5435C17.6726 57.8776 18.0923 57.9033 18.2722 57.7062C18.6577 57.2608 19.009 56.781 19.3773 56.327C19.7457 55.8558 20.1398 55.3847 20.3625 54.8278C20.4053 54.7165 20.2854 54.7507 20.2426 54.8021Z" fill="#A37254" fill-opacity="0.6"/>
<path d="M19.9954 56.5337C19.6184 56.7564 19.31 57.0734 19.0187 57.4075C18.736 57.7159 18.4191 58.0672 18.3677 58.4955C18.3334 58.7354 18.6675 58.6497 18.7703 58.5726C19.0701 58.3327 19.2672 58.0072 19.4728 57.6902C19.6955 57.3561 19.9611 57.0306 20.1153 56.6451C20.1495 56.5594 20.0982 56.4737 19.9954 56.5337Z" fill="#A37254" fill-opacity="0.6"/>
<path d="M23.1831 57.9809C24.0997 57.4498 24.7679 56.7045 25.4532 55.8992C25.5903 55.745 25.7017 55.3595 25.4361 55.2567C25.1534 55.1539 24.8535 55.4281 24.6993 55.6251C24.0997 56.3533 23.5 57.03 23.0974 57.9038C23.0717 57.9638 23.1145 58.0238 23.1831 57.9809Z" fill="#A37254" fill-opacity="0.6"/>
</svg>
