<svg width="84" height="59" viewBox="0 0 84 59" fill="none" xmlns="http://www.w3.org/2000/svg">
<path d="M38.4957 37.8919C41.9905 40.568 45.1745 44.0173 47.0698 48.0201C48.495 51.0298 49.056 55.4267 45.781 57.4584C42.9381 59.2248 39.0263 58.8533 35.8802 58.4591C31.5186 57.9083 27.3642 56.6725 23.4171 54.752C19.0352 52.6142 14.6989 50.4005 10.734 47.5122C7.30741 45.018 3.8429 41.8947 2.11443 37.9298C0.818078 34.9732 1.09099 31.6451 3.86564 29.7044C6.45834 27.8925 10.0138 27.6348 13.0841 27.7258C19.0125 27.8925 24.8953 30.0076 30.1414 32.661C30.5887 32.8884 31.0663 33.3812 31.0587 33.9194C31.0511 34.4501 30.4825 34.4728 30.1187 34.2909C25.191 31.7968 19.8464 29.9394 14.3047 29.5528C11.1131 29.3329 7.56517 29.4012 4.68439 30.9401C1.03035 32.8808 2.06894 37.202 3.86564 40.098C6.55689 44.4191 11.0524 47.7699 15.3736 50.3171C17.4584 51.5453 19.6114 52.5081 21.8554 53.4102C23.7885 54.1835 25.8278 54.5019 27.8368 55.0249C31.8244 56.0635 35.8726 57.0491 40.027 56.852C41.5205 56.7837 43.0518 56.5108 44.3634 55.7451C45.7431 54.9416 46.342 53.2965 46.3723 51.7651C46.4102 49.6879 45.3641 47.6411 44.2648 45.9353C43.0215 44.0098 41.4674 42.2889 39.7844 40.7348C39.2083 40.2091 38.6119 39.7113 37.9953 39.2413C37.639 38.9684 37.1614 38.4226 37.3433 37.9298C37.5253 37.437 38.2 37.672 38.4957 37.8919Z" fill="#A37254" fill-opacity="0.6"/>
<path d="M35.7751 22.0844C31.3175 19.9465 26.5035 18.4606 21.5759 17.9148C17.4367 17.4524 13.1155 17.7253 9.29467 19.5068C5.36771 21.349 2.38079 25.0713 1.42558 29.2939C0.493121 33.4407 2.16095 37.5951 4.5338 40.9383C9.8405 48.4132 18.498 52.9618 26.9887 55.8047C29.7255 56.722 32.4925 57.4118 35.3127 57.9956C38.292 58.6172 41.4002 58.8219 44.3795 58.1396C48.9281 57.1086 52.2486 52.9087 53.4237 48.58C55.372 41.3477 50.9447 33.888 45.9109 29.0665C45.5015 28.6723 45.9033 28.2629 46.3051 28.6723C52.6656 35.0479 57.3279 45.2292 51.5209 53.4773C50.3003 55.2133 48.6476 56.631 46.7448 57.5862C44.4781 58.7309 41.946 58.8295 39.4595 58.8598C34.0163 58.9129 28.6717 57.571 23.6303 55.6151C15.6779 52.5372 7.89977 47.6399 3.10099 40.4228C0.925243 37.1554 -0.439336 33.2663 0.129239 29.3166C0.712977 25.2532 3.34358 21.4627 6.8081 19.3097C10.8109 16.8156 15.6779 16.3304 20.2871 16.7549C25.6621 17.2401 30.9688 18.87 35.7903 21.2656C36.2148 21.4779 36.4498 22.4103 35.7751 22.0844Z" fill="#A37254" fill-opacity="0.6"/>
<path d="M8.02108 28.7853C10.0149 35.2064 16.3147 39.2622 21.9701 42.2112C28.6414 45.6833 35.8206 48.0107 43.3258 48.693C43.9626 48.7536 44.607 48.7233 45.2438 48.6854C45.9716 48.6399 46.3127 48.6475 46.9495 49.0265C47.1011 49.1175 47.2149 49.3146 47.177 49.489C47.1517 49.6052 47.1264 49.7215 47.1011 49.8377C47.0632 49.9969 46.8889 50.0424 46.7448 50.0576C39.8082 51.0582 32.5835 48.6247 26.2837 45.9032C22.6676 44.3415 19.2182 42.4083 16.0418 40.081C13.3884 38.1402 10.8715 35.8204 9.14307 33.0003C8.71854 32.3079 8.3597 31.5826 8.06657 30.8245C7.78608 30.0816 7.79365 29.4827 7.83155 28.717C7.83913 28.5882 7.99833 28.7322 8.02108 28.7853Z" fill="#A37254" fill-opacity="0.6"/>
<path d="M0.843181 35.2904C0.107823 33.7666 0.244285 31.7728 0.941737 30.2642C1.64677 28.7631 3.10991 27.7549 4.57304 27.0802C6.33184 26.2766 8.30289 25.9203 10.2133 25.7231C12.2374 25.5109 14.2237 25.5033 16.1871 26.0719C16.2554 26.0946 16.3994 26.2614 16.2629 26.2841C14.5345 26.5495 12.8136 26.4585 11.07 26.5722C9.23535 26.7011 7.40076 27.0195 5.67229 27.6487C4.16367 28.2097 2.79908 29.0664 1.84388 30.3703C1.35111 31.045 1.05545 31.841 0.926572 32.6673C0.782533 33.5543 0.987227 34.4261 0.93416 35.3131C0.93416 35.3662 0.858343 35.3131 0.843181 35.2904Z" fill="#A37254" fill-opacity="0.6"/>
<path d="M39.171 36.0561C44.0305 39.5434 49.4509 45.0851 49.7314 51.4228C49.8148 53.4469 49.2007 55.6151 47.5253 56.8659C46.6914 57.48 45.7438 57.8894 44.7734 58.2229C44.0507 58.4655 43.3153 58.6601 42.5673 58.8067C41.6197 59.0038 40.7403 58.8901 39.7851 58.8598C39.679 58.8598 39.4364 58.6247 39.6031 58.5565C40.2551 58.3139 40.8464 57.95 41.5363 57.8212C42.2388 57.6948 42.9388 57.5533 43.6362 57.3966C44.6218 57.1692 45.5846 56.8584 46.4715 56.3656C48.291 55.3649 48.8823 53.2347 48.905 51.2788C48.9505 48.3146 47.3813 45.5096 45.6983 43.1671C43.803 40.5365 41.506 38.3228 39.118 36.1395C39.0573 36.0864 39.0952 36.003 39.171 36.0561Z" fill="#A37254" fill-opacity="0.6"/>
<path d="M8.09531 34.7085C7.24624 33.8443 6.64734 32.8739 6.12425 31.7974C5.7831 31.1 5.11598 29.5989 6.07119 29.1592C6.147 29.1213 6.25313 29.2199 6.28345 29.2805C6.60944 30.122 6.44265 30.9787 6.6246 31.858C6.83686 32.8739 7.54948 33.8519 8.18628 34.6479C8.25451 34.7313 8.15596 34.7692 8.09531 34.7085Z" fill="#A37254" fill-opacity="0.6"/>
<path d="M6.75422 41.8469C5.38206 40.3837 4.12362 38.8448 3.06986 37.1391C2.46338 36.1611 0.878955 33.2728 2.21321 32.3631C2.31935 32.2948 2.44064 32.4313 2.47096 32.5222C2.72114 33.3334 2.615 34.1446 2.78936 34.9709C2.97131 35.8579 3.35036 36.7373 3.78247 37.5333C4.62396 39.0647 5.76869 40.4217 6.83762 41.7938C6.89826 41.8696 6.80729 41.9075 6.75422 41.8469Z" fill="#A37254" fill-opacity="0.6"/>
<path d="M5.51942 34.3807C5.0873 33.8728 2.56283 30.4537 4.24581 30.3021C4.30646 30.2945 4.38227 30.3628 4.40501 30.4158C4.65519 30.9996 4.4884 31.6288 4.57937 32.2504C4.67793 32.9934 5.23134 33.706 5.58765 34.3504C5.61797 34.4034 5.54975 34.411 5.51942 34.3807Z" fill="#A37254" fill-opacity="0.6"/>
<path d="M6.83862 35.9942C7.31622 36.6689 8.07433 37.1086 8.59741 37.753C8.63532 37.7985 8.61257 37.8667 8.54434 37.8288C7.75592 37.3891 7.1267 36.8281 6.72491 36.0094C6.67942 35.9108 6.80071 35.9336 6.83862 35.9942Z" fill="#A37254" fill-opacity="0.6"/>
<path d="M32.3481 50.0279C34.6527 50.8618 37.0483 51.3015 39.4818 51.5138C40.8868 51.6351 42.2918 51.625 43.6969 51.4834C44.4499 51.4076 45.1928 51.2661 45.9257 51.0589C46.6534 50.8542 47.0325 50.8542 47.7527 51.0968C47.8437 51.1271 47.9574 51.2257 47.927 51.3318C47.7375 51.999 47.4798 52.143 46.8051 52.287C46.0697 52.4538 45.3116 52.5524 44.5611 52.6206C43.1055 52.757 41.5742 52.6812 40.1262 52.4765C37.4501 52.1051 34.8195 51.2788 32.3632 50.1568C32.3102 50.134 32.2571 49.99 32.3481 50.0279Z" fill="#A37254" fill-opacity="0.6"/>
<path d="M25.4117 53.0375C29.2932 53.9548 33.1746 54.6523 37.1471 55.092C39.0499 55.3042 40.9679 55.471 42.8859 55.3801C44.296 55.3118 45.615 54.7357 47.0024 54.7205C47.1009 54.7205 47.2298 54.8494 47.1995 54.9479C46.7977 56.1988 44.8645 56.2367 43.7653 56.3201C41.8625 56.4793 39.8914 56.3353 37.9961 56.0775C33.766 55.4938 29.5206 54.4097 25.442 53.1588C25.3889 53.1437 25.3207 53.0148 25.4117 53.0375Z" fill="#A37254" fill-opacity="0.6"/>
<path d="M34.7153 53.2362C36.9668 53.3803 39.1729 53.8806 41.4244 54.0019C42.554 54.0625 43.6608 53.9185 44.7525 53.6456C45.7911 53.3803 46.4355 52.842 47.5347 53.1073C47.656 53.1377 47.838 53.3045 47.7773 53.4409C47.4286 54.29 46.5265 54.4643 45.6698 54.5932C44.4872 54.7752 43.206 54.6235 42.0158 54.5098C39.5823 54.2748 37.1639 53.82 34.7607 53.3651C34.7153 53.3575 34.6319 53.2362 34.7153 53.2362Z" fill="#A37254" fill-opacity="0.6"/>
<path d="M30.1629 52.1193C30.451 52.089 30.777 52.1724 31.0575 52.2103C31.5048 52.2709 31.9369 52.4529 32.3614 52.6121C32.4069 52.6272 32.4903 52.7485 32.3993 52.7637C31.899 52.8243 31.482 52.9456 30.9817 52.7864C30.7012 52.6955 30.1857 52.4983 30.1402 52.1496C30.1351 52.1294 30.1427 52.1193 30.1629 52.1193Z" fill="#A37254" fill-opacity="0.6"/>
<path d="M41.2033 58.3682C42.3253 57.5267 43.9628 57.4357 45.1985 56.7534C46.5327 56.0181 47.7684 54.8809 48.8753 53.8423C51.3543 51.5149 52.5672 48.2475 52.8401 44.9043C53.0827 41.8264 52.082 38.8092 50.7478 36.0724C50.0453 34.6573 49.2164 33.3205 48.2612 32.0621C47.8266 31.4859 47.3565 30.935 46.8511 30.4094C46.3205 29.8484 45.7216 29.4391 45.4562 28.681C45.3046 28.2488 45.6685 28.0593 46.0248 28.1048C46.7526 28.2034 47.3287 28.9463 47.8139 29.4466C48.3977 30.038 48.9283 30.6823 49.4438 31.3419C50.5279 32.7141 51.4452 34.2303 52.2488 35.7844C53.7878 38.7637 54.8567 42.1221 54.7278 45.4956C54.5913 49.0056 53.295 52.4853 50.8691 55.0477C49.6409 56.344 48.2688 57.1021 46.6313 57.7541C45.0165 58.3909 43.0455 59.1035 41.317 58.5577C41.2715 58.5425 41.1275 58.4288 41.2033 58.3682Z" fill="#A37254" fill-opacity="0.6"/>
<path d="M53.279 46.1228C54.6588 45.8094 56.0461 45.534 57.441 45.2965C59.0178 45.0311 60.5189 44.4929 62.0123 43.9319C64.7036 42.9312 67.1977 41.7334 69.6237 40.1717C73.6871 37.5563 77.8036 34.3116 80.2901 30.0966C81.9807 27.2158 82.8222 23.0083 79.2667 21.2116C76.492 19.8167 72.9062 19.9001 69.889 20.173C64.8931 20.6203 60.0564 22.2578 55.5533 24.4184C51.452 26.3743 47.472 28.8608 44.1515 31.9766C41.2935 34.6603 38.2307 38.2992 37.6849 42.3171C37.4802 43.8106 37.7607 45.6603 39.1708 46.4867C41.0964 47.6011 43.6663 47.5101 45.8117 47.3812C46.6608 47.3282 47.8738 49.1779 46.7139 49.2537C42.4913 49.5039 37.5409 48.8823 36.0398 44.2806C34.7283 40.2778 37.6773 35.896 40.0957 32.9849C43.1129 29.346 47.0398 26.5941 51.1184 24.2668C55.8262 21.5907 60.9586 19.5893 66.3108 18.6796C69.8208 18.0807 73.5203 18.0276 76.9621 19.0586C79.858 19.938 82.5872 21.947 82.7085 25.1992C82.8525 29.0883 79.767 32.568 77.1364 35.0469C73.2853 38.6858 68.6685 41.1042 64.0819 43.6438C62.6567 44.4398 61.1708 45.0463 59.7229 45.7968C58.0854 46.6459 56.3493 47.404 54.5678 47.9195C53.6732 48.1772 52.3769 46.3275 53.279 46.1228Z" fill="#A37254" fill-opacity="0.6"/>
<path d="M60.3307 7.69632C64.6898 6.96096 69.2687 6.87757 73.4914 8.3407C77.6306 9.77351 80.9435 12.8362 82.7857 16.7935C86.5534 24.8749 80.8904 32.8956 74.9242 38.0127C68.9883 43.1148 61.6802 46.3973 54.1446 48.3077C53.6822 48.429 52.9165 47.4738 53.4396 47.3298C62.461 44.8205 71.3383 40.4538 77.6306 33.358C80.3673 30.2725 82.6037 26.4593 82.816 22.2518C83.0434 17.7032 80.4204 13.3821 76.7057 10.9182C72.1268 7.87068 66.0696 7.92375 60.8387 8.76524C60.3611 8.84863 59.656 7.81003 60.3307 7.69632Z" fill="#A37254" fill-opacity="0.6"/>
<path d="M46.54 49.3162C44.0383 49.483 41.4911 49.5058 39.0576 48.8159C37.3443 48.3307 35.7977 47.3527 34.4711 46.1777C31.5751 43.6077 29.8997 39.749 29.7557 35.913C29.604 31.7889 31.2719 27.6497 33.44 24.2307C35.9039 20.3492 39.3911 17.1652 43.1134 14.5194C43.5379 14.2238 44.3264 15.0956 43.8488 15.3912C37.0789 19.6139 31.1733 26.2472 30.2257 34.4347C29.7557 38.4754 31.2643 42.554 34.0465 45.4802C37.3139 48.9144 41.8549 49.4451 46.3656 48.9675C46.5324 48.9523 46.7523 49.3086 46.54 49.3162Z" fill="#A37254" fill-opacity="0.6"/>
<path d="M40.3917 40.8102C39.247 40.7723 37.799 40.9163 36.9727 39.999C36.8817 39.8929 36.7756 39.7489 36.8287 39.6048C36.9879 39.1424 37.329 39.1879 37.7611 39.2258C38.3878 39.2814 39.017 39.2965 39.6488 39.2713C40.0885 39.2561 40.513 39.6655 40.695 40.0294C40.8314 40.325 40.8314 40.8254 40.3917 40.8102Z" fill="#A37254" fill-opacity="0.6"/>
<path d="M76.1657 19.3711C76.4235 21.4635 75.3697 23.2678 74.2478 24.9583C72.8453 27.0507 70.9121 28.8246 68.9411 30.3636C64.1953 34.0631 58.6991 36.6937 53.0134 38.589C52.1719 38.8695 50.7846 37.1107 51.7246 36.7923C57.1905 34.9728 62.5958 32.4711 67.3415 29.1809C69.3732 27.7784 71.3063 26.2016 72.9363 24.3367C74.2857 22.8053 75.0513 21.0465 75.9762 19.2574C76.0293 19.1589 76.1582 19.3105 76.1657 19.3711Z" fill="#A37254" fill-opacity="0.6"/>
<path d="M83.0642 25.8313C83.0263 24.9367 83.1855 24.0573 83.0945 23.1628C83.0111 22.2909 82.6927 21.4494 82.2 20.7292C81.2978 19.395 79.8195 18.6066 78.3412 18.0835C74.9222 16.8857 71.3591 17.2799 67.834 16.8478C67.7733 16.8402 67.5914 16.681 67.7127 16.6355C69.5245 15.9835 71.4653 16.1048 73.3605 16.2868C75.3392 16.4763 77.3178 16.8857 79.1524 17.6817C80.6989 18.3564 82.109 19.4329 82.9505 20.9188C83.7086 22.2682 84.0194 24.5273 83.1552 25.8919C83.1249 25.9298 83.0642 25.854 83.0642 25.8313Z" fill="#A37254" fill-opacity="0.6"/>
<path d="M47.9661 24.459C43.1749 28.3632 37.8227 32.8587 35.6924 38.8705C34.8964 41.122 34.6159 44.3591 36.3596 46.2695C37.0949 47.0655 38.2169 47.4673 39.2328 47.7706C39.9378 47.9828 40.6731 48.1269 41.4009 48.2785C42.3789 48.4756 43.2962 48.8319 44.2514 49.12C44.3424 49.1503 44.5622 49.4232 44.3651 49.4232C43.4326 49.4536 42.5836 49.5142 41.6587 49.3247C40.845 49.1528 40.0465 48.9305 39.2631 48.6575C38.1184 48.2633 37.0343 47.7251 36.1397 46.9063C34.2672 45.1703 34.0322 42.2971 34.4643 39.9318C35.086 36.4976 37.3299 33.4349 39.627 30.9104C40.8703 29.5383 42.2652 28.3405 43.7283 27.2185C45.055 26.2026 46.4044 25.1564 47.8599 24.3377C47.913 24.3074 48.0191 24.4211 47.9661 24.459Z" fill="#A37254" fill-opacity="0.6"/>
<path d="M51.284 22.813C50.814 23.374 50.0787 24.0563 49.2827 23.8061C49.2144 23.7834 49.1159 23.7 49.1235 23.609C49.1917 22.7827 50.5563 22.7296 51.1855 22.669C51.2386 22.6614 51.3295 22.76 51.284 22.813Z" fill="#A37254" fill-opacity="0.6"/>
<path d="M75.803 25.1639C76.4297 24.335 76.9275 23.4354 77.2964 22.465C77.5011 21.9268 77.486 21.3051 77.5011 20.7366C77.5087 20.3272 77.4329 20.0467 77.721 19.7359C77.7665 19.6828 77.865 19.7359 77.9029 19.7814C79.366 21.3734 77.1221 24.1632 75.9318 25.2928C75.8788 25.3534 75.7575 25.2245 75.803 25.1639Z" fill="#A37254" fill-opacity="0.6"/>
<path d="M77.1525 32.3128C78.2139 30.88 79.3283 29.4851 80.1925 27.9234C80.6246 27.1426 80.9279 26.2632 81.1553 25.4065C81.3676 24.6257 81.1326 23.6477 81.5268 22.9579C81.5874 22.8517 81.7163 22.9503 81.7694 23.0185C82.8004 24.3528 81.9362 26.4072 81.1098 27.6505C79.9727 29.379 78.7369 30.9634 77.2738 32.4341C77.2207 32.4872 77.1146 32.3659 77.1525 32.3128Z" fill="#A37254" fill-opacity="0.6"/>
<path d="M78.4104 24.8815C78.8501 23.9718 79.3883 23.153 79.4566 22.122C79.4717 21.8794 79.2367 20.6589 79.7826 20.9166C80.4269 21.2274 80.3284 22.2281 80.0934 22.7512C79.737 23.5624 79.1154 24.3281 78.4938 24.9573C78.4635 24.9876 78.3952 24.9194 78.4104 24.8815Z" fill="#A37254" fill-opacity="0.6"/>
<path d="M77.2798 26.6265C77.1131 27.0056 76.969 27.3467 76.6658 27.6348C76.3221 27.9582 75.933 28.2135 75.4983 28.4005C75.4528 28.4232 75.3543 28.3398 75.3846 28.2867C75.612 27.9229 75.9077 27.6348 76.2261 27.3543C76.5293 27.0814 76.8932 26.8312 77.151 26.5128C77.1889 26.4597 77.3026 26.5734 77.2798 26.6265Z" fill="#A37254" fill-opacity="0.6"/>
<path d="M42.8784 43.1832C41.5669 43.259 40.2857 43.2362 38.9818 43.0695C37.8446 42.9178 36.8515 42.7586 36.101 41.8337C36.0782 41.8034 36.0403 41.7124 36.0858 41.6745C36.7302 41.1515 37.6323 41.6745 38.3525 41.8337C39.664 42.1218 41.0514 42.1901 42.3856 42.1749C42.8329 42.1673 43.5152 43.1453 42.8784 43.1832Z" fill="#A37254" fill-opacity="0.6"/>
<path d="M45.5394 46.7462C43.7048 46.9281 41.8475 47.0343 40.0129 46.822C38.8378 46.6855 37.5642 46.4657 36.8364 45.4574C36.7758 45.3816 36.7834 45.2755 36.8971 45.2906C37.9812 45.4347 39.0046 45.7986 40.1114 45.9047C41.7565 46.0563 43.4319 45.9502 45.077 45.791C45.5091 45.7531 46.1307 46.6855 45.5394 46.7462Z" fill="#A37254" fill-opacity="0.6"/>
<path d="M58.6156 43.7219C57.1525 44.1919 55.6514 44.5255 54.1807 44.9803C53.976 45.041 53.6879 44.624 53.9457 44.5861C55.4846 44.3511 57.0084 43.9417 58.5322 43.6006C58.5853 43.5854 58.6838 43.6991 58.6156 43.7219Z" fill="#A37254" fill-opacity="0.6"/>
<path d="M44.2888 44.8046C41.8932 45.1836 38.1937 45.9796 36.3136 43.9707C36.2454 43.9025 36.1468 43.7357 36.2757 43.675C36.7533 43.4552 37.0338 43.5765 37.519 43.7508C38.1709 43.9934 38.8153 44.2209 39.4976 44.3573C41.0214 44.6681 42.5679 44.5696 44.1069 44.418C44.2736 44.4028 44.5314 44.7667 44.2888 44.8046Z" fill="#A37254" fill-opacity="0.6"/>
<path d="M44.2806 49.1263C42.6962 49.6949 40.7403 49.331 39.1331 49.0051C37.3667 48.6487 35.9188 47.7011 34.6073 46.5109C31.9236 44.0622 30.18 40.4613 29.7857 36.8679C29.3991 33.2745 30.4453 29.6053 32.007 26.3985C32.8257 24.7307 33.9629 23.3661 35.1076 21.9181C35.6838 21.1954 36.2928 20.5055 36.9346 19.8485C37.5714 19.1965 38.1855 18.8933 38.9663 18.4612C39.0497 18.4233 39.1938 18.5825 39.1331 18.6583C38.6707 19.2269 38.3371 19.803 37.8064 20.3337C37.2252 20.92 36.6718 21.534 36.1462 22.1759C35.0697 23.4798 34.3647 24.9884 33.5687 26.4743C32.007 29.3551 31.0063 32.5922 30.9532 35.8823C30.9001 39.3317 32.3026 42.6901 34.6073 45.2297C37.1924 48.0878 40.6114 48.2697 44.1669 48.8838C44.2351 48.8989 44.4095 49.0809 44.2806 49.1263Z" fill="#A37254" fill-opacity="0.6"/>
<path d="M49.5498 19.0826C51.9303 20.3108 54.3941 19.8862 56.3727 18.1426C58.0557 16.6567 58.9882 14.4052 59.5871 12.2901C59.9206 11.0998 60.0571 9.8793 60.0647 8.6436C60.0647 7.33209 59.6023 6.22526 59.1019 5.0502C58.6925 4.07225 58.268 3.10189 57.7752 2.16943C57.3128 1.29762 57.0247 1.23697 56.0392 1.17632C54.341 1.06261 52.5519 1.23696 50.9675 1.88135C49.6636 2.41202 48.3824 3.00334 47.0784 3.52642C45.7745 4.04193 44.5161 4.34518 43.4471 5.30796C41.423 7.12741 41.4837 9.46993 42.4768 11.7821C43.3713 13.8745 44.7056 15.8683 46.5932 17.1722C47.3134 17.665 48.0412 18.135 48.7538 18.6429C48.8296 18.696 48.86 18.8931 48.7235 18.8173C47.8062 18.3018 46.8207 17.9531 45.9185 17.4148C45.0088 16.8614 44.2886 16.0502 43.6442 15.2163C42.4161 13.6243 41.4306 11.6912 40.953 9.75043C40.4375 7.66566 41.2941 5.70975 42.8255 4.2921C43.6518 3.52642 44.6677 3.18528 45.6911 2.75316C47.086 2.16942 48.4506 1.5023 49.8455 0.910981C51.4527 0.22111 53.0977 0.0164255 54.849 0.00126353C56.4106 -0.0138985 57.6236 0.228686 58.4803 1.61601C59.0034 2.46508 59.39 3.38238 59.7842 4.2921C60.2087 5.27763 60.6863 6.26316 60.9592 7.30176C61.5278 9.45476 60.9668 11.8655 60.1708 13.8897C59.299 16.0881 58.0178 18.0137 55.971 19.2722C53.9468 20.5155 51.5512 20.3638 49.5498 19.1812C49.5044 19.1509 49.474 19.0447 49.5498 19.0826Z" fill="#A37254" fill-opacity="0.6"/>
<path d="M43.7881 14.5641C44.1444 14.9886 45.0238 16.6185 45.6227 16.2016C46.4187 15.6482 46.6537 14.6171 47.3057 13.9576C47.7302 13.5179 48.3821 13.2601 48.9431 13.0479C49.8756 12.6916 50.7702 12.2367 51.7026 11.8804C52.6275 11.5216 53.5625 11.1981 54.5076 10.91C55.0762 10.7433 55.6751 10.4855 56.274 10.5158C57.0851 10.5537 57.8812 10.7736 58.6923 10.8266C59.079 10.8494 59.5186 10.8342 59.8446 10.6068C60.0872 10.44 60.1706 10.1064 60.3374 9.8866C60.3905 9.81837 60.489 9.93208 60.5118 9.96999C61.6262 11.9486 58.2147 11.4483 57.3126 11.3042C55.3567 10.9858 53.4538 11.8652 51.6647 12.5779C50.6261 12.9948 49.6709 13.4497 48.746 14.0789C48.0638 14.5413 47.7681 15.5344 47.2829 16.1788C46.684 16.9597 46.0775 17.2553 45.2739 16.6716C44.5916 16.1712 44.0761 15.3298 43.7123 14.5792C43.6743 14.511 43.7653 14.5338 43.7881 14.5641Z" fill="#A37254" fill-opacity="0.6"/>
<path d="M55.7511 10.8872C55.2886 9.19663 54.8414 7.50606 54.2652 5.84582C53.9822 5.03718 53.6688 4.24118 53.3252 3.45781C52.9764 2.64664 52.3851 1.98709 52.0212 1.18351C51.6194 0.296532 52.7793 0.675578 53.0598 1.16834C53.4692 1.88096 53.6057 2.70729 53.9316 3.45023C54.2551 4.18812 54.5507 4.9361 54.8186 5.6942C55.4175 7.36202 55.8875 9.15114 55.88 10.9327C55.88 11.0161 55.7662 10.9251 55.7511 10.8872Z" fill="#A37254" fill-opacity="0.6"/>
<path d="M47.8899 14.2395C46.6693 12.7916 45.8203 11.0858 45.047 9.37253C44.6225 8.42238 44.2459 7.45453 43.9174 6.469C43.7203 5.89285 43.2655 4.99828 43.6597 4.43729C43.7052 4.37664 43.8113 4.4752 43.834 4.50553C44.2434 5.08168 44.342 5.73365 44.5467 6.40078C44.8499 7.41663 45.2517 8.39457 45.6686 9.36494C46.3737 11.01 47.2 12.6172 48.0112 14.2168C48.0642 14.3229 47.9354 14.285 47.8899 14.2395Z" fill="#A37254" fill-opacity="0.6"/>
<path d="M51.0289 18.3248C49.5961 17.2938 48.3983 15.6866 47.4431 14.2235C47.0717 13.6473 47.7615 13.5639 48.0572 13.996C49.0351 15.4061 50.3997 16.7025 51.1427 18.249C51.1806 18.34 51.0972 18.3703 51.0289 18.3248Z" fill="#A37254" fill-opacity="0.6"/>
<path d="M55.0391 17.1945C55.0694 15.9588 55.2058 14.7156 55.2892 13.4874C55.3297 12.8759 55.3752 12.2644 55.4257 11.6528C55.4712 11.1525 55.3196 10.8947 55.7289 10.6066C55.8351 10.5308 55.964 10.6521 56.017 10.7431C56.4188 11.577 56.0701 12.5777 55.9033 13.4647C55.6759 14.7307 55.4409 16.0043 55.1452 17.2552C55.13 17.3083 55.0391 17.2324 55.0391 17.1945Z" fill="#A37254" fill-opacity="0.6"/>
<path d="M44.8263 16.1881C43.909 14.5582 43.5981 12.6705 43.401 10.8359C43.1963 8.84968 43.2343 6.81039 43.1584 4.81659C43.1433 4.3314 43.8559 4.8545 43.9165 5.09709C44.1516 5.95375 44.0378 6.86346 44.0682 7.74286C44.1136 8.74355 44.3259 9.70633 44.4169 10.6919C44.5913 12.5265 44.9476 14.3838 44.9627 16.2184C44.9627 16.3094 44.849 16.2184 44.8263 16.1881Z" fill="#A37254" fill-opacity="0.6"/>
<path d="M43.3102 4.53685C44.3488 4.65056 45.3419 5.26463 46.2743 5.68917C47.4873 6.24258 48.6775 6.84147 49.8677 7.42521C51.0655 8.01147 52.2633 8.60027 53.4611 9.19159C54.3026 9.60854 55.6824 10.0407 56.1979 10.8746C56.2206 10.9125 56.2509 10.9807 56.1979 11.0034C55.5383 11.2536 54.3557 10.2453 53.7795 9.96485C52.5817 9.37353 51.3865 8.78222 50.1937 8.1909C48.9959 7.59958 47.7956 7.01079 46.5927 6.42452C45.5011 5.88627 44.273 5.40108 43.3253 4.62782C43.3102 4.61266 43.2571 4.52927 43.3102 4.53685Z" fill="#A37254" fill-opacity="0.6"/>
<path d="M55.7288 11.1012C55.3877 9.43335 55.9638 7.4547 56.1609 5.78688C56.262 4.93275 56.3858 4.08368 56.5324 3.23966C56.684 2.39059 56.7447 1.33684 57.1844 0.5939C57.2374 0.510509 57.3436 0.631797 57.3511 0.692445C57.4269 1.41264 57.1692 2.10252 57.0403 2.80755C56.8584 3.85878 56.6967 4.91506 56.5551 5.97641C56.4338 6.9114 56.305 7.84386 56.1685 8.7738C56.0472 9.55464 56.0321 10.3886 55.8046 11.1391C55.7895 11.177 55.7288 11.1239 55.7288 11.1012Z" fill="#A37254" fill-opacity="0.6"/>
<path d="M54.5165 12.4259C54.5064 12.1884 54.4938 11.9508 54.4786 11.7133C54.4635 11.501 54.3876 11.2887 54.562 11.1447C54.6454 11.0765 54.7591 11.1902 54.797 11.2584C55.0093 11.645 54.7591 12.1075 54.6302 12.4941C54.6075 12.5623 54.5165 12.4638 54.5165 12.4259Z" fill="#A37254" fill-opacity="0.6"/>
<path d="M56.7898 12.169C56.7746 11.6989 56.7216 11.2213 56.7595 10.7589C56.7898 10.4405 57.2447 10.7816 57.2523 10.9939C57.2598 11.4336 57.1158 11.8581 56.9111 12.2372C56.8808 12.3054 56.7898 12.2144 56.7898 12.169Z" fill="#A37254" fill-opacity="0.6"/>
<path d="M51.4162 17.0825C50.8476 16.3699 50.226 15.7103 49.6119 15.028C49.2783 14.6566 48.4748 14.0349 48.5657 13.4891C48.5809 13.3754 48.6794 13.3602 48.778 13.4057C49.3693 13.6786 49.718 14.4898 50.1123 14.9826C50.6353 15.6345 51.1812 16.3092 51.5375 17.0598C51.5906 17.1659 51.4541 17.1356 51.4162 17.0825Z" fill="#A37254" fill-opacity="0.6"/>
<path d="M48.1864 16.3999C47.8073 16.1421 47.4131 15.8389 47.216 15.4143C47.1023 15.1642 47.3828 15.1869 47.5117 15.3006C47.8301 15.5811 48.0348 15.9677 48.2698 16.3165C48.3228 16.3923 48.2622 16.4529 48.1864 16.3999Z" fill="#A37254" fill-opacity="0.6"/>
<path d="M54.1514 2.67008C53.8709 2.04086 53.454 1.44954 53.2872 0.774829C53.2038 0.441265 53.6738 0.661115 53.7496 0.835478C53.9998 1.41922 54.159 2.05602 54.2727 2.68524C54.2955 2.77622 54.1742 2.71557 54.1514 2.67008Z" fill="#A37254" fill-opacity="0.6"/>
<path d="M55.9795 1.84321C55.9416 1.45658 55.8734 0.963812 56.2145 0.683315C56.2752 0.637829 56.3434 0.728797 56.3662 0.774283C56.5178 1.22914 56.3586 1.53997 56.169 1.96451C56.1236 2.07064 55.9795 1.91144 55.9795 1.84321Z" fill="#A37254" fill-opacity="0.6"/>
<path d="M47.5323 5.67199C46.5846 5.12616 45.3793 4.89873 44.5908 4.1103C44.371 3.89045 44.3558 3.39769 44.7804 3.60238C45.2959 3.85255 45.7811 4.21643 46.2662 4.51967C46.759 4.82291 47.1835 5.15648 47.5626 5.5886C47.5929 5.6265 47.6005 5.70989 47.5323 5.67199Z" fill="#A37254" fill-opacity="0.6"/>
<path d="M53.0226 5.48283C52.4919 4.71715 51.9991 3.92872 51.4761 3.15545C51.188 2.72334 50.4299 1.95009 50.6118 1.38909C50.6346 1.32844 50.7028 1.33602 50.7483 1.35876C51.2941 1.66958 51.4988 2.27606 51.8021 2.80674C52.2872 3.66339 52.7648 4.55036 53.1363 5.46766C53.1742 5.55863 53.0605 5.53589 53.0226 5.48283Z" fill="#A37254" fill-opacity="0.6"/>
<path d="M50.5505 2.91292C50.3382 2.67033 49.6332 2.16998 49.7848 1.78335C49.7924 1.75303 49.8379 1.75303 49.8607 1.7682C50.2625 1.9653 50.4595 2.50355 50.6491 2.87502C50.687 2.95841 50.596 2.95841 50.5505 2.91292Z" fill="#A37254" fill-opacity="0.6"/>
<path d="M42.2865 8.59093C42.2259 8.01983 42.193 7.44619 42.188 6.87004C42.1804 6.4455 42.0667 5.82386 42.3851 5.49788C42.4306 5.45239 42.514 5.5282 42.5291 5.5661C42.9688 6.45308 42.5443 7.71911 42.423 8.65916C42.4078 8.74255 42.2941 8.644 42.2865 8.59093Z" fill="#A37254" fill-opacity="0.6"/>
<path d="M58.5176 12.6377C58.5176 12.2132 58.5782 11.7811 58.6161 11.349C58.6161 11.3186 58.6313 11.2656 58.6768 11.258C58.7071 11.2529 58.7374 11.2479 58.7678 11.2428C58.8133 11.2428 58.8486 11.2605 58.8739 11.2959C59.1316 11.6825 58.7905 12.3193 58.601 12.6908C58.5782 12.7363 58.5176 12.6756 58.5176 12.6377Z" fill="#A37254" fill-opacity="0.6"/>
<path d="M57.4258 5.08234C57.5066 4.55167 57.6077 4.02352 57.729 3.49791C57.8124 3.09612 57.7897 2.3456 58.2142 2.19398C58.3052 2.16365 58.3961 2.26221 58.4189 2.33802C58.525 2.77013 58.2445 3.12644 58.1157 3.54339C57.9413 4.08923 57.8124 4.64263 57.5167 5.1354C57.494 5.1733 57.4258 5.12024 57.4258 5.08234Z" fill="#A37254" fill-opacity="0.6"/>
</svg>
